<?xml version="1.0" encoding="utf-8"?>
<!-- Generator: Adobe Illustrator 14.0.0, SVG Export Plug-In . SVG Version: 6.00 Build 43363)  -->
<!DOCTYPE svg PUBLIC "-//W3C//DTD SVG 1.1//EN" "http://www.w3.org/Graphics/SVG/1.1/DTD/svg11.dtd">
<svg version="1.1" id="Layer_1" xmlns="http://www.w3.org/2000/svg" xmlns:xlink="http://www.w3.org/1999/xlink" x="0px" y="0px"
	 width="195px" height="70px" viewBox="0 0 195 70" enable-background="new 0 0 195 70" xml:space="preserve">
<g>
	<defs>
		<rect id="SVGID_1_" width="195" height="70"/>
	</defs>
	<clipPath id="SVGID_2_">
		<use xlink:href="#SVGID_1_"  overflow="visible"/>
	</clipPath>
	<path clip-path="url(#SVGID_2_)" fill="#F66458" d="M45.5,19v5.218c-6-3.456-10.974-5.184-17.757-5.184
		c-8.193,0-15.071,2.337-19.872,7.136C4.389,29.653,1.896,34,1.121,39h9.356c0.617-3,1.82-5.084,3.636-7.07
		c3.008-3.199,7.137-4.768,12.385-4.768c5.695,0,10.031,1.489,13.008,4.432c2.976,2.945,4.463,6.985,4.463,12.104
		c0,4.672-1.584,8.547-4.752,11.621c-3.168,3.07-7.408,4.609-12.719,4.609c-5.312,0-9.441-1.632-12.385-4.769
		C12.492,53.465,11.361,51,10.695,49H1.279c0.875,5,2.905,8.568,6.116,11.826c4.734,4.801,11.901,7.23,19.963,7.23
		c7.106,0,12.142-1.757,18.142-5.343V67h8V19H45.5z"/>
	<path clip-path="url(#SVGID_2_)" fill="#F66458" d="M99.713,49c-0.682,2-1.746,4.162-3.221,5.779
		c-2.871,3.199-6.955,4.832-12.252,4.832c-5.298,0-9.509-1.536-12.636-4.64c-3.127-3.105-4.69-7.082-4.69-11.945
		c0-11.583,5.742-17.373,17.231-17.373c5.359,0,9.476,1.57,12.347,4.834C98.545,32.739,99.828,36,100.346,39h9.252
		c-0.631-6-2.717-10.474-6.299-14.27c-4.674-4.992-10.878-7.456-19.196-7.456c-6.786,0-12.603,1.825-16.603,5.409V1h-10v66h10
		v-4.669c4,3.777,9.978,5.664,16.507,5.664c8.256,0,14.604-2.466,19.341-7.265c3.1-3.189,4.941-6.73,5.865-11.73H99.713z"/>
	<path clip-path="url(#SVGID_2_)" fill="#F66458" d="M160.199,25.898c-3.922-3.688-8.699-5.863-14.699-6.579v8.287
		c2,0.622,5.922,1.962,8.109,4.052c3.113,2.975,4.473,6.96,4.473,11.952c0,4.865-1.682,8.801-4.862,11.807
		c-3.175,3.01-7.603,4.514-13.185,4.514s-9.975-1.504-13.119-4.514c-3.145-3.006-4.727-6.941-4.727-11.807
		c0-4.928,1.938-8.896,5.051-11.904c2.064-1.995,4.26-3.314,8.26-3.986v-8.31c-6,0.808-10.961,2.962-14.758,6.488
		c-4.93,4.576-7.588,10.479-7.588,17.712s2.336,13.119,7.199,17.664s11.377,6.814,19.635,6.814c8.254,0,14.818-2.27,19.748-6.814
		s7.576-10.432,7.576-17.664S165.062,30.475,160.199,25.898"/>
	<rect x="171.5" y="1" clip-path="url(#SVGID_2_)" fill="#F66458" width="10" height="58"/>
	<polygon clip-path="url(#SVGID_2_)" fill="#F66458" points="177.842,68.554 176.717,64.917 175.586,68.554 173.756,68.554 
		171.662,62.819 173.533,62.819 174.715,66.788 175.865,62.819 177.621,62.819 178.801,66.788 179.963,62.819 181.76,62.819 
		179.662,68.554 	"/>
	<path clip-path="url(#SVGID_2_)" fill="#F66458" d="M187.109,66.183h-4.035c0.18,0.68,0.67,1.062,1.352,1.062
		c0.5,0,0.988-0.203,1.373-0.582l0.967,0.945c-0.582,0.641-1.445,1.008-2.502,1.008c-1.871,0-3.041-1.168-3.041-2.914
		c0-1.773,1.213-2.95,2.99-2.95C186.234,62.752,187.232,64.085,187.109,66.183 M185.342,65.19c0-0.699-0.447-1.156-1.107-1.156
		c-0.641,0-1.074,0.469-1.193,1.156H185.342z"/>
	<path clip-path="url(#SVGID_2_)" fill="#F66458" d="M193.879,65.714c0,1.742-1.041,2.902-2.65,2.902
		c-0.746,0-1.354-0.297-1.754-0.828v0.767h-1.84v-7.896h1.84v2.914c0.4-0.519,0.988-0.82,1.709-0.82
		C192.805,62.753,193.879,63.937,193.879,65.714 M192.027,65.659c0-0.871-0.521-1.488-1.287-1.488c-0.746,0-1.266,0.617-1.266,1.488
		c0,0.896,0.52,1.5,1.266,1.5C191.506,67.159,192.027,66.546,192.027,65.659"/>
</g>
</svg>
