<?xml version="1.0" encoding="utf-8"?>
<!-- Generator: Adobe Illustrator 17.0.2, SVG Export Plug-In . SVG Version: 6.00 Build 0)  -->
<!DOCTYPE svg PUBLIC "-//W3C//DTD SVG 1.1//EN" "http://www.w3.org/Graphics/SVG/1.1/DTD/svg11.dtd">
<svg version="1.1" xmlns="http://www.w3.org/2000/svg" xmlns:xlink="http://www.w3.org/1999/xlink" x="0px" y="0px"
	 width="350.078px" height="111.155px" viewBox="0 0 350.078 111.155" enable-background="new 0 0 350.078 111.155"
	 xml:space="preserve">
<g id="Ebene_1">
	<path fill="#3C5999" d="M349.522,102.547c0,4.418-3.582,8-8,8h-333c-4.418,0-8-3.582-8-8v-94c0-4.418,3.582-8,8-8h333
		c4.418,0,8,3.582,8,8V102.547z"/>
	<path id="White_2_" fill="#FFFFFF" d="M105.958,9.897H24.515c-2.791,0-5.053,2.262-5.053,5.053v81.442
		c0,2.79,2.262,5.053,5.053,5.053h43.846V65.993h-11.93V52.176h11.93V41.987c0-11.824,7.222-18.263,17.77-18.263
		c5.053,0,9.395,0.376,10.661,0.544v12.357l-7.316,0.003c-5.737,0-6.847,2.726-6.847,6.726v8.821h13.682l-1.781,13.816h-11.9v35.452
		h23.329c2.79,0,5.053-2.262,5.053-5.053V14.95C111.01,12.159,108.748,9.897,105.958,9.897z"/>
	<g>
		<path fill="#FFFFFF" d="M152.831,38.627H140.16v-8.961h36.263v8.961h-12.881v38.224h-10.711V38.627z"/>
		<path fill="#FFFFFF" d="M184.26,63.129c0.351,4.411,4.69,6.511,9.661,6.511c3.641,0,6.581-0.49,9.451-1.4l1.4,7.211
			c-3.501,1.4-7.771,2.101-12.392,2.101c-11.621,0-18.271-6.721-18.271-17.433c0-8.68,5.391-18.271,17.291-18.271
			c11.062,0,15.262,8.611,15.262,17.082c0,1.82-0.21,3.43-0.35,4.2H184.26z M196.791,55.849c0-2.59-1.12-6.931-6.021-6.931
			c-4.48,0-6.301,4.06-6.58,6.931H196.791z"/>
		<path fill="#FFFFFF" d="M224.021,33.097c0,2.94-2.24,5.32-5.741,5.32c-3.359,0-5.6-2.38-5.53-5.32
			c-0.069-3.081,2.171-5.391,5.601-5.391C221.781,27.706,223.951,30.016,224.021,33.097z M213.03,76.851V42.618h10.641v34.233
			H213.03z"/>
		<path fill="#FFFFFF" d="M232.209,27.146h10.641v49.705h-10.641V27.146z"/>
		<path fill="#FFFFFF" d="M259.649,63.129c0.351,4.411,4.69,6.511,9.661,6.511c3.641,0,6.581-0.49,9.451-1.4l1.4,7.211
			c-3.501,1.4-7.771,2.101-12.392,2.101c-11.621,0-18.271-6.721-18.271-17.433c0-8.68,5.391-18.271,17.291-18.271
			c11.062,0,15.262,8.611,15.262,17.082c0,1.82-0.21,3.43-0.35,4.2H259.649z M272.18,55.849c0-2.59-1.12-6.931-6.021-6.931
			c-4.48,0-6.301,4.06-6.58,6.931H272.18z"/>
		<path fill="#FFFFFF" d="M288.418,53.539c0-4.271-0.14-7.911-0.28-10.921h9.241l0.49,4.69h0.21c1.4-2.17,4.9-5.461,10.571-5.461
			c7,0,12.251,4.621,12.251,14.701v20.303H310.26V57.878c0-4.41-1.54-7.42-5.391-7.42c-2.939,0-4.69,2.03-5.39,3.99
			c-0.28,0.63-0.421,1.68-0.421,2.66v19.742h-10.641V53.539z"/>
	</g>
</g>
<g id="Ebene_2" display="none">
	<linearGradient id="SVGID_1_" gradientUnits="userSpaceOnUse" x1="175.0218" y1="110.6303" x2="175.0218" y2="0.8866">
		<stop  offset="0" style="stop-color:#A6281B"/>
		<stop  offset="1" style="stop-color:#DB4A38"/>
	</linearGradient>
	<path display="inline" fill="url(#SVGID_1_)" d="M349.522,102.63c0,4.418-3.582,8-8,8h-333c-4.418,0-8-3.582-8-8v-94
		c0-4.418,3.582-8,8-8h333c4.418,0,8,3.582,8,8V102.63z"/>
	<defs>
		<filter id="Adobe_OpacityMaskFilter" filterUnits="userSpaceOnUse" x="18.845" y="9.345" width="93.113" height="93.179">
			<feColorMatrix  type="matrix" values="1 0 0 0 0  0 1 0 0 0  0 0 1 0 0  0 0 0 1 0"/>
		</filter>
	</defs>
	<mask maskUnits="userSpaceOnUse" x="18.845" y="9.345" width="93.113" height="93.179" id="SVGID_2_" display="inline">
		<g filter="url(#Adobe_OpacityMaskFilter)">
			<path fill="#FFFFFF" d="M106.99,94.114c0,7.098-5.039,12.853-11.255,12.853H25.936c-6.215,0-11.255-5.755-11.255-12.853
				L5.604,16.998c0-7.099,5.039-12.853,11.255-12.853h101.57c6.215,0,11.255,5.754,11.255,12.853L106.99,94.114z"/>
		</g>
	</mask>
	<g display="inline" mask="url(#SVGID_2_)">
		<g>
			<g>
				<polygon fill="#FFFFFF" points="110.957,23.983 98.559,23.983 98.559,11.585 92.36,11.585 92.36,23.983 79.961,23.983 
					79.961,30.182 92.36,30.182 92.36,42.581 98.559,42.581 98.559,30.182 110.957,30.182 				"/>
			</g>
			<g>
				<path fill="#FFFFFF" d="M66.943,62.522c-2.491-1.869-7.912-5.7-7.912-8.272c0-3.015,0.86-4.499,5.396-8.042
					c4.65-3.634,7.942-8.422,7.942-14.364c0-6.473-2.647-12.345-7.625-15.197h7.055l6.005-6.303c0,0-19.846,0-26.875,0
					c-13.638,0-25.003,10.056-25.003,21.117c0,11.304,7.468,20.313,20.292,20.313c0.892,0,1.757-0.046,2.606-0.107
					c-0.832,1.596-1.427,3.373-1.427,5.238c0,3.141,1.727,4.933,3.864,7.01c-1.615,0-3.173,0.044-4.875,0.044
					c-15.612,0-26.542,10.745-26.542,21.058c0,10.154,13.175,16.505,28.788,16.505c17.8,0,28.746-10.1,28.746-20.256
					C77.379,73.126,75.622,69.031,66.943,62.522z M51.411,47.668c-7.245-0.218-14.128-6.863-15.379-16.374
					C34.783,21.78,39.64,14.5,46.882,14.716c7.242,0.217,13.438,8.021,14.688,17.533C62.82,41.762,58.652,47.884,51.411,47.668z
					 M48.574,97.034c-10.791,0-18.586-6.831-18.586-15.038c0-8.042,9.144-14.98,19.937-14.861c2.518,0.027,4.864,0.431,6.995,1.121
					c5.858,4.073,10.584,6.618,11.77,11.26c0.222,0.94,0.344,1.908,0.344,2.899C69.034,90.622,63.747,97.034,48.574,97.034z"/>
			</g>
		</g>
		<g>
			<g>
				<polygon fill="#FFFFFF" points="110.957,23.983 98.559,23.983 98.559,11.585 92.36,11.585 92.36,23.983 79.961,23.983 
					79.961,30.182 92.36,30.182 92.36,42.581 98.559,42.581 98.559,30.182 110.957,30.182 				"/>
				<path fill="#FFFFFF" d="M98.559,11.585v12.398h12.398v6.199H98.559v12.398H92.36V30.182H79.961v-6.199H92.36V11.585H98.559
					 M99.559,10.585h-1H92.36h-1v1v11.398H79.961h-1v1v6.199v1h1H91.36v11.398v1h1h6.199h1v-1V31.182h11.398h1v-1v-6.199v-1h-1
					H99.559V11.585V10.585L99.559,10.585z"/>
			</g>
			<g>
				<path fill="#FFFFFF" d="M66.943,62.522c-2.491-1.869-7.912-5.7-7.912-8.272c0-3.015,0.86-4.499,5.396-8.042
					c4.65-3.634,7.942-8.422,7.942-14.364c0-6.473-2.647-12.345-7.625-15.197h7.055l6.005-6.303c0,0-19.846,0-26.875,0
					c-13.638,0-25.003,10.056-25.003,21.117c0,11.304,7.468,20.313,20.292,20.313c0.892,0,1.757-0.046,2.606-0.107
					c-0.832,1.596-1.427,3.373-1.427,5.238c0,3.141,1.727,4.933,3.864,7.01c-1.615,0-3.173,0.044-4.875,0.044
					c-15.612,0-26.542,10.745-26.542,21.058c0,10.154,13.175,16.505,28.788,16.505c17.8,0,28.746-10.1,28.746-20.256
					C77.379,73.126,75.622,69.031,66.943,62.522z M51.411,47.668c-7.245-0.218-14.128-6.863-15.379-16.374
					C34.783,21.78,39.64,14.5,46.882,14.716c7.242,0.217,13.438,8.021,14.688,17.533C62.82,41.762,58.652,47.884,51.411,47.668z
					 M48.574,97.034c-10.791,0-18.586-6.831-18.586-15.038c0-8.042,9.144-14.98,19.937-14.861c2.518,0.027,4.864,0.431,6.995,1.121
					c5.858,4.073,10.584,6.618,11.77,11.26c0.222,0.94,0.344,1.908,0.344,2.899C69.034,90.622,63.747,97.034,48.574,97.034z"/>
				<path fill="#FFFFFF" d="M77.804,10.345l-6.005,6.303h-7.055c4.978,2.852,7.625,8.724,7.625,15.197
					c0,5.941-3.292,10.729-7.942,14.364c-4.536,3.543-5.396,5.027-5.396,8.042c0,2.572,5.421,6.403,7.912,8.272
					c8.679,6.509,10.436,10.604,10.436,18.745c0,10.156-10.947,20.256-28.746,20.256c-15.612,0-28.788-6.352-28.788-16.505
					c0-10.313,10.93-21.058,26.542-21.058c1.701,0,3.26-0.044,4.875-0.044c-2.137-2.078-3.864-3.87-3.864-7.01
					c0-1.865,0.595-3.642,1.427-5.238c-0.849,0.06-1.714,0.107-2.606,0.107c-12.824,0-20.292-9.009-20.292-20.313
					c0-11.062,11.364-21.117,25.003-21.117C57.958,10.345,77.804,10.345,77.804,10.345 M51.78,47.674
					c7.013,0,11.019-6.074,9.79-15.425c-1.25-9.512-7.446-17.316-14.688-17.533c-0.105-0.003-0.209-0.005-0.312-0.005
					c-7.069,0-11.769,7.207-10.537,16.583c1.251,9.511,8.134,16.156,15.379,16.374C51.535,47.672,51.658,47.674,51.78,47.674
					 M48.574,97.034c15.173,0,20.46-6.412,20.46-14.619c0-0.99-0.122-1.959-0.344-2.899c-1.186-4.642-5.912-7.187-11.77-11.26
					c-2.131-0.69-4.477-1.095-6.995-1.121c-0.092-0.001-0.181-0.002-0.273-0.002c-10.672,0.001-19.664,6.889-19.664,14.863
					C29.989,90.203,37.783,97.034,48.574,97.034 M80.138,9.345h-2.334H50.928c-13.852,0-26.003,10.335-26.003,22.117
					c0,12.549,8.756,21.313,21.292,21.313c0.327,0,0.66-0.006,1.012-0.018c-0.553,1.421-0.833,2.811-0.833,4.149
					c0,2.662,1.111,4.477,2.502,6.032c-0.008,0-0.017,0-0.025,0c-0.81,0.011-1.631,0.022-2.488,0.022
					c-16.475,0-27.542,11.405-27.542,22.058c0,10.143,12.527,17.505,29.788,17.505c8.463,0,16.154-2.317,21.656-6.525
					c5.142-3.932,8.091-9.302,8.091-14.731c0-8.964-2.329-13.165-10.836-19.545l-0.592-0.442c-2.071-1.541-6.92-5.149-6.92-7.03
					c0-2.587,0.658-3.853,5.012-7.254c5.447-4.257,8.326-9.496,8.326-15.152c0-5.855-2.041-10.946-5.58-14.197h4.01h0.428
					l0.296-0.31l6.005-6.303L80.138,9.345L80.138,9.345z M51.78,46.674c-0.112,0-0.225-0.002-0.338-0.005
					c-7.085-0.213-13.283-6.879-14.417-15.505c-0.656-4.996,0.427-9.525,2.972-12.427c1.736-1.979,4.009-3.026,6.573-3.026
					c0.095,0,0.188,0.001,0.283,0.004c6.603,0.198,12.504,7.362,13.726,16.664c0.649,4.942-0.215,9.056-2.433,11.585
					C56.591,45.737,54.389,46.674,51.78,46.674L51.78,46.674z M48.574,96.034c-9.861,0-17.586-6.166-17.586-14.038
					c0-7.514,8.547-13.862,18.664-13.863l0.262,0.001c2.272,0.024,4.478,0.37,6.559,1.028c0.81,0.562,1.597,1.094,2.357,1.608
					c4.628,3.13,7.972,5.392,8.892,8.993c0.206,0.872,0.313,1.77,0.313,2.651C68.034,91.452,61.487,96.034,48.574,96.034
					L48.574,96.034z"/>
			</g>
		</g>
	</g>
	<g display="inline">
		<path fill="#FFFFFF" d="M153.004,38.129h-12.671v-8.961h36.263v8.961h-12.881v38.224h-10.711V38.129z"/>
		<path fill="#FFFFFF" d="M184.433,62.632c0.351,4.411,4.69,6.511,9.661,6.511c3.641,0,6.581-0.49,9.451-1.4l1.4,7.211
			c-3.501,1.4-7.771,2.101-12.392,2.101c-11.621,0-18.271-6.721-18.271-17.433c0-8.68,5.391-18.271,17.291-18.271
			c11.062,0,15.262,8.611,15.262,17.082c0,1.82-0.21,3.43-0.35,4.2H184.433z M196.964,55.352c0-2.59-1.12-6.931-6.021-6.931
			c-4.48,0-6.301,4.06-6.58,6.931H196.964z"/>
		<path fill="#FFFFFF" d="M224.193,32.599c0,2.94-2.24,5.32-5.741,5.32c-3.359,0-5.6-2.38-5.53-5.32
			c-0.069-3.081,2.171-5.391,5.601-5.391C221.953,27.209,224.123,29.519,224.193,32.599z M213.202,76.354V42.12h10.641v34.233
			H213.202z"/>
		<path fill="#FFFFFF" d="M232.382,26.649h10.641v49.705h-10.641V26.649z"/>
		<path fill="#FFFFFF" d="M259.821,62.632c0.351,4.411,4.69,6.511,9.661,6.511c3.641,0,6.581-0.49,9.451-1.4l1.4,7.211
			c-3.501,1.4-7.771,2.101-12.392,2.101c-11.621,0-18.271-6.721-18.271-17.433c0-8.68,5.391-18.271,17.291-18.271
			c11.062,0,15.262,8.611,15.262,17.082c0,1.82-0.21,3.43-0.35,4.2H259.821z M272.353,55.352c0-2.59-1.12-6.931-6.021-6.931
			c-4.48,0-6.301,4.06-6.58,6.931H272.353z"/>
		<path fill="#FFFFFF" d="M288.591,53.041c0-4.271-0.14-7.911-0.28-10.921h9.241l0.49,4.69h0.21c1.4-2.17,4.9-5.461,10.571-5.461
			c7,0,12.251,4.621,12.251,14.701v20.303h-10.642V57.381c0-4.41-1.54-7.42-5.391-7.42c-2.939,0-4.69,2.03-5.39,3.99
			c-0.28,0.63-0.421,1.68-0.421,2.66v19.742h-10.641V53.041z"/>
	</g>
</g>
<g id="Ebene_3" display="none">
	<path display="inline" fill="#42ABE1" d="M349.539,102.547c0,4.418-3.582,8-8,8h-333c-4.418,0-8-3.582-8-8v-94c0-4.418,3.582-8,8-8
		h333c4.418,0,8,3.582,8,8V102.547z"/>
	<g display="inline">
		<path fill="#FFFFFF" d="M153.021,38.046H140.35v-8.961h36.263v8.961h-12.881V76.27h-10.711V38.046z"/>
		<path fill="#FFFFFF" d="M184.45,62.548c0.351,4.411,4.69,6.511,9.661,6.511c3.641,0,6.581-0.49,9.451-1.4l1.4,7.211
			c-3.501,1.4-7.771,2.101-12.392,2.101c-11.621,0-18.271-6.721-18.271-17.433c0-8.68,5.391-18.271,17.291-18.271
			c11.062,0,15.262,8.611,15.262,17.082c0,1.82-0.21,3.43-0.35,4.2H184.45z M196.981,55.268c0-2.59-1.12-6.931-6.021-6.931
			c-4.48,0-6.301,4.06-6.58,6.931H196.981z"/>
		<path fill="#FFFFFF" d="M224.211,32.516c0,2.94-2.24,5.32-5.741,5.32c-3.359,0-5.6-2.38-5.53-5.32
			c-0.069-3.081,2.171-5.391,5.601-5.391C221.971,27.125,224.141,29.435,224.211,32.516z M213.22,76.27V42.037h10.641V76.27H213.22z
			"/>
		<path fill="#FFFFFF" d="M232.399,26.565h10.641V76.27h-10.641V26.565z"/>
		<path fill="#FFFFFF" d="M259.839,62.548c0.351,4.411,4.69,6.511,9.661,6.511c3.641,0,6.581-0.49,9.451-1.4l1.4,7.211
			c-3.501,1.4-7.771,2.101-12.392,2.101c-11.621,0-18.271-6.721-18.271-17.433c0-8.68,5.391-18.271,17.291-18.271
			c11.062,0,15.262,8.611,15.262,17.082c0,1.82-0.21,3.43-0.35,4.2H259.839z M272.37,55.268c0-2.59-1.12-6.931-6.021-6.931
			c-4.48,0-6.301,4.06-6.58,6.931H272.37z"/>
		<path fill="#FFFFFF" d="M288.608,52.958c0-4.271-0.14-7.911-0.28-10.921h9.241l0.49,4.69h0.21c1.4-2.17,4.9-5.461,10.571-5.461
			c7,0,12.251,4.621,12.251,14.701V76.27H310.45V57.297c0-4.41-1.54-7.42-5.391-7.42c-2.939,0-4.69,2.03-5.39,3.99
			c-0.28,0.63-0.421,1.68-0.421,2.66V76.27h-10.641V52.958z"/>
	</g>
	<g id="Livello_x0020_1" display="inline">
		<path fill="#FFFFFF" d="M111.069,24.4c-3.362,1.484-6.969,2.491-10.753,2.94c3.866-2.314,6.833-5.989,8.221-10.358
			c-3.621,2.151-7.622,3.702-11.883,4.546c-3.416-3.634-8.276-5.907-13.666-5.907c-10.331,0-18.715,8.384-18.715,18.715
			c0,1.47,0.163,2.899,0.49,4.26c-15.558-0.776-29.346-8.235-38.574-19.559c-1.606,2.763-2.532,5.975-2.532,9.405
			c0,6.493,3.308,12.223,8.33,15.571c-3.063-0.095-5.948-0.939-8.48-2.341c0,0.082,0,0.15,0,0.231
			c0,9.065,6.452,16.633,15.013,18.348c-1.565,0.422-3.226,0.653-4.927,0.653c-1.211,0-2.382-0.123-3.525-0.34
			c2.382,7.432,9.296,12.849,17.477,12.999c-6.411,5.023-14.469,8.017-23.248,8.017c-1.511,0-2.994-0.095-4.464-0.259
			c8.276,5.308,18.116,8.412,28.692,8.412c34.423,0,53.247-28.515,53.247-53.247c0-0.817-0.014-1.62-0.054-2.423
			c3.661-2.641,6.833-5.934,9.337-9.691L111.069,24.4z"/>
	</g>
</g>
</svg>
