<?xml version="1.0" encoding="utf-8"?>
<!-- Generator: Adobe Illustrator 14.0.0, SVG Export Plug-In . SVG Version: 6.00 Build 43363)  -->
<!DOCTYPE svg PUBLIC "-//W3C//DTD SVG 1.1//EN" "http://www.w3.org/Graphics/SVG/1.1/DTD/svg11.dtd">
<svg version="1.1" id="Layer_1" xmlns="http://www.w3.org/2000/svg" xmlns:xlink="http://www.w3.org/1999/xlink" x="0px" y="0px"
	 width="212px" height="76px" viewBox="0 0 212 76" enable-background="new 0 0 212 76" xml:space="preserve">
<g>
	<path fill="#3E3E3E" d="M55.799,45.994h0.574c0.242,0,0.44-0.033,0.595-0.094c0.156-0.066,0.279-0.17,0.404-0.312l3.691-4.681
		c0.159-0.2,0.319-0.337,0.492-0.418c0.17-0.075,0.378-0.118,0.645-0.118h2.148l-4.512,5.577c-0.153,0.173-0.282,0.321-0.419,0.437
		c-0.125,0.119-0.269,0.216-0.41,0.287c0.203,0.078,0.384,0.18,0.554,0.312c0.166,0.141,0.322,0.312,0.473,0.525l4.663,6.279H62.49
		c-0.296,0-0.522-0.041-0.669-0.125c-0.144-0.089-0.265-0.207-0.361-0.367l-3.796-4.955c-0.131-0.157-0.263-0.276-0.416-0.352
		c-0.153-0.064-0.376-0.103-0.658-0.103H55.8v5.899h-2.495V40.366H55.8L55.799,45.994L55.799,45.994z"/>
	<path fill="#3E3E3E" d="M68.819,41.496c0,0.204-0.047,0.389-0.118,0.563c-0.085,0.168-0.192,0.321-0.319,0.446
		c-0.132,0.129-0.291,0.233-0.47,0.311c-0.183,0.08-0.375,0.115-0.582,0.115c-0.198,0-0.38-0.035-0.56-0.115
		c-0.175-0.076-0.328-0.182-0.458-0.311c-0.127-0.125-0.231-0.278-0.308-0.446c-0.075-0.177-0.11-0.359-0.11-0.563
		c0-0.205,0.035-0.392,0.11-0.57c0.077-0.182,0.181-0.334,0.308-0.467c0.13-0.129,0.283-0.229,0.458-0.311
		c0.179-0.078,0.362-0.117,0.56-0.117c0.207,0,0.399,0.039,0.582,0.117c0.179,0.08,0.337,0.182,0.47,0.311
		c0.127,0.133,0.233,0.285,0.319,0.467C68.772,41.104,68.819,41.291,68.819,41.496z M68.473,44.272v9.517h-2.286v-9.517H68.473z"/>
	<path fill="#3E3E3E" d="M71.071,53.789v-9.517h1.395c0.296,0,0.488,0.138,0.58,0.412l0.164,0.759
		c0.186-0.203,0.393-0.379,0.605-0.541c0.211-0.164,0.433-0.302,0.679-0.417c0.229-0.118,0.481-0.209,0.757-0.271
		c0.274-0.059,0.578-0.094,0.895-0.094c0.52,0,0.979,0.09,1.383,0.267c0.408,0.176,0.738,0.42,1.005,0.737
		c0.269,0.323,0.47,0.699,0.607,1.145c0.146,0.439,0.221,0.932,0.221,1.461v6.059h-2.299V47.73c0-0.583-0.134-1.032-0.401-1.35
		c-0.269-0.322-0.669-0.48-1.216-0.48c-0.388,0-0.755,0.091-1.109,0.271c-0.356,0.182-0.675,0.422-0.981,0.73v6.885h-2.285V53.789z"
		/>
	<path fill="#3E3E3E" d="M88.296,53.789c-0.289,0-0.482-0.143-0.574-0.422l-0.188-0.916c-0.199,0.221-0.402,0.42-0.618,0.604
		c-0.223,0.177-0.45,0.332-0.697,0.464c-0.254,0.129-0.532,0.235-0.81,0.299c-0.297,0.076-0.595,0.106-0.933,0.106
		c-0.52,0-1.001-0.106-1.422-0.321c-0.44-0.22-0.816-0.535-1.126-0.938c-0.312-0.416-0.554-0.922-0.716-1.529
		c-0.172-0.604-0.266-1.295-0.266-2.078c0-0.705,0.098-1.361,0.299-1.96c0.187-0.611,0.461-1.136,0.82-1.582
		s0.794-0.791,1.284-1.043c0.504-0.249,1.06-0.376,1.689-0.376c0.537,0,0.988,0.089,1.363,0.253c0.38,0.174,0.704,0.397,1.012,0.687
		v-5.031h2.29v13.783h-1.407V53.789z M85.255,52.104c0.478,0,0.881-0.099,1.214-0.294c0.345-0.2,0.638-0.479,0.945-0.844v-4.27
		c-0.255-0.312-0.548-0.537-0.854-0.67c-0.31-0.128-0.63-0.189-0.98-0.189c-0.349,0-0.66,0.062-0.943,0.189
		c-0.28,0.133-0.521,0.328-0.715,0.594c-0.189,0.262-0.343,0.594-0.449,1.006c-0.105,0.396-0.156,0.879-0.156,1.428
		c0,0.556,0.047,1.025,0.131,1.414c0.089,0.391,0.228,0.703,0.392,0.949c0.16,0.242,0.367,0.418,0.605,0.529
		C84.692,52.051,84.953,52.104,85.255,52.104z"/>
	<path fill="#3E3E3E" d="M96.113,44.121c0.599,0,1.158,0.094,1.655,0.289c0.5,0.19,0.937,0.473,1.302,0.842
		c0.361,0.367,0.65,0.819,0.852,1.352c0.209,0.533,0.306,1.143,0.306,1.833c0,0.17-0.002,0.319-0.023,0.431
		c-0.014,0.114-0.043,0.207-0.081,0.27c-0.035,0.064-0.099,0.109-0.164,0.138c-0.062,0.028-0.148,0.043-0.257,0.043h-5.876
		c0.066,0.979,0.329,1.695,0.784,2.149c0.461,0.457,1.064,0.688,1.812,0.688c0.382,0,0.699-0.043,0.97-0.131
		c0.261-0.088,0.507-0.184,0.695-0.287c0.212-0.104,0.38-0.203,0.535-0.283c0.15-0.088,0.296-0.133,0.434-0.133
		c0.102,0,0.182,0.018,0.254,0.057c0.056,0.035,0.121,0.086,0.166,0.156l0.671,0.836c-0.251,0.295-0.542,0.549-0.85,0.747
		c-0.317,0.193-0.646,0.357-0.99,0.478c-0.347,0.125-0.691,0.209-1.048,0.258c-0.357,0.053-0.697,0.074-1.036,0.074
		c-0.658,0-1.267-0.107-1.848-0.332c-0.565-0.217-1.06-0.538-1.479-0.973c-0.427-0.426-0.75-0.959-0.998-1.593
		c-0.234-0.631-0.359-1.364-0.359-2.202c0-0.646,0.104-1.262,0.313-1.836c0.21-0.568,0.518-1.068,0.909-1.486
		c0.39-0.424,0.863-0.765,1.441-1.013C94.762,44.246,95.399,44.121,96.113,44.121z M96.154,45.764c-0.666,0-1.184,0.189-1.557,0.562
		c-0.379,0.381-0.619,0.911-0.729,1.608h4.312c0-0.302-0.048-0.577-0.129-0.841c-0.078-0.268-0.197-0.495-0.369-0.691
		c-0.164-0.203-0.372-0.354-0.632-0.468C96.794,45.822,96.503,45.764,96.154,45.764z"/>
	<path fill="#3E3E3E" d="M102.096,53.789v-9.517h1.349c0.23,0,0.395,0.043,0.486,0.129c0.095,0.084,0.15,0.233,0.183,0.44
		l0.149,1.15c0.328-0.582,0.74-1.048,1.189-1.387c0.452-0.346,0.967-0.514,1.534-0.514c0.479,0,0.863,0.109,1.175,0.324
		l-0.293,1.713c-0.021,0.115-0.067,0.197-0.129,0.237c-0.052,0.05-0.146,0.07-0.248,0.07c-0.084,0-0.226-0.021-0.375-0.063
		c-0.169-0.039-0.374-0.062-0.646-0.062c-0.476,0-0.884,0.126-1.225,0.395c-0.336,0.262-0.621,0.647-0.863,1.15v5.932h-2.287V53.789
		z"/>
	<path fill="#3E3E3E" d="M109.38,47.228h4.8v1.907h-4.8V47.228z"/>
	<path fill="#8D8D8D" d="M121.996,44.272v6.048c0,0.58,0.146,1.025,0.412,1.346c0.269,0.321,0.673,0.477,1.219,0.477
		c0.391,0,0.762-0.085,1.111-0.262c0.34-0.176,0.666-0.418,0.979-0.726v-6.883h2.289v9.517h-1.402c-0.293,0-0.485-0.143-0.576-0.422
		l-0.166-0.759c-0.194,0.197-0.399,0.378-0.608,0.54c-0.214,0.16-0.437,0.309-0.669,0.418c-0.246,0.115-0.506,0.203-0.775,0.271
		c-0.277,0.064-0.564,0.097-0.879,0.097c-0.521,0-0.979-0.088-1.375-0.267c-0.408-0.176-0.738-0.424-1.019-0.742
		c-0.261-0.318-0.476-0.709-0.615-1.15c-0.136-0.438-0.207-0.925-0.207-1.454v-6.048L121.996,44.272L121.996,44.272z"/>
	<path fill="#8D8D8D" d="M130.458,53.789v-9.517h1.401c0.301,0,0.486,0.138,0.582,0.412l0.156,0.759
		c0.186-0.203,0.398-0.379,0.605-0.541c0.217-0.164,0.438-0.302,0.683-0.417c0.233-0.118,0.485-0.209,0.759-0.271
		c0.271-0.059,0.57-0.094,0.891-0.094c0.521,0,0.982,0.09,1.383,0.267c0.4,0.176,0.738,0.42,1.009,0.737
		c0.267,0.323,0.47,0.699,0.607,1.145c0.146,0.439,0.217,0.932,0.217,1.461v6.059h-2.301V47.73c0-0.583-0.13-1.032-0.396-1.35
		c-0.267-0.322-0.669-0.48-1.217-0.48c-0.393,0-0.759,0.091-1.107,0.271c-0.349,0.182-0.672,0.422-0.987,0.73v6.885h-2.285V53.789z"
		/>
	<path fill="#8D8D8D" d="M147.695,53.789c-0.293,0-0.495-0.143-0.582-0.422l-0.187-0.916c-0.196,0.221-0.405,0.42-0.628,0.604
		c-0.207,0.177-0.439,0.332-0.695,0.464c-0.25,0.129-0.517,0.235-0.81,0.299c-0.285,0.076-0.591,0.106-0.931,0.106
		c-0.512,0-0.995-0.106-1.418-0.321c-0.442-0.22-0.813-0.535-1.131-0.938c-0.31-0.416-0.547-0.922-0.715-1.529
		c-0.182-0.604-0.263-1.295-0.263-2.078c0-0.705,0.106-1.361,0.293-1.96c0.19-0.611,0.459-1.136,0.815-1.582
		c0.359-0.446,0.793-0.791,1.289-1.043c0.51-0.249,1.062-0.376,1.692-0.376c0.529,0,0.984,0.089,1.359,0.253
		c0.38,0.174,0.722,0.397,1.016,0.687v-5.031h2.288v13.783h-1.395V53.789z M144.645,52.104c0.484,0,0.881-0.099,1.219-0.294
		c0.328-0.2,0.648-0.479,0.941-0.844v-4.27c-0.259-0.312-0.544-0.537-0.847-0.67c-0.312-0.128-0.64-0.189-0.987-0.189
		s-0.662,0.062-0.941,0.189c-0.273,0.133-0.521,0.328-0.709,0.594c-0.194,0.262-0.353,0.594-0.45,1.006
		c-0.106,0.396-0.162,0.879-0.162,1.428c0,0.556,0.045,1.025,0.136,1.414c0.09,0.391,0.221,0.703,0.381,0.949
		c0.174,0.242,0.367,0.418,0.609,0.529C144.077,52.051,144.352,52.104,144.645,52.104z"/>
	<polygon fill="none" points="20.915,32.135 20.901,32.127 15.079,32.127 15.079,32.15 20.915,32.15 15.079,37.987 15.079,38.032 
		15.079,38.045 20.915,32.21 20.915,32.172 20.92,32.188 23.171,32.188 23.171,32.161 20.915,32.161 23.173,29.898 23.173,29.842 
		20.915,32.103 	"/>
	<polygon fill="none" points="26.723,26.243 23.626,23.153 23.672,23.257 26.652,26.243 	"/>
	<path fill="none" d="M3.354,26.394l-0.009,0.011v5.755H1.196c0,0.007,0.005,0.015,0.008,0.029h2.141v0.97c0,0,0,0,0.009,0v-1.009
		h1.989c0-0.006,0.01-0.017,0.018-0.022H3.354V26.394z"/>
	<polygon fill="none" points="20.915,38.064 17.704,38.064 17.704,38.105 20.915,38.105 20.915,43.967 20.901,43.955 17.704,43.955 
		17.704,43.998 20.915,43.998 17.704,47.201 17.704,47.258 20.915,44.053 20.915,44.019 20.92,44.028 23.15,44.028 23.15,43.985 
		20.915,43.985 23.15,41.739 23.15,41.685 20.915,43.937 20.915,38.073 23.15,38.073 23.15,38.032 20.915,38.032 	"/>
	<path fill="none" d="M15.055,49.908v-0.002l-3.858,3.855c0.012,0.008,0.022,0.018,0.031,0.025l3.828-3.826L15.055,49.908
		L15.055,49.908z"/>
	<path fill="none" d="M28.096,32.15h4.401c0.013-0.006,0.019-0.017,0.019-0.022h-4.444C28.073,32.129,28.091,32.145,28.096,32.15z"
		/>
	<polygon fill="none" points="9.227,20.479 9.227,20.509 14.967,26.243 15.019,26.243 9.235,20.46 9.227,20.471 9.227,20.458 
		9.227,20.458 9.227,20.458 9.227,16.225 9.227,16.225 9.227,20.438 7.384,18.583 7.363,18.625 9.226,20.485 	"/>
	<path fill="none" d="M50.271,52.933c0.011-0.035,0.015-0.071,0.017-0.104V49.86h0.011l0.026-0.022V49.78l-0.037,0.031v-5.858h0.037
		v-0.029h-0.037v-5.851v-0.011l0.019,0.011h0.019v-0.038h-0.037l0.037-0.031v-0.059l-0.037,0.035v-5.859l0,0v-5.787l0,0
		l-0.017,0.019v-5.865h4.027l-0.019-0.026h-4.008v-4.535l0,0v4.503h-5.845l-0.012,0.011v-0.011v-0.024l-4.485-4.479h-0.053
		l4.538,4.535h-5.858v-4.535h-0.051v4.532l0,0v5.785V26.3v0.019v5.843H34.81l-0.012,0.027h3.708v5.846v0.014l-0.01-0.014h-0.631
		v0.04h0.641l-0.641,0.636v0.061l0.641-0.643v5.858h-0.641v0.043h0.641v5.861l-0.003-0.004l-0.638,0.636v0.055l0.641-0.636v3.963
		c0.021,0.015,0.031,0.024,0.051,0.041v-4.084h0.004l4.759-4.76v-0.049l-4.763,4.76v-5.858h4.763v-0.029h-4.763v-5.86l0.006,0.011
		h4.756v-0.041h-4.763l5.858-5.86v-0.015v-0.016l0.009,0.004l5.772-5.777h-0.047l-5.734,5.731v0.031l-0.003-0.004l-5.855,5.851
		v-5.859l0,0v-5.787v-0.07l0,0v-5.777h5.85l0.008-0.009v0.009v0.022l5.734,5.732h0.047l-5.781-5.787h5.857v5.843v0.019v0.054v5.779
		v0.01v5.842v0.008l-0.01-0.008h-5.383v0.037h5.394l-5.394,5.399v0.056l5.394-5.4v5.863h-5.394v0.027h5.394v5.85v0.004v0.006v-0.006
		l-4.365,4.365c0.014,0.01,0.026,0.018,0.029,0.021l4.336-4.335L50.271,52.933L50.271,52.933z"/>
	<polygon fill="none" points="38.38,26.372 37.588,27.17 37.528,27.287 38.435,26.372 	"/>
	<polygon fill="none" points="50.24,26.281 50.213,26.308 50.24,26.334 50.261,26.308 	"/>
	<polygon fill="none" points="38.435,26.243 37.86,25.669 37.86,25.718 38.38,26.243 	"/>
	<polygon fill="none" points="50.529,37.801 54.369,33.96 54.343,33.923 50.477,37.801 	"/>
	<rect x="10.696" y="32.161" fill="none" width="4.359" height="0.027"/>
	<path fill="none" d="M56.147,32.133v-0.004l-0.457,0.455c0.006,0.008,0.017,0.015,0.036,0.022l0.421-0.433v0.708l0,0v-0.723l0,0
		l0,0v-0.014l0.011,0.004l2.888-2.88l-0.021-0.037l-2.878,2.871V32.133z"/>
	<rect x="15.061" y="49.887" fill="none" width="0.005" height="0.021"/>
	<polygon fill="none" points="26.723,26.298 26.737,26.327 26.776,26.298 26.737,26.272 	"/>
	<polygon fill="none" points="15.055,38.105 15.055,38.094 10.701,42.447 10.701,42.502 15.055,38.146 	"/>
	<polygon fill="none" points="26.792,26.334 26.792,26.334 26.792,26.334 26.792,26.265 26.792,20.49 26.792,20.487 26.792,19.868 
		26.783,19.859 26.783,20.458 26.783,20.46 26.783,26.316 26.776,26.298 26.776,26.357 26.783,26.372 26.776,26.372 26.776,29.561 
		26.792,29.602 26.792,26.353 	"/>
	<polygon fill="none" points="14.948,26.372 10.696,30.626 10.696,30.677 15.006,26.372 	"/>
	<polygon fill="none" points="15.079,49.883 15.079,49.888 16.149,48.812 16.149,48.758 15.079,49.838 	"/>
	<polygon fill="none" points="38.445,26.308 38.466,26.334 38.495,26.308 38.466,26.281 	"/>
	<polygon fill="none" points="15.079,43.985 10.701,43.985 10.701,44.028 15.055,44.028 15.055,43.998 16.149,43.998 16.149,43.955 
		15.079,43.955 	"/>
	<polygon fill="none" points="26.647,26.372 25.67,27.336 25.696,27.375 26.697,26.372 	"/>
	<rect x="15.059" y="49.908" fill="none" width="1.091" height="0.006"/>
	<polygon fill="none" points="33.25,21.111 36.643,24.504 36.667,24.474 33.267,21.077 	"/>
	<polygon fill="none" points="50.261,49.834 44.877,49.834 44.877,49.838 50.268,49.838 	"/>
	<polygon fill="none" points="15.071,38.045 15.059,38.032 10.701,38.032 10.701,38.073 15.079,38.073 15.055,38.094 15.059,38.105 
		16.149,38.105 16.149,38.064 15.055,38.064 	"/>
	<polygon fill="none" points="20.923,20.471 20.923,20.458 20.923,20.458 20.923,20.458 20.923,20.438 16.414,15.925 16.356,15.925 
		20.92,20.485 20.923,20.479 20.923,20.509 23.183,22.766 23.183,22.709 20.935,20.46 	"/>
	<polygon fill="none" points="15.043,26.272 15.019,26.298 15.043,26.327 15.055,26.32 15.055,26.277 	"/>
	<rect x="17.704" y="49.908" fill="none" width="3.211" height="0.006"/>
	<polygon fill="#969696" points="15.066,20.458 15.066,15.925 13.777,15.925 9.241,20.458 	"/>
	<path fill="#3E3E3E" d="M9.241,20.458l4.536-4.532h-0.13h-2.413c-0.913-0.024-1.547,0.105-2.007,0.299v4.233H9.241z"/>
	<polygon fill="#3E3E3E" points="9.227,20.458 9.227,20.471 9.235,20.46 	"/>
	<path fill="#747474" d="M9.227,16.225c-0.777,0.321-1.033,0.83-1.184,1.076l-0.659,1.281l1.843,1.856V16.225z"/>
	<polygon fill="#D9D9D9" points="9.226,20.485 7.363,18.625 6.399,20.487 9.221,20.487 	"/>
	<path fill="#3B3B3B" d="M26.783,20.458v-0.598l-1.346-2.498c-0.157-0.304-0.363-0.565-0.618-0.783l-3.871,3.878L26.783,20.458
		L26.783,20.458z"/>
	<path fill="#BBBBBB" d="M20.923,20.458h0.025l3.871-3.878c-0.449-0.378-1.023-0.623-1.646-0.651l-0.099-0.003h-2.151v4.513V20.458z
		"/>
	<polygon fill="#BBBBBB" points="20.923,20.471 20.935,20.46 20.923,20.458 	"/>
	<polygon fill="#D9D9D9" points="20.923,15.925 16.414,15.925 20.923,20.438 	"/>
	<polygon fill="#848484" points="15.089,20.458 15.089,20.46 15.089,20.487 20.92,20.487 20.92,20.485 16.356,15.925 15.066,15.925 
		15.066,20.458 	"/>
	<polygon fill="#969696" points="15.066,26.277 15.066,26.253 15.055,26.272 15.059,26.277 	"/>
	<polygon fill="#969696" points="15.066,20.487 15.089,20.487 15.089,20.46 15.089,20.458 15.066,20.458 9.241,20.458 9.227,20.458 
		9.227,20.458 9.227,20.458 9.235,20.46 15.019,26.243 15.066,26.243 15.066,20.49 	"/>
	<polygon fill="#969696" points="15.055,26.272 15.043,26.272 15.055,26.277 	"/>
	<polygon fill="#D8D8D8" points="9.227,20.509 9.227,24.967 10.679,22.256 10.687,26.243 14.967,26.243 	"/>
	<polygon fill="#D8D8D8" points="14.948,26.372 15.006,26.372 15.043,26.327 15.019,26.298 	"/>
	<polygon fill="#979797" points="9.227,20.479 9.226,20.485 9.221,20.487 9.227,20.487 3.433,26.277 8.533,26.277 9.227,24.967 
		9.227,20.509 	"/>
	<polygon fill="#5E5E5E" points="3.433,26.277 9.227,20.487 9.221,20.487 6.399,20.487 3.416,26.277 	"/>
	<polygon fill="#3B3B3B" points="26.776,26.243 26.737,26.272 26.776,26.298 26.776,26.298 26.776,26.298 26.783,26.316 
		26.783,20.46 26.783,20.458 20.948,20.458 20.923,20.458 20.923,20.458 20.923,20.458 20.935,20.46 23.183,22.709 23.183,22.256 
		23.626,23.153 26.723,26.243 	"/>
	<polygon fill="#AFAFAF" points="23.672,23.257 25.141,26.243 26.652,26.243 	"/>
	<polygon fill="#AFAFAF" points="26.647,26.372 26.697,26.372 26.737,26.327 26.723,26.298 	"/>
	<polygon fill="#AFAFAF" points="20.923,26.243 23.175,26.243 23.183,22.766 20.923,20.509 	"/>
	<polygon fill="#AFAFAF" points="26.783,26.372 26.776,26.357 26.776,26.372 	"/>
	<polygon fill="#848484" points="20.923,20.487 15.148,26.277 20.915,26.277 20.915,26.243 20.923,26.243 20.923,20.509 
		20.923,20.479 20.92,20.485 20.92,20.487 	"/>
	<polygon fill="#787878" points="15.148,26.277 20.923,20.487 20.92,20.487 15.089,20.487 15.066,20.487 15.066,20.49 
		15.066,26.243 15.079,26.243 15.066,26.253 15.066,26.277 	"/>
	<path fill="#BBBBBB" d="M38.505,15.925H38.4c-0.512-0.012-0.941,0.021-1.306,0.094l-2.528,2.536l-0.986,1.902h4.926L38.505,15.925
		L38.505,15.925z"/>
	<path fill="#474747" d="M35.211,17.3l-0.646,1.255l2.528-2.536C35.755,16.276,35.403,16.993,35.211,17.3z"/>
	<polygon fill="#787878" points="27.129,20.487 26.792,19.868 26.792,20.487 	"/>
	<polygon fill="#A3A3A3" points="38.495,26.308 38.505,26.298 38.505,26.243 38.466,26.281 	"/>
	<polygon fill="#A3A3A3" points="38.505,26.243 38.505,20.458 38.505,20.458 33.579,20.458 33.267,21.077 36.667,24.474 
		37.852,22.256 37.86,25.669 38.435,26.243 	"/>
	<polygon fill="#D9D9D9" points="32.654,22.271 32.654,26.243 35.719,26.243 36.643,24.504 33.25,21.111 	"/>
	<polygon fill="#D9D9D9" points="38.38,26.372 38.435,26.372 38.466,26.334 38.445,26.308 	"/>
	<polygon fill="#3E3E3E" points="37.86,25.718 37.86,26.243 38.38,26.243 	"/>
	<polygon fill="#848484" points="30.252,26.277 29.067,24.077 26.86,26.277 	"/>
	<polygon fill="#848484" points="32.654,26.243 32.654,22.271 30.587,26.277 32.654,26.277 	"/>
	<polygon fill="#A3A3A3" points="26.792,20.49 26.792,26.265 26.801,26.277 26.86,26.277 29.067,24.077 27.129,20.487 
		26.792,20.487 	"/>
	<path fill="#A3A3A3" d="M17.704,49.914v2.606c0,0.015,0.01,0.024,0.01,0.043l2.031,2.039c0.221,0.049,0.454,0.071,0.683,0.071
		c0.166,0,0.324-0.016,0.487-0.037v-4.723H17.704z"/>
	<polygon fill="#A3A3A3" points="16.149,51.002 16.149,49.914 15.059,49.914 	"/>
	<rect x="15.056" y="49.904" fill="#747474" width="0.002" height="0.004"/>
	<path fill="#747474" d="M15.059,49.908h-0.003v0.053l0.023-0.021v4.291c0.647-0.396,1.071-1.01,1.071-1.711V51l-1.091-1.086V49.908
		z"/>
	<path fill="#747474" d="M19.745,54.603l-2.031-2.039C17.737,53.543,18.588,54.369,19.745,54.603z"/>
	<path fill="#979797" d="M20.915,49.908v0.006v4.724c1.271-0.181,2.235-1.058,2.235-2.116v-2.639h-2.235V49.908z"/>
	<polygon fill="#BBBBBB" points="20.915,49.883 20.915,49.883 20.915,49.883 20.915,44.053 17.704,47.258 17.704,49.908 
		20.915,49.908 	"/>
	<polygon fill="#BBBBBB" points="15.079,49.89 15.071,49.89 15.059,49.906 15.055,49.908 15.059,49.908 16.149,49.908 
		16.149,48.812 15.079,49.888 	"/>
	<polygon fill="#D9D9D9" points="15.055,44.028 15.079,44.028 15.079,49.838 16.149,48.758 16.149,43.998 15.055,43.998 	"/>
	<polygon fill="#D9D9D9" points="17.704,43.998 17.704,47.201 20.915,43.998 	"/>
	<polygon fill="#747474" points="20.92,44.028 20.915,44.019 20.915,44.053 20.915,49.883 20.915,49.883 23.15,49.883 23.15,46.276 
		20.915,44.028 	"/>
	<polygon fill="#474747" points="20.915,44.028 23.15,46.276 23.15,44.028 20.92,44.028 	"/>
	<path fill="#D8D8D8" d="M15.055,49.903l0.011-0.019v-0.002h-4.365v2.638c0,0.457,0.184,0.888,0.496,1.241l3.858-3.855V49.903z"/>
	<path fill="#BBBBBB" d="M15.079,49.94l-0.023,0.021l-3.828,3.828c0.491,0.534,1.288,0.885,2.196,0.885
		c0.619,0,1.189-0.166,1.655-0.441V49.94z"/>
	<polygon fill="#5E5E5E" points="15.066,49.883 15.066,49.885 15.071,49.89 15.079,49.89 15.079,49.888 15.079,49.883 
		15.059,49.883 	"/>
	<polygon fill="#5E5E5E" points="15.079,49.883 15.079,49.838 15.079,44.028 15.055,44.028 10.701,44.028 10.701,45.502 	"/>
	<polygon fill="#AFAFAF" points="15.079,49.883 10.701,45.502 10.701,49.883 15.059,49.883 	"/>
	<polygon fill="#474747" points="38.502,49.883 37.864,49.883 37.864,50.521 38.502,49.885 	"/>
	<path fill="#787878" d="M37.864,50.576v1.944c0,0.528,0.243,1.011,0.641,1.383V49.94L37.864,50.576z"/>
	<polygon fill="#474747" points="37.864,49.246 37.864,49.883 38.495,49.883 	"/>
	<polygon fill="#474747" points="38.502,49.883 38.502,49.885 38.505,49.89 38.505,44.028 37.864,44.028 37.864,49.246 
		38.495,49.883 	"/>
	<polygon fill="#AFAFAF" points="15.066,26.277 15.059,26.277 20.915,32.127 20.901,32.127 20.915,32.135 20.915,32.103 
		20.915,26.277 15.148,26.277 	"/>
	<polygon fill="#666666" points="15.059,26.277 15.055,26.272 15.055,26.272 15.055,26.277 15.055,26.32 15.079,26.298 
		15.079,32.127 20.901,32.127 20.915,32.127 	"/>
	<polygon fill="#3E3E3E" points="15.055,32.161 15.055,32.188 15.079,32.188 15.079,37.987 20.915,32.15 15.079,32.15 
		15.079,32.161 	"/>
	<polygon fill="#D5D5D5" points="20.915,38.032 20.915,32.21 15.079,38.045 15.079,38.045 15.071,38.045 15.055,38.064 
		16.149,38.064 16.149,37.857 17.704,37.857 17.704,38.064 20.915,38.064 	"/>
	<polygon fill="#AFAFAF" points="26.723,26.298 26.737,26.272 26.776,26.243 26.723,26.243 26.652,26.243 25.141,26.243 
		25.67,27.336 26.647,26.372 	"/>
	<polygon fill="#AFAFAF" points="20.915,26.243 20.915,26.277 20.915,32.103 23.173,29.842 23.175,26.243 20.923,26.243 	"/>
	<polygon fill="#3E3E3E" points="23.171,32.161 23.173,29.898 20.915,32.161 	"/>
	<polygon fill="#3E3E3E" points="26.776,26.357 26.776,26.298 26.776,26.298 26.776,26.298 26.737,26.327 26.697,26.372 
		25.696,27.375 26.776,29.561 26.776,26.372 	"/>
	<polygon fill="#848484" points="23.164,34.426 23.171,32.188 20.92,32.188 	"/>
	<polygon fill="#666666" points="20.915,32.172 20.915,32.21 20.915,38.032 23.15,38.032 23.15,37.857 23.164,34.426 20.92,32.188 	
		"/>
	<rect x="15.053" y="38.094" fill="#A3A3A3" width="0.003" height="0.012"/>
	<polygon fill="#A3A3A3" points="17.704,40.764 17.704,43.955 20.901,43.955 	"/>
	<polygon fill="#A3A3A3" points="15.079,43.955 16.149,43.955 16.149,39.207 15.079,38.131 	"/>
	<polygon fill="#A3A3A3" points="15.071,38.131 15.055,38.105 15.055,38.146 	"/>
	<polygon fill="#BBBBBB" points="20.915,43.967 20.915,38.105 17.704,38.105 17.704,40.764 20.901,43.955 	"/>
	<polygon fill="#BBBBBB" points="15.055,38.105 15.071,38.131 15.079,38.127 15.079,38.131 16.149,39.207 16.149,38.105 
		15.059,38.105 	"/>
	<polygon fill="#666666" points="20.915,43.937 23.15,41.685 23.15,38.073 20.915,38.073 	"/>
	<polygon fill="#5E5E5E" points="23.15,43.985 23.15,41.739 20.915,43.985 	"/>
	<polygon fill="#D8D8D8" points="3.416,26.277 3.398,26.31 6.736,29.64 8.533,26.277 3.433,26.277 	"/>
	<path fill="#3E3E3E" d="M3.398,26.31l-0.044,0.084v5.734h2.007c0.088-0.115,0.17-0.232,0.232-0.365l1.143-2.123L3.398,26.31z"/>
	<path fill="#3E3E3E" d="M3.354,33.16c0.778-0.062,1.512-0.433,1.989-1.009H3.354V33.16z"/>
	<polygon fill="#D9D9D9" points="15.019,26.298 15.043,26.272 15.055,26.272 15.055,26.272 15.066,26.253 15.079,26.243 
		15.066,26.243 15.019,26.243 14.967,26.243 10.687,26.243 10.696,30.626 14.948,26.372 	"/>
	<polygon fill="#666666" points="15.079,32.161 15.079,32.15 15.079,32.127 15.079,26.298 15.055,26.32 15.043,26.327 
		15.006,26.372 10.696,30.677 10.696,32.161 15.055,32.161 	"/>
	<polygon fill="#969696" points="15.071,38.045 15.079,38.045 15.079,38.045 15.079,38.032 15.059,38.032 	"/>
	<polygon fill="#969696" points="15.079,38.032 15.079,37.987 15.079,32.188 15.055,32.188 10.696,32.188 10.696,33.657 	"/>
	<polygon fill="#474747" points="15.079,38.032 10.696,33.657 10.701,37.857 10.701,38.032 15.059,38.032 	"/>
	<polygon fill="#474747" points="15.055,38.094 15.079,38.073 10.701,38.073 10.701,42.447 	"/>
	<polygon fill="#979797" points="15.079,43.955 15.079,38.131 15.079,38.127 15.071,38.131 15.055,38.146 10.701,42.502 
		10.701,43.985 15.079,43.985 	"/>
	<path fill="#848484" d="M32.654,26.334v-0.056h-2.067l-0.168,0.317l-0.166-0.317H26.86H26.8l5.774,5.774
		c0.031-0.031,0.055-0.069,0.079-0.101v-5.58L32.654,26.334L32.654,26.334z"/>
	<path fill="#3E3E3E" d="M26.801,26.277l-0.009-0.013v0.069l0,0v0.019v3.249l1.088,2.223c0.055,0.106,0.131,0.205,0.191,0.304h4.444
		c0.024-0.031,0.039-0.052,0.06-0.076L26.801,26.277z"/>
	<path fill="#3E3E3E" d="M31.062,33.141c0.582-0.157,1.072-0.498,1.378-0.921c0.026-0.021,0.035-0.047,0.058-0.069h-4.401
		C28.741,32.998,29.979,33.434,31.062,33.141z"/>
	<polygon fill="#3E3E3E" points="31.652,37.832 32.654,37.832 32.654,36.044 	"/>
	<path fill="#D9D9D9" d="M32.654,26.277v0.056v0.037v5.58c0.036-0.06,0.076-0.116,0.109-0.188l2.956-5.521h-3.065V26.277z"/>
	<polygon fill="#3E3E3E" points="38.445,26.308 38.466,26.281 38.505,26.243 38.435,26.243 38.38,26.243 37.86,26.243 37.86,26.679 
		37.588,27.17 38.38,26.372 	"/>
	<polygon fill="#A3A3A3" points="38.505,26.316 38.505,26.298 38.495,26.308 38.466,26.334 38.435,26.372 37.528,27.287 
		34.809,32.161 38.505,32.161 	"/>
	<polygon fill="#BBBBBB" points="38.505,32.188 34.797,32.188 34.031,33.557 38.505,38.032 	"/>
	<polygon fill="#BBBBBB" points="38.505,38.045 38.505,38.032 38.495,38.032 	"/>
	<polygon fill="#A3A3A3" points="38.505,38.032 34.031,33.557 32.654,36.043 32.654,37.832 37.864,37.825 37.864,37.857 
		37.864,38.032 38.495,38.032 	"/>
	<polygon fill="#474747" points="37.864,38.073 37.864,38.709 38.505,38.073 	"/>
	<polygon fill="#474747" points="38.505,38.127 37.864,38.769 37.864,43.985 38.505,43.985 	"/>
	<path fill="#979797" d="M3.345,26.404l-2.141,4.158c-0.276,0.557-0.266,1.126-0.008,1.598h2.149V26.404z"/>
	<path fill="#848484" d="M1.204,32.189c0.231,0.41,0.65,0.731,1.206,0.888c0.308,0.082,0.629,0.108,0.935,0.082v-0.97H1.204z"/>
	<polygon fill="#979797" points="50.299,49.867 50.325,49.867 50.325,49.838 50.299,49.86 	"/>
	<polygon fill="#D8D8D8" points="50.288,49.812 50.325,49.78 50.325,43.953 50.288,43.953 	"/>
	<polygon fill="#BBBBBB" points="50.288,43.924 50.325,43.924 50.325,38.105 50.288,38.073 	"/>
	<polygon fill="#BBBBBB" points="50.288,38.062 50.288,38.073 50.306,38.073 	"/>
	<polygon fill="#7B7B7B" points="50.288,38.073 50.325,38.105 50.325,38.073 50.306,38.073 	"/>
	<path fill="#969696" d="M57.217,33.21c0.337,0.039,0.679,0.019,1.005-0.069c0.61-0.168,1.135-0.527,1.434-0.98h-3.494L57.217,33.21
		z"/>
	<polygon fill="#747474" points="56.496,37.787 56.147,37.176 56.147,37.787 	"/>
	<polygon fill="#3E3E3E" points="56.158,32.148 56.147,32.145 56.147,32.161 	"/>
	<path fill="#474747" d="M56.147,32.161v0.723c0.335,0.172,0.695,0.287,1.07,0.327l-1.055-1.05H56.147z"/>
	<polygon fill="#747474" points="50.325,38.035 50.325,38.002 50.288,38.035 	"/>
	<path fill="#474747" d="M55.726,32.607c0.125,0.108,0.263,0.195,0.421,0.275v-0.708L55.726,32.607z"/>
	<polygon fill="#747474" points="56.147,37.787 56.147,37.176 54.369,33.96 50.529,37.801 	"/>
	<path fill="#474747" d="M56.142,32.122h-0.908c0.136,0.171,0.281,0.331,0.457,0.464l0.457-0.455L56.142,32.122z"/>
	<polygon fill="#D9D9D9" points="50.288,37.98 50.325,37.945 50.325,37.857 50.325,37.801 50.477,37.801 54.343,33.923 
		53.356,32.122 50.288,32.122 	"/>
	<polygon fill="#747474" points="50.325,49.89 50.325,49.867 50.306,49.867 	"/>
	<path fill="#D9D9D9" d="M50.299,49.867V49.86h-0.011v2.968c0.021-0.097,0.037-0.209,0.037-0.308V49.89l-0.019-0.022H50.299z"/>
	<polygon fill="#D8D8D8" points="50.271,43.985 44.877,43.985 44.877,44.433 50.271,49.834 	"/>
	<polygon fill="#D8D8D8" points="50.268,49.838 50.271,49.838 50.271,49.834 50.261,49.834 	"/>
	<polygon fill="#3E3E3E" points="50.271,49.834 44.877,44.433 44.877,49.834 50.261,49.834 	"/>
	<polygon fill="#969696" points="50.271,38.094 44.877,43.496 44.877,43.957 50.271,43.957 	"/>
	<polygon fill="#D9D9D9" points="44.877,38.041 44.877,43.439 50.271,38.041 	"/>
	<polygon fill="#848484" points="38.56,49.867 43.319,49.867 43.319,45.101 38.56,49.86 	"/>
	<polygon fill="#787878" points="38.556,49.812 43.319,45.051 43.319,43.953 38.556,43.953 	"/>
	<polygon fill="#747474" points="43.319,42.826 43.319,38.073 38.562,38.073 	"/>
	<polygon fill="#969696" points="38.556,38.062 38.556,43.924 43.319,43.924 43.319,42.826 38.562,38.073 	"/>
	<polygon fill="#848484" points="50.271,38.01 50.271,38.002 50.261,38.002 	"/>
	<polygon fill="#848484" points="50.271,38.002 50.271,32.161 44.426,32.161 	"/>
	<polygon fill="#D9D9D9" points="50.271,38.002 44.426,32.161 44.414,32.161 44.414,32.174 44.414,37.857 44.877,37.857 
		44.877,38.002 50.261,38.002 	"/>
	<polygon fill="#D9D9D9" points="44.423,32.148 44.414,32.145 44.414,32.161 	"/>
	<polygon fill="#848484" points="38.556,38.035 43.319,38.035 43.319,37.857 44.414,37.857 44.414,32.174 	"/>
	<polygon fill="#D9D9D9" points="38.556,32.122 38.556,37.98 44.411,32.129 44.406,32.122 	"/>
	<path fill="#5E5E5E" d="M50.271,49.89l-4.336,4.335c0.46,0.279,1.042,0.449,1.666,0.449c1.319,0,2.426-0.75,2.67-1.741V49.89z"/>
	<path fill="#474747" d="M50.271,49.838h-0.003h-5.391v2.683c0,0.679,0.4,1.29,1.029,1.685L50.271,49.838L50.271,49.838z"/>
	<path fill="#3E3E3E" d="M42.638,53.938c0.422-0.379,0.681-0.871,0.681-1.417v-2.653h-4.756L42.638,53.938z"/>
	<path fill="#787878" d="M38.56,49.867V49.86h-0.004v4.084c0.495,0.45,1.219,0.729,2.035,0.729c0.819,0,1.547-0.289,2.047-0.736
		l-4.076-4.07H38.56z"/>
	<path fill="#969696" d="M56.147,32.161L56.147,32.161L56.147,32.161h0.015h3.494c0.306-0.459,0.401-1.003,0.116-1.533l-0.725-1.358
		l-2.888,2.88L56.147,32.161z"/>
	<polygon fill="#D8D8D8" points="56.147,32.103 59.026,29.231 57.477,26.372 56.147,26.372 	"/>
	<polygon fill="#979797" points="56.147,32.122 56.142,32.122 56.147,32.129 56.147,32.133 56.147,32.103 56.147,26.372 
		56.14,26.372 56.14,26.334 52.354,26.334 54.271,30.244 	"/>
	<polygon fill="#5E5E5E" points="50.288,32.122 50.288,32.122 53.356,32.122 50.343,26.71 50.343,26.334 50.288,26.334 	"/>
	<path fill="#474747" d="M56.147,32.122l-1.876-1.878l0.779,1.581c0.058,0.106,0.118,0.205,0.183,0.297h0.908H56.147z"/>
	<polygon fill="#3E3E3E" points="50.24,26.281 50.195,26.243 50.148,26.243 50.213,26.308 	"/>
	<polygon fill="#3E3E3E" points="44.414,32.103 50.148,26.372 44.414,26.372 	"/>
	<polygon fill="#5E5E5E" points="50.24,26.334 50.271,26.372 50.271,26.316 50.261,26.308 	"/>
	<polygon fill="#5E5E5E" points="44.426,32.161 50.271,32.161 50.271,32.15 50.271,26.372 50.195,26.372 44.423,32.148 
		44.414,32.161 	"/>
	<polygon fill="#787878" points="44.414,26.334 38.631,26.334 44.411,32.122 44.406,32.122 44.411,32.129 44.414,32.133 
		44.414,32.103 44.414,26.372 	"/>
	<polygon fill="#AFAFAF" points="44.411,32.122 38.631,26.334 38.562,26.334 38.556,26.353 38.556,26.334 38.556,26.334 
		38.556,32.122 38.556,32.122 44.406,32.122 	"/>
	<polygon fill="#D8D8D8" points="52.354,26.334 56.14,26.334 56.14,23.897 54.941,21.685 51.671,24.957 	"/>
	<polygon fill="#D8D8D8" points="50.288,26.334 50.288,26.334 50.343,26.334 50.343,26.286 	"/>
	<polygon fill="#3E3E3E" points="50.271,26.353 50.288,26.334 50.343,26.286 50.345,22.256 51.671,24.957 54.941,21.685 
		54.298,20.487 50.271,20.487 	"/>
	<path fill="#3E3E3E" d="M54.279,20.46l-1.676-3.099c-0.424-0.824-1.283-1.394-2.26-1.434l-0.072-0.003v4.535L54.279,20.46
		L54.279,20.46z"/>
	<polygon fill="#969696" points="56.14,26.334 56.14,26.372 56.147,26.372 57.477,26.372 56.14,23.897 	"/>
	<polygon fill="#5E5E5E" points="44.414,20.479 44.406,20.487 44.414,20.487 	"/>
	<polygon fill="#5E5E5E" points="38.562,26.334 38.631,26.334 44.414,26.334 44.414,26.272 44.414,20.509 44.414,20.487 	"/>
	<polygon fill="#979797" points="38.556,26.334 38.556,26.334 38.556,26.353 38.562,26.334 44.414,20.487 44.406,20.487 
		38.556,20.487 38.556,26.265 	"/>
	<polygon fill="#D8D8D8" points="44.414,20.46 39.876,15.925 38.556,15.925 38.556,20.46 	"/>
	<polygon fill="#5F5F5F" points="44.414,15.925 40.817,15.925 39.929,15.925 44.414,20.405 	"/>
	<polygon fill="#474747" points="50.24,26.334 50.213,26.308 50.148,26.243 44.414,20.509 44.414,26.272 44.414,26.334 
		44.414,26.372 50.148,26.372 50.195,26.372 50.271,26.372 	"/>
	<polygon fill="#979797" points="50.261,26.308 50.271,26.316 50.271,26.298 50.271,20.456 44.414,20.456 50.195,26.243 
		50.24,26.281 	"/>
	<polygon fill="#D9D9D9" points="44.414,20.44 44.426,20.43 44.414,20.43 	"/>
	<polygon fill="#D9D9D9" points="44.414,20.43 48.916,15.925 44.414,15.925 44.414,20.405 	"/>
	<polygon fill="#848484" points="44.426,20.43 50.271,20.43 50.271,15.925 50.247,15.925 48.916,15.925 44.414,20.43 	"/>
	<path fill="none" d="M15.079,2.745h5.401c-0.01,0-0.01-0.001-0.01-0.001L15.079,2.745L15.079,2.745z"/>
	<path fill="none" d="M15.066,8.626h-4.771c0,0.014,0,0.023,0,0.035h4.771V8.626z"/>
	<rect x="15.064" y="2.757" fill="none" width="0.027" height="0.005"/>
	<polygon fill="none" points="15.089,2.773 12.46,2.773 12.452,2.779 15.079,2.779 	"/>
	<path fill="none" d="M10.815,10.292l2.972,2.978c0.041,0.018,0.068,0.033,0.101,0.05l-3.126-3.132
		C10.773,10.225,10.79,10.256,10.815,10.292z"/>
	<path fill="none" d="M20.923,8.641V8.626l0,0l0,0V8.609l-5.834-5.838v0.003v0.053l5.834,5.834h-5.834v0.032h5.832l0.003-0.017
		v0.017v3.349v-0.001V8.71l1.349,1.344c0.002-0.017,0.012-0.026,0.014-0.039l-1.363-1.354h1.75c0-0.011,0-0.021,0.003-0.035h-1.728
		L20.923,8.641z"/>
	<path fill="none" d="M15.066,2.744V2.7l-0.922-0.926c-0.016,0.003-0.027,0.003-0.048,0.012l0.971,0.969L15.066,2.744L15.066,2.744z
		"/>
	<path fill="#A3A3A3" d="M12.452,2.779C11.079,3.931,10.2,5.667,10.2,7.596c0,0.024,0,0.042,0,0.062l4.878-4.879H12.452z"/>
	<path fill="#747474" d="M15.066,2.805l0.022,0.022V2.773l0,0l-0.01,0.006L10.2,7.658c0,0.33,0.036,0.656,0.095,0.968h4.771V2.805z"
		/>
	<path fill="#5E5E5E" d="M15.089,8.693V8.662h-0.022V8.661h-4.772c0.09,0.53,0.251,1.045,0.466,1.527l3.126,3.131
		c0.384,0.167,0.765,0.304,1.178,0.399V8.693H15.089z"/>
	<path fill="#979797" d="M13.787,13.269l-2.972-2.977C11.432,11.599,12.487,12.653,13.787,13.269z"/>
	<path fill="#BBBBBB" d="M15.089,2.773V2.771l-0.022-0.016l0,0l0,0l-0.971-0.969C13.501,2.032,12.95,2.37,12.46,2.773H15.089
		L15.089,2.773z"/>
	<path fill="#D9D9D9" d="M15.066,1.484c-0.32,0.069-0.63,0.164-0.923,0.29l0.923,0.925V1.484z"/>
	<path fill="#474747" d="M22.676,8.626c0.052-0.334,0.087-0.677,0.087-1.031c0-0.251-0.018-0.501-0.052-0.745l-1.763,1.775
		L22.676,8.626L22.676,8.626z"/>
	<path fill="#666666" d="M20.923,3.154v5.455v0.017l0,0v0.014l0.025-0.014l1.763-1.775C22.553,5.417,21.895,4.125,20.923,3.154z"/>
	<path fill="#AFAFAF" d="M22.286,10.016c0.182-0.43,0.307-0.886,0.387-1.354h-1.75L22.286,10.016z"/>
	<path fill="#3B3B3B" d="M20.923,12.042c0.568-0.568,1.024-1.243,1.349-1.987L20.923,8.71V12.042z"/>
	<path fill="#D8D8D8" d="M15.066,2.75l0.022,0.02v0.001l5.834,5.838V3.154c-0.143-0.139-0.289-0.28-0.444-0.41h-5.401L15.066,2.75z"
		/>
	<polygon fill="#BBBBBB" points="15.066,2.805 15.066,8.626 15.066,8.661 15.066,8.662 15.089,8.662 20.923,8.662 15.089,2.828 	"/>
	<path fill="#474747" d="M15.768,13.839c0.233,0.028,0.475,0.043,0.708,0.043c1.74,0,3.314-0.706,4.447-1.84V8.693L15.768,13.839z"
		/>
	<polygon fill="#474747" points="20.923,8.676 20.92,8.693 20.923,8.693 	"/>
	<path fill="#5E5E5E" d="M20.92,8.693h-5.832h-0.022v5.024c0.232,0.055,0.465,0.098,0.702,0.122l5.155-5.146H20.92z"/>
	<path fill="#5E5E5E" d="M15.066,2.744l1.426-1.429c0,0-0.005,0-0.015,0c-0.483,0-0.955,0.059-1.41,0.17v1.215L15.066,2.744
		L15.066,2.744z"/>
	<polygon fill="#5E5E5E" points="15.079,2.745 15.079,2.744 15.066,2.744 15.066,2.755 15.066,2.755 15.066,2.755 15.066,2.75 	"/>
	<path fill="#AFAFAF" d="M15.066,2.744h0.012h5.391c-1.085-0.887-2.464-1.427-3.977-1.429L15.066,2.744z"/>
	<polygon fill="none" points="45.105,2.7 40.421,2.7 40.407,2.702 45.105,2.702 	"/>
	<path fill="none" d="M45.105,2.732h3.211c0,0,0-0.002-0.005-0.002h-3.206V2.732z"/>
	<path fill="none" d="M45.105,8.596V8.583V8.561l-5.299-5.301c-0.01,0.011-0.014,0.024-0.031,0.028l5.33,5.329h-5.856V3.931
		c-0.015,0.024-0.041,0.04-0.048,0.064v4.631h-1.052c0,0.014,0,0.023,0.005,0.035h1.047v2.541c0.007,0.02,0.033,0.042,0.048,0.063
		V8.661h5.845l0.012-0.014v0.03l3.514,3.518c0.015-0.013,0.015-0.018,0.032-0.025l-3.546-3.544h5.426
		c0-0.01,0.006-0.029,0.006-0.042h-5.416L45.105,8.596z"/>
	<path fill="#979797" d="M39.201,3.996c-0.719,1.021-1.142,2.262-1.142,3.6c0,0.354,0.039,0.696,0.089,1.031H39.2L39.201,3.996
		L39.201,3.996z"/>
	<path fill="#D8D8D8" d="M38.154,8.661c0.16,0.932,0.528,1.795,1.047,2.541V8.661H38.154z"/>
	<path fill="#D9D9D9" d="M45.105,1.37c-0.255-0.032-0.498-0.055-0.755-0.055c-1.491,0-2.857,0.517-3.928,1.386h4.684L45.105,1.37
		L45.105,1.37z"/>
	<path fill="#747474" d="M45.105,2.702v0.03h3.206c-0.89-0.734-2-1.221-3.206-1.362V2.702L45.105,2.702z"/>
	<path fill="#A3A3A3" d="M45.105,8.615l-5.33-5.329c-0.188,0.204-0.363,0.422-0.526,0.644v4.685H45.105z"/>
	<path fill="#BBBBBB" d="M45.105,2.732L45.105,2.732V2.702h-4.698c-0.209,0.173-0.415,0.362-0.601,0.558l5.299,5.301V2.732z"/>
	<polygon fill="#969696" points="45.122,8.583 45.105,8.583 45.105,8.596 	"/>
	<path fill="#969696" d="M45.105,8.561v0.023l4.47-4.465c-0.35-0.524-0.773-0.989-1.258-1.385h-3.211L45.105,8.561L45.105,8.561z"/>
	<path fill="#787878" d="M45.105,8.583h0.016h5.416c0.059-0.323,0.089-0.653,0.089-0.988c0-1.287-0.387-2.481-1.052-3.477
		L45.105,8.583z"/>
	<path fill="#D9D9D9" d="M39.249,8.661v2.604c0.445,0.631,1.008,1.165,1.654,1.587l4.19-4.192L39.249,8.661L39.249,8.661z"/>
	<path fill="#747474" d="M45.105,8.646l-0.012,0.014l-4.19,4.192c0.984,0.648,2.167,1.03,3.446,1.03c0.257,0,0.5-0.017,0.756-0.051
		V8.676V8.646z"/>
	<path fill="#848484" d="M45.105,13.832c1.345-0.161,2.562-0.756,3.514-1.637l-3.514-3.518V13.832z"/>
	<path fill="#969696" d="M48.651,12.169c0.98-0.924,1.657-2.154,1.88-3.544h-5.426L48.651,12.169z"/>
	<path fill="#3E3E3E" d="M53.179,57.933h-5.422l-0.003,2.278h5.425v6.412c0,0.51-0.051,0.939-0.146,1.295
		c-0.091,0.354-0.229,0.646-0.407,0.867c-0.188,0.223-0.419,0.389-0.687,0.489c-0.268,0.099-0.584,0.149-0.938,0.149
		c-0.258,0-0.474-0.022-0.643-0.062c-0.169-0.045-0.306-0.066-0.411-0.066c-0.174,0-0.31,0.045-0.402,0.129
		c-0.078,0.08-0.127,0.19-0.151,0.326l-0.129,1.484c0.361,0.08,0.695,0.146,1.007,0.188c0.331,0.043,0.657,0.062,0.989,0.062
		c0.733,0,1.372-0.115,1.921-0.343c0.552-0.229,1.008-0.558,1.377-0.986c0.369-0.425,0.647-0.94,0.839-1.548
		c0.175-0.605,0.274-1.286,0.274-2.037v-8.643h-2.493V57.933L53.179,57.933z"/>
	<path fill="#3E3E3E" d="M64.046,68.699c-0.3,0.311-0.632,0.555-0.977,0.734c-0.35,0.172-0.723,0.26-1.107,0.26
		c-0.542,0-0.953-0.158-1.213-0.479c-0.274-0.316-0.407-0.764-0.407-1.348V61.82h-2.289v6.047c0,0.535,0.069,1.018,0.201,1.457
		c0.136,0.45,0.345,0.83,0.619,1.15c0.276,0.322,0.606,0.566,1.007,0.746c0.406,0.174,0.857,0.265,1.377,0.265
		c0.317,0,0.615-0.03,0.884-0.103c0.283-0.067,0.528-0.152,0.77-0.268c0.237-0.107,0.458-0.252,0.669-0.416
		c0.214-0.16,0.425-0.345,0.625-0.544l0.156,0.763c0.088,0.277,0.282,0.416,0.582,0.416h1.396v-9.515h-2.293V68.699L64.046,68.699z"
		/>
	<path fill="#3E3E3E" d="M73.236,61.778c-0.362-0.085-0.746-0.126-1.154-0.126c-0.541,0-1.044,0.076-1.505,0.217
		c-0.464,0.144-0.867,0.344-1.197,0.618c-0.339,0.263-0.608,0.595-0.792,0.976c-0.185,0.371-0.278,0.802-0.278,1.27
		c0,0.584,0.136,1.087,0.407,1.521c0.276,0.437,0.664,0.783,1.143,1.043c-0.21,0.104-0.393,0.224-0.542,0.354
		c-0.164,0.135-0.291,0.271-0.393,0.422c-0.103,0.15-0.177,0.301-0.222,0.453c-0.058,0.152-0.078,0.3-0.078,0.438
		c0,0.35,0.075,0.627,0.222,0.848c0.132,0.218,0.33,0.386,0.552,0.521c-0.475,0.176-0.855,0.412-1.131,0.722
		c-0.269,0.301-0.405,0.675-0.405,1.12c0,0.326,0.088,0.644,0.267,0.945c0.171,0.307,0.431,0.57,0.783,0.801
		c0.351,0.231,0.785,0.42,1.311,0.559c0.537,0.137,1.16,0.207,1.896,0.207c0.722,0,1.365-0.092,1.937-0.281
		c0.571-0.188,1.059-0.439,1.447-0.751c0.388-0.312,0.693-0.662,0.898-1.06c0.209-0.396,0.308-0.807,0.308-1.234
		c0-0.449-0.091-0.816-0.261-1.105c-0.179-0.287-0.41-0.513-0.697-0.686c-0.278-0.166-0.611-0.287-0.971-0.365
		c-0.369-0.08-0.748-0.133-1.125-0.166c-0.39-0.025-0.759-0.045-1.122-0.045c-0.364,0-0.695-0.017-0.979-0.053
		c-0.285-0.044-0.527-0.104-0.699-0.193c-0.177-0.09-0.268-0.234-0.268-0.429c0-0.222,0.145-0.426,0.453-0.606
		c0.341,0.071,0.683,0.104,1.044,0.104c0.531,0,1.023-0.074,1.482-0.22c0.451-0.145,0.845-0.352,1.176-0.615
		c0.325-0.266,0.589-0.589,0.779-0.973c0.183-0.373,0.282-0.803,0.282-1.274c0-0.192-0.013-0.386-0.052-0.563
		c-0.024-0.18-0.077-0.348-0.142-0.512l0.85-0.154c0.187-0.033,0.308-0.084,0.386-0.168c0.065-0.08,0.112-0.189,0.112-0.336v-0.854
		h-2.74C73.92,61.989,73.6,61.866,73.236,61.778z M70.711,70.7c0.285,0.064,0.58,0.103,0.884,0.103c0.308,0,0.599,0,0.889,0
		c0.289,0,0.562,0.012,0.822,0.051c0.257,0.027,0.47,0.076,0.667,0.143c0.188,0.066,0.349,0.156,0.462,0.279
		c0.108,0.119,0.158,0.275,0.158,0.466c0,0.188-0.048,0.361-0.14,0.521c-0.091,0.166-0.237,0.301-0.44,0.418
		c-0.2,0.114-0.451,0.209-0.768,0.274c-0.3,0.065-0.671,0.101-1.096,0.101c-0.431,0-0.777-0.028-1.066-0.089
		c-0.302-0.06-0.531-0.146-0.718-0.25c-0.171-0.104-0.313-0.226-0.397-0.37c-0.086-0.147-0.122-0.304-0.122-0.476
		c0-0.244,0.081-0.476,0.233-0.668C70.242,71.008,70.451,70.842,70.711,70.7z M73.663,65.418c-0.063,0.194-0.181,0.361-0.308,0.494
		c-0.145,0.135-0.317,0.242-0.527,0.316c-0.214,0.079-0.462,0.122-0.746,0.122c-0.271,0-0.53-0.043-0.735-0.122
		c-0.212-0.074-0.386-0.184-0.529-0.326c-0.142-0.136-0.244-0.298-0.319-0.492c-0.071-0.191-0.106-0.396-0.106-0.617
		c0-0.473,0.134-0.844,0.425-1.119c0.276-0.275,0.703-0.412,1.264-0.412c0.563,0,0.986,0.137,1.273,0.412
		c0.271,0.275,0.412,0.646,0.412,1.119C73.767,65.019,73.739,65.223,73.663,65.418z"/>
	<path fill="#3E3E3E" d="M85.281,62.803c-0.373-0.369-0.806-0.647-1.307-0.842c-0.502-0.193-1.048-0.287-1.657-0.287
		c-0.709,0-1.349,0.123-1.913,0.371c-0.566,0.25-1.038,0.582-1.443,1.004c-0.384,0.425-0.682,0.92-0.902,1.496
		c-0.214,0.57-0.315,1.181-0.315,1.832c0,0.832,0.129,1.566,0.362,2.203c0.246,0.627,0.576,1.164,0.997,1.592
		c0.418,0.429,0.914,0.757,1.479,0.978c0.57,0.218,1.187,0.328,1.857,0.328c0.33,0,0.673-0.026,1.029-0.075
		c0.349-0.05,0.702-0.132,1.049-0.253c0.338-0.125,0.67-0.284,0.986-0.483c0.312-0.203,0.595-0.455,0.853-0.744l-0.67-0.836
		c-0.048-0.066-0.105-0.123-0.173-0.16c-0.068-0.037-0.147-0.055-0.242-0.055c-0.144,0-0.287,0.043-0.44,0.127
		c-0.152,0.092-0.326,0.184-0.521,0.285c-0.217,0.111-0.438,0.205-0.716,0.292c-0.266,0.089-0.582,0.13-0.963,0.13
		c-0.751,0-1.355-0.225-1.812-0.684c-0.463-0.458-0.726-1.178-0.785-2.152h5.88c0.101,0,0.185-0.014,0.256-0.046
		c0.065-0.024,0.125-0.067,0.16-0.136c0.045-0.064,0.073-0.16,0.088-0.271c0.019-0.107,0.021-0.256,0.021-0.428
		c0-0.689-0.106-1.301-0.302-1.831C85.931,63.623,85.648,63.17,85.281,62.803z M80.082,65.483c0.099-0.69,0.343-1.226,0.727-1.604
		c0.365-0.377,0.897-0.562,1.55-0.562c0.355,0,0.64,0.057,0.898,0.166c0.252,0.116,0.47,0.271,0.626,0.477
		c0.17,0.193,0.297,0.424,0.381,0.692c0.072,0.259,0.119,0.535,0.119,0.832H80.082z"/>
	<path fill="#3E3E3E" d="M95.775,62.683c-0.267-0.322-0.609-0.57-1.006-0.747c-0.401-0.176-0.867-0.262-1.388-0.262
		c-0.316,0-0.613,0.031-0.888,0.092c-0.27,0.062-0.52,0.154-0.764,0.27c-0.235,0.12-0.468,0.26-0.673,0.418
		c-0.215,0.163-0.424,0.34-0.617,0.539l-0.149-0.755c-0.092-0.274-0.287-0.416-0.587-0.416h-1.408v9.515h2.295v-6.883
		c0.31-0.301,0.64-0.549,0.98-0.727c0.349-0.186,0.718-0.273,1.121-0.273c0.535,0,0.934,0.158,1.2,0.482
		c0.278,0.312,0.41,0.765,0.41,1.35v6.051h2.288v-6.051c0-0.533-0.065-1.021-0.203-1.465C96.249,63.377,96.041,62.996,95.775,62.683
		z"/>
	<path fill="#3E3E3E" d="M104.65,62.582c-0.293-0.283-0.632-0.511-1.007-0.682c-0.371-0.168-0.834-0.252-1.361-0.252
		c-0.636,0-1.184,0.119-1.692,0.376c-0.5,0.246-0.927,0.595-1.29,1.041c-0.351,0.444-0.631,0.968-0.826,1.573
		c-0.19,0.607-0.291,1.261-0.291,1.971c0,0.781,0.086,1.467,0.259,2.077c0.176,0.604,0.416,1.114,0.726,1.522
		c0.306,0.416,0.677,0.724,1.117,0.941c0.433,0.216,0.913,0.326,1.43,0.326c0.332,0,0.645-0.039,0.932-0.105
		c0.282-0.076,0.547-0.175,0.802-0.307c0.256-0.127,0.485-0.279,0.703-0.461c0.218-0.18,0.423-0.378,0.625-0.602l0.185,0.916
		c0.089,0.277,0.287,0.416,0.579,0.416h1.406V57.556h-2.295v5.026H104.65z M104.65,68.521c-0.293,0.364-0.604,0.644-0.939,0.843
		c-0.342,0.197-0.744,0.299-1.216,0.299c-0.304,0-0.568-0.057-0.81-0.166c-0.242-0.106-0.441-0.287-0.611-0.531
		c-0.17-0.238-0.3-0.559-0.386-0.945c-0.095-0.38-0.136-0.854-0.136-1.409c0-0.554,0.052-1.03,0.156-1.437
		c0.103-0.403,0.257-0.737,0.449-0.998c0.19-0.27,0.44-0.463,0.72-0.594c0.277-0.129,0.593-0.189,0.939-0.189
		c0.353,0,0.681,0.062,0.986,0.189c0.306,0.131,0.589,0.354,0.847,0.668L104.65,68.521L104.65,68.521z"/>
	<path fill="#3E3E3E" d="M111.898,57.937c-0.439,0.157-0.812,0.39-1.121,0.692c-0.301,0.305-0.534,0.676-0.704,1.107
		c-0.164,0.43-0.234,0.919-0.234,1.46v0.706h-1.435v0.938c0,0.166,0.062,0.297,0.164,0.394c0.105,0.086,0.248,0.153,0.435,0.185
		l0.836,0.129v7.787h2.285v-7.797h2.394v-1.635h-2.479v-0.632c0-0.349,0.049-0.646,0.122-0.882c0.072-0.236,0.195-0.432,0.337-0.574
		c0.153-0.148,0.332-0.252,0.545-0.307c0.214-0.062,0.454-0.088,0.729-0.088c0.194,0,0.377-0.021,0.53-0.063
		c0.164-0.04,0.244-0.155,0.259-0.338l0.043-1.149c-0.369-0.121-0.781-0.173-1.227-0.173
		C112.829,57.697,112.335,57.774,111.898,57.937z"/>
	<path fill="#3E3E3E" d="M129.814,62.157c-0.441,0.339-0.842,0.8-1.188,1.392l-0.135-1.152c-0.039-0.205-0.099-0.354-0.188-0.443
		c-0.103-0.086-0.261-0.131-0.492-0.131h-1.336v9.514h2.279v-5.924c0.241-0.508,0.525-0.894,0.861-1.152
		c0.342-0.266,0.754-0.394,1.23-0.394c0.26,0,0.48,0.022,0.646,0.066c0.151,0.038,0.284,0.059,0.368,0.059
		c0.106,0,0.193-0.021,0.252-0.067c0.062-0.045,0.104-0.127,0.125-0.239l0.297-1.714c-0.312-0.215-0.701-0.32-1.163-0.32
		C130.8,61.648,130.275,61.816,129.814,62.157z"/>
	<path fill="#3E3E3E" d="M139.848,62.582c-0.293-0.283-0.633-0.511-1.004-0.682c-0.39-0.168-0.832-0.252-1.369-0.252
		c-0.625,0-1.191,0.119-1.687,0.376c-0.499,0.246-0.938,0.595-1.284,1.041c-0.361,0.444-0.638,0.968-0.824,1.573
		c-0.197,0.607-0.298,1.261-0.298,1.971c0,0.781,0.089,1.467,0.255,2.077c0.178,0.604,0.418,1.114,0.727,1.522
		c0.308,0.416,0.686,0.724,1.121,0.941c0.425,0.216,0.904,0.326,1.428,0.326c0.328,0,0.646-0.039,0.936-0.105
		c0.281-0.076,0.551-0.175,0.795-0.307c0.256-0.127,0.488-0.279,0.703-0.461c0.221-0.18,0.424-0.378,0.631-0.602l0.176,0.916
		c0.096,0.277,0.295,0.416,0.582,0.416h1.41V57.556h-2.297V62.582L139.848,62.582z M139.848,68.521
		c-0.293,0.364-0.617,0.644-0.943,0.843c-0.338,0.197-0.738,0.299-1.213,0.299c-0.299,0-0.57-0.057-0.807-0.166
		c-0.24-0.106-0.451-0.287-0.617-0.531c-0.162-0.238-0.297-0.559-0.384-0.945c-0.088-0.38-0.14-0.854-0.14-1.409
		c0-0.554,0.052-1.03,0.164-1.437c0.099-0.403,0.253-0.737,0.451-0.998c0.192-0.27,0.425-0.463,0.709-0.594
		c0.277-0.129,0.6-0.189,0.943-0.189c0.35,0,0.684,0.062,0.982,0.189c0.306,0.131,0.591,0.354,0.852,0.668v4.271H139.848z"/>
	<path fill="#3E3E3E" d="M151.503,62.803c-0.354-0.369-0.802-0.647-1.301-0.842c-0.498-0.193-1.056-0.287-1.647-0.287
		c-0.723,0-1.354,0.123-1.918,0.371c-0.568,0.25-1.044,0.582-1.436,1.004c-0.406,0.425-0.702,0.92-0.913,1.496
		c-0.211,0.57-0.317,1.181-0.317,1.832c0,0.832,0.129,1.566,0.362,2.203c0.252,0.627,0.569,1.164,0.991,1.592
		c0.428,0.429,0.918,0.757,1.49,0.978c0.561,0.218,1.186,0.328,1.846,0.328c0.332,0,0.677-0.026,1.031-0.075
		c0.358-0.05,0.701-0.132,1.047-0.253c0.351-0.125,0.674-0.284,0.988-0.483c0.316-0.203,0.597-0.455,0.855-0.744l-0.668-0.836
		c-0.047-0.066-0.109-0.123-0.18-0.16c-0.062-0.037-0.146-0.055-0.24-0.055c-0.143,0-0.288,0.043-0.434,0.127
		c-0.158,0.092-0.33,0.184-0.535,0.285c-0.209,0.111-0.436,0.205-0.703,0.292c-0.271,0.089-0.592,0.13-0.961,0.13
		c-0.756,0-1.36-0.225-1.813-0.684c-0.47-0.458-0.723-1.178-0.8-2.152h5.884c0.11,0,0.19-0.014,0.261-0.046
		c0.069-0.024,0.121-0.067,0.164-0.136c0.045-0.064,0.073-0.16,0.086-0.271c0.017-0.107,0.017-0.256,0.017-0.428
		c0-0.689-0.084-1.301-0.306-1.831C152.152,63.623,151.872,63.17,151.503,62.803z M146.3,65.483c0.104-0.69,0.351-1.226,0.734-1.604
		c0.368-0.377,0.892-0.562,1.562-0.562c0.344,0,0.637,0.057,0.887,0.166c0.261,0.116,0.463,0.271,0.625,0.477
		c0.177,0.193,0.3,0.424,0.379,0.692c0.08,0.259,0.115,0.535,0.115,0.832H146.3z"/>
	<path fill="#3E3E3E" d="M157.883,62.157c-0.451,0.339-0.857,0.8-1.197,1.392l-0.136-1.152c-0.028-0.205-0.101-0.354-0.181-0.443
		c-0.096-0.086-0.26-0.131-0.494-0.131h-1.346v9.514h2.291v-5.924c0.229-0.508,0.522-0.894,0.859-1.152
		c0.344-0.266,0.75-0.394,1.225-0.394c0.271,0,0.482,0.022,0.642,0.066c0.16,0.038,0.281,0.059,0.382,0.059
		c0.102,0,0.188-0.021,0.246-0.067c0.067-0.045,0.105-0.127,0.116-0.239l0.308-1.714c-0.312-0.215-0.697-0.32-1.181-0.32
		C158.854,61.648,158.348,61.816,157.883,62.157z"/>
	<path fill="#3E3E3E" d="M167.911,68.699c-0.3,0.311-0.638,0.555-0.979,0.734c-0.351,0.172-0.718,0.26-1.121,0.26
		c-0.535,0-0.932-0.158-1.209-0.479c-0.266-0.316-0.398-0.764-0.398-1.348V61.82h-2.293v6.047c0,0.535,0.072,1.018,0.212,1.457
		c0.137,0.45,0.336,0.83,0.614,1.15c0.271,0.322,0.604,0.566,1.008,0.746c0.4,0.174,0.854,0.265,1.369,0.265
		c0.32,0,0.615-0.03,0.893-0.103c0.281-0.067,0.523-0.152,0.77-0.268c0.235-0.107,0.459-0.252,0.673-0.416
		c0.204-0.16,0.419-0.345,0.608-0.544l0.164,0.763c0.09,0.277,0.289,0.416,0.578,0.416h1.398v-9.515h-2.286V68.699z"/>
	<path fill="#3E3E3E" d="M180.123,62.683c-0.27-0.322-0.605-0.57-1.01-0.747c-0.4-0.176-0.86-0.262-1.387-0.262
		c-0.314,0-0.605,0.031-0.892,0.092c-0.261,0.062-0.521,0.154-0.767,0.27c-0.229,0.12-0.459,0.26-0.666,0.418
		c-0.221,0.163-0.42,0.34-0.61,0.539l-0.163-0.755c-0.089-0.274-0.283-0.416-0.579-0.416h-1.401v9.515h2.287v-6.883
		c0.312-0.301,0.64-0.549,0.984-0.727c0.35-0.186,0.719-0.273,1.112-0.273c0.545,0,0.942,0.158,1.214,0.482
		c0.268,0.312,0.4,0.765,0.4,1.35v6.051h2.289v-6.051c0-0.533-0.062-1.021-0.199-1.465
		C180.598,63.377,180.389,62.996,180.123,62.683z"/>
	<path fill="#3E3E3E" d="M187.645,61.778c-0.361-0.085-0.744-0.126-1.158-0.126c-0.545,0-1.047,0.076-1.5,0.217
		c-0.465,0.144-0.861,0.344-1.205,0.618c-0.33,0.263-0.598,0.595-0.781,0.976c-0.193,0.371-0.279,0.802-0.279,1.27
		c0,0.584,0.125,1.087,0.408,1.521c0.27,0.437,0.652,0.783,1.135,1.043c-0.214,0.104-0.395,0.224-0.548,0.354
		c-0.149,0.135-0.282,0.271-0.376,0.422c-0.111,0.15-0.189,0.301-0.229,0.453c-0.057,0.152-0.08,0.3-0.08,0.438
		c0,0.35,0.068,0.627,0.213,0.848c0.142,0.218,0.331,0.386,0.564,0.521c-0.486,0.176-0.861,0.412-1.135,0.722
		c-0.268,0.301-0.404,0.675-0.404,1.12c0,0.326,0.09,0.644,0.26,0.945c0.172,0.307,0.433,0.57,0.787,0.801
		c0.349,0.231,0.785,0.42,1.317,0.559c0.529,0.137,1.163,0.207,1.884,0.207c0.729,0,1.375-0.092,1.945-0.281
		c0.568-0.188,1.044-0.439,1.447-0.751c0.386-0.312,0.689-0.662,0.898-1.06c0.196-0.396,0.305-0.807,0.305-1.234
		c0-0.449-0.09-0.816-0.262-1.105c-0.17-0.287-0.404-0.513-0.697-0.686c-0.285-0.166-0.606-0.287-0.969-0.365
		c-0.373-0.08-0.746-0.133-1.129-0.166c-0.38-0.025-0.754-0.045-1.129-0.045c-0.361,0-0.683-0.017-0.98-0.053
		c-0.281-0.044-0.516-0.104-0.687-0.193c-0.179-0.09-0.267-0.234-0.267-0.429c0-0.222,0.146-0.426,0.445-0.606
		c0.338,0.071,0.691,0.104,1.045,0.104c0.529,0,1.029-0.074,1.48-0.22c0.457-0.145,0.848-0.352,1.174-0.615
		c0.331-0.266,0.594-0.589,0.791-0.973c0.18-0.373,0.284-0.803,0.284-1.274c0-0.192-0.024-0.386-0.062-0.563
		c-0.036-0.18-0.08-0.348-0.139-0.512l0.855-0.154c0.175-0.033,0.3-0.084,0.378-0.168c0.069-0.08,0.108-0.189,0.108-0.336v-0.854
		h-2.742C188.326,61.989,187.998,61.866,187.645,61.778z M185.117,70.7c0.281,0.064,0.576,0.103,0.884,0.103
		c0.306,0,0.604,0,0.894,0c0.285,0,0.558,0.012,0.816,0.051c0.255,0.027,0.49,0.076,0.669,0.143
		c0.192,0.066,0.343,0.156,0.463,0.279c0.105,0.119,0.16,0.275,0.16,0.466c0,0.188-0.051,0.361-0.151,0.521
		c-0.078,0.166-0.234,0.301-0.429,0.418c-0.207,0.114-0.457,0.209-0.767,0.274c-0.307,0.065-0.682,0.101-1.105,0.101
		c-0.419,0-0.773-0.028-1.057-0.089c-0.305-0.06-0.535-0.146-0.723-0.25c-0.174-0.104-0.312-0.226-0.396-0.37
		c-0.076-0.147-0.128-0.304-0.128-0.476c0-0.244,0.087-0.476,0.237-0.668C184.654,71.008,184.854,70.842,185.117,70.7z
		 M188.061,65.418c-0.062,0.194-0.168,0.361-0.309,0.494c-0.133,0.135-0.312,0.242-0.521,0.316
		c-0.217,0.079-0.461,0.122-0.746,0.122c-0.272,0-0.522-0.043-0.739-0.122c-0.206-0.074-0.39-0.184-0.522-0.326
		c-0.141-0.136-0.24-0.298-0.318-0.492c-0.073-0.191-0.1-0.396-0.1-0.617c0-0.473,0.137-0.844,0.418-1.119
		c0.284-0.275,0.7-0.412,1.264-0.412c0.556,0,0.988,0.137,1.267,0.412c0.285,0.275,0.425,0.646,0.425,1.119
		C188.177,65.019,188.143,65.223,188.061,65.418z"/>
	<path fill="#3E3E3E" d="M199.684,62.803c-0.365-0.369-0.8-0.647-1.295-0.842c-0.508-0.193-1.062-0.287-1.664-0.287
		c-0.705,0-1.348,0.123-1.91,0.371c-0.566,0.25-1.041,0.582-1.442,1.004c-0.388,0.425-0.688,0.92-0.906,1.496
		c-0.207,0.57-0.312,1.181-0.312,1.832c0,0.832,0.121,1.566,0.355,2.203c0.252,0.627,0.583,1.164,1.006,1.592
		c0.409,0.429,0.905,0.757,1.484,0.978c0.559,0.218,1.171,0.328,1.841,0.328c0.326,0,0.681-0.026,1.04-0.075
		c0.348-0.05,0.697-0.132,1.038-0.253c0.34-0.125,0.67-0.284,0.981-0.483c0.317-0.203,0.606-0.455,0.859-0.744l-0.669-0.836
		c-0.049-0.066-0.103-0.123-0.168-0.16c-0.08-0.037-0.146-0.055-0.252-0.055c-0.138,0-0.285,0.043-0.442,0.127
		c-0.145,0.092-0.318,0.184-0.521,0.285c-0.208,0.111-0.439,0.205-0.704,0.292c-0.276,0.089-0.593,0.13-0.964,0.13
		c-0.746,0-1.357-0.225-1.82-0.684c-0.451-0.458-0.716-1.178-0.794-2.152h5.88c0.118,0,0.202-0.014,0.274-0.046
		c0.063-0.024,0.123-0.067,0.157-0.136c0.039-0.064,0.076-0.16,0.082-0.271c0.02-0.107,0.024-0.256,0.024-0.428
		c0-0.689-0.104-1.301-0.312-1.831C200.342,63.623,200.049,63.17,199.684,62.803z M194.477,65.483
		c0.113-0.69,0.354-1.226,0.725-1.604c0.384-0.377,0.902-0.562,1.568-0.562c0.336,0,0.643,0.057,0.894,0.166
		c0.248,0.116,0.465,0.271,0.633,0.477c0.16,0.193,0.292,0.424,0.367,0.692c0.087,0.259,0.123,0.535,0.123,0.832H194.477z"/>
	<path fill="#3E3E3E" d="M210.797,63.82c-0.148-0.441-0.354-0.824-0.615-1.138c-0.273-0.322-0.608-0.57-1.005-0.747
		c-0.401-0.176-0.866-0.262-1.393-0.262c-0.319,0-0.611,0.031-0.886,0.092c-0.266,0.062-0.531,0.154-0.764,0.27
		c-0.232,0.12-0.472,0.26-0.679,0.418c-0.207,0.163-0.413,0.34-0.604,0.539l-0.164-0.755c-0.084-0.274-0.283-0.416-0.58-0.416
		h-1.401v9.515h2.291v-6.883c0.31-0.301,0.64-0.549,0.981-0.727c0.35-0.186,0.717-0.273,1.127-0.273
		c0.522,0,0.931,0.158,1.196,0.482c0.271,0.312,0.402,0.765,0.402,1.35v6.051H211v-6.051C211,64.752,210.926,64.264,210.797,63.82z"
		/>
	<path fill="#3E3E3E" d="M119.988,61.715c0.712,0,1.367,0.115,1.947,0.351c0.594,0.233,1.094,0.556,1.502,0.983
		c0.414,0.425,0.733,0.942,0.957,1.562c0.229,0.612,0.338,1.292,0.338,2.056c0,0.765-0.109,1.453-0.338,2.065
		c-0.224,0.612-0.543,1.135-0.957,1.567c-0.408,0.431-0.908,0.763-1.502,0.996c-0.58,0.229-1.235,0.347-1.947,0.347
		c-0.725,0-1.385-0.116-1.965-0.347c-0.594-0.233-1.094-0.565-1.508-0.996c-0.414-0.434-0.738-0.955-0.968-1.567
		s-0.345-1.302-0.345-2.065s0.115-1.442,0.345-2.056c0.229-0.618,0.554-1.137,0.968-1.562c0.414-0.428,0.914-0.75,1.508-0.983
		C118.604,61.832,119.266,61.715,119.988,61.715z M119.525,59.369c0,0.176-0.025,0.34-0.096,0.491
		c-0.07,0.154-0.16,0.289-0.279,0.399c-0.133,0.109-0.273,0.203-0.426,0.27c-0.162,0.064-0.334,0.098-0.507,0.098
		c-0.171,0-0.335-0.031-0.479-0.098c-0.153-0.066-0.289-0.16-0.41-0.27c-0.123-0.11-0.215-0.245-0.278-0.399
		c-0.073-0.151-0.106-0.315-0.106-0.491c0-0.184,0.033-0.354,0.106-0.512c0.063-0.158,0.155-0.302,0.278-0.418
		c0.121-0.117,0.257-0.214,0.41-0.279c0.146-0.072,0.31-0.104,0.479-0.104c0.173,0,0.345,0.031,0.507,0.104
		c0.151,0.065,0.293,0.162,0.426,0.279c0.119,0.116,0.209,0.26,0.279,0.418S119.525,59.186,119.525,59.369z M119.988,69.858
		c0.804,0,1.393-0.271,1.775-0.805c0.381-0.546,0.576-1.329,0.576-2.37c0-1.036-0.195-1.83-0.576-2.375
		c-0.384-0.546-0.973-0.818-1.775-0.818c-0.818,0-1.418,0.272-1.805,0.82c-0.395,0.548-0.586,1.339-0.586,2.373
		c0,1.033,0.191,1.82,0.586,2.359C118.57,69.586,119.17,69.858,119.988,69.858z M123.044,59.369c0,0.176-0.026,0.34-0.106,0.491
		c-0.062,0.154-0.155,0.289-0.278,0.399c-0.114,0.109-0.257,0.203-0.416,0.27c-0.158,0.064-0.326,0.098-0.502,0.098
		c-0.169,0-0.349-0.031-0.495-0.098c-0.161-0.066-0.293-0.16-0.41-0.27c-0.118-0.11-0.211-0.245-0.271-0.399
		c-0.071-0.151-0.104-0.315-0.104-0.491c0-0.184,0.033-0.354,0.104-0.512c0.062-0.158,0.153-0.302,0.271-0.418
		c0.117-0.117,0.249-0.214,0.41-0.279c0.146-0.072,0.326-0.104,0.495-0.104c0.176,0,0.344,0.031,0.502,0.104
		c0.159,0.065,0.302,0.162,0.416,0.279c0.123,0.116,0.218,0.26,0.278,0.418C123.018,59.016,123.044,59.186,123.044,59.369z"/>
</g>
</svg>
