<?xml version="1.0" encoding="utf-8"?>
<!-- Generator: Adobe Illustrator 14.0.0, SVG Export Plug-In  -->
<!DOCTYPE svg PUBLIC "-//W3C//DTD SVG 1.1//EN" "http://www.w3.org/Graphics/SVG/1.1/DTD/svg11.dtd" [
	<!ENTITY ns_flows "http://ns.adobe.com/Flows/1.0/">
]>
<svg version="1.1"
	 xmlns="http://www.w3.org/2000/svg" xmlns:xlink="http://www.w3.org/1999/xlink" xmlns:a="http://ns.adobe.com/AdobeSVGViewerExtensions/3.0/"
	 x="0px" y="0px" width="212px" height="76px" viewBox="-1 -1.315 212 76" enable-background="new -1 -1.315 212 76"
	 xml:space="preserve">
<defs>
</defs>
<path fill="#4F3444" d="M54.799,44.679h0.574c0.242,0,0.44-0.033,0.595-0.093c0.156-0.067,0.279-0.17,0.404-0.313l3.691-4.68
	c0.159-0.201,0.319-0.337,0.492-0.418c0.17-0.076,0.378-0.119,0.645-0.119h2.148l-4.512,5.578c-0.153,0.172-0.282,0.321-0.419,0.437
	c-0.125,0.119-0.269,0.215-0.41,0.287c0.203,0.078,0.384,0.179,0.554,0.312c0.166,0.14,0.322,0.312,0.473,0.525l4.663,6.279H61.49
	c-0.296,0-0.522-0.041-0.669-0.125c-0.144-0.088-0.265-0.207-0.361-0.367l-3.796-4.955c-0.131-0.157-0.263-0.276-0.416-0.351
	c-0.153-0.065-0.376-0.103-0.658-0.103h-0.79v5.9h-2.495V39.052h2.495V44.679z"/>
<path fill="#4F3444" d="M67.819,40.182c0,0.204-0.047,0.388-0.118,0.563c-0.085,0.168-0.192,0.322-0.319,0.447
	c-0.132,0.129-0.291,0.233-0.47,0.31c-0.183,0.08-0.375,0.115-0.582,0.115c-0.198,0-0.38-0.035-0.56-0.115
	c-0.175-0.076-0.328-0.181-0.458-0.31c-0.127-0.125-0.231-0.279-0.308-0.447c-0.075-0.176-0.11-0.359-0.11-0.563
	c0-0.205,0.035-0.392,0.11-0.57c0.077-0.183,0.181-0.335,0.308-0.468c0.13-0.129,0.283-0.229,0.458-0.31
	c0.179-0.078,0.362-0.117,0.56-0.117c0.207,0,0.399,0.039,0.582,0.117c0.179,0.08,0.337,0.181,0.47,0.31
	c0.127,0.133,0.233,0.285,0.319,0.468C67.772,39.79,67.819,39.977,67.819,40.182z M67.473,42.958v9.516h-2.286v-9.516H67.473z"/>
<path fill="#4F3444" d="M70.071,52.474v-9.516h1.395c0.296,0,0.488,0.138,0.58,0.412l0.164,0.759
	c0.186-0.203,0.393-0.379,0.605-0.541c0.211-0.164,0.433-0.302,0.679-0.417c0.229-0.118,0.481-0.209,0.757-0.271
	c0.274-0.058,0.578-0.094,0.895-0.094c0.52,0,0.979,0.09,1.383,0.267c0.408,0.176,0.738,0.42,1.005,0.738
	c0.269,0.323,0.47,0.699,0.607,1.144c0.146,0.439,0.221,0.932,0.221,1.461v6.058h-2.299v-6.058c0-0.583-0.134-1.032-0.401-1.35
	c-0.269-0.322-0.669-0.48-1.216-0.48c-0.388,0-0.755,0.091-1.109,0.271c-0.356,0.182-0.675,0.422-0.981,0.731v6.885H70.071z"/>
<path fill="#4F3444" d="M87.296,52.474c-0.289,0-0.482-0.142-0.574-0.421l-0.188-0.916c-0.199,0.221-0.402,0.42-0.618,0.603
	c-0.223,0.177-0.45,0.332-0.697,0.464c-0.254,0.129-0.532,0.235-0.81,0.299c-0.297,0.076-0.595,0.107-0.933,0.107
	c-0.52,0-1.001-0.107-1.422-0.322c-0.44-0.22-0.816-0.535-1.126-0.939c-0.312-0.416-0.554-0.921-0.716-1.528
	c-0.172-0.604-0.266-1.296-0.266-2.079c0-0.705,0.098-1.361,0.299-1.96c0.187-0.611,0.461-1.135,0.82-1.582
	c0.359-0.446,0.794-0.791,1.284-1.043c0.504-0.249,1.06-0.376,1.689-0.376c0.537,0,0.988,0.089,1.363,0.253
	c0.38,0.174,0.704,0.397,1.012,0.687V38.69h2.29v13.783H87.296z M84.255,50.79c0.478,0,0.881-0.099,1.214-0.294
	c0.345-0.2,0.638-0.479,0.945-0.843v-4.27c-0.255-0.313-0.548-0.537-0.854-0.67c-0.31-0.128-0.63-0.189-0.98-0.189
	c-0.349,0-0.66,0.062-0.943,0.189c-0.28,0.133-0.521,0.328-0.715,0.594c-0.189,0.261-0.343,0.593-0.449,1.005
	c-0.105,0.396-0.156,0.88-0.156,1.428c0,0.556,0.047,1.025,0.131,1.415c0.089,0.39,0.228,0.703,0.392,0.949
	c0.16,0.242,0.367,0.417,0.605,0.529C83.692,50.736,83.953,50.79,84.255,50.79z"/>
<path fill="#4F3444" d="M95.113,42.807c0.599,0,1.158,0.094,1.655,0.289c0.5,0.19,0.937,0.472,1.302,0.841
	c0.361,0.367,0.65,0.82,0.852,1.352c0.209,0.533,0.306,1.142,0.306,1.833c0,0.17-0.002,0.319-0.023,0.431
	c-0.014,0.114-0.043,0.207-0.081,0.269c-0.035,0.065-0.099,0.11-0.164,0.138c-0.062,0.028-0.148,0.043-0.257,0.043h-5.876
	c0.066,0.979,0.329,1.695,0.784,2.149c0.461,0.457,1.064,0.688,1.812,0.688c0.382,0,0.699-0.043,0.97-0.131
	c0.261-0.088,0.507-0.183,0.695-0.287c0.212-0.104,0.38-0.203,0.535-0.283c0.15-0.088,0.296-0.133,0.434-0.133
	c0.102,0,0.182,0.018,0.254,0.057c0.056,0.035,0.121,0.086,0.166,0.156l0.671,0.835c-0.251,0.295-0.542,0.549-0.85,0.748
	c-0.317,0.193-0.646,0.357-0.99,0.478c-0.347,0.125-0.691,0.208-1.048,0.257c-0.357,0.053-0.697,0.074-1.036,0.074
	c-0.658,0-1.267-0.107-1.848-0.331c-0.565-0.217-1.06-0.539-1.479-0.974c-0.427-0.425-0.75-0.958-0.998-1.592
	c-0.234-0.631-0.359-1.365-0.359-2.202c0-0.646,0.104-1.262,0.313-1.836c0.21-0.569,0.518-1.068,0.909-1.486
	c0.39-0.425,0.863-0.765,1.441-1.013C93.762,42.932,94.399,42.807,95.113,42.807z M95.154,44.449c-0.666,0-1.184,0.19-1.557,0.563
	c-0.379,0.38-0.619,0.911-0.729,1.608h4.312c0-0.302-0.048-0.577-0.129-0.841c-0.078-0.267-0.197-0.495-0.369-0.691
	c-0.164-0.203-0.372-0.353-0.632-0.468C95.794,44.508,95.503,44.449,95.154,44.449z"/>
<path fill="#4F3444" d="M101.096,52.474v-9.516h1.349c0.23,0,0.395,0.043,0.486,0.129c0.095,0.084,0.15,0.234,0.183,0.441
	l0.149,1.15c0.328-0.583,0.74-1.048,1.189-1.387c0.453-0.345,0.967-0.513,1.534-0.513c0.48,0,0.863,0.108,1.175,0.324l-0.293,1.712
	c-0.021,0.115-0.067,0.197-0.129,0.238c-0.052,0.049-0.146,0.07-0.248,0.07c-0.084,0-0.226-0.021-0.375-0.064
	c-0.169-0.039-0.374-0.062-0.645-0.062c-0.476,0-0.884,0.126-1.225,0.395c-0.336,0.262-0.621,0.647-0.863,1.15v5.931H101.096z"/>
<path fill="#4F3444" d="M108.38,45.913h4.799v1.907h-4.799V45.913z"/>
<path fill="#42A4DC" d="M120.996,42.958v6.048c0,0.58,0.146,1.025,0.412,1.345c0.269,0.322,0.673,0.477,1.219,0.477
	c0.39,0,0.761-0.085,1.111-0.261c0.34-0.177,0.666-0.419,0.979-0.726v-6.883h2.289v9.516h-1.402c-0.294,0-0.486-0.142-0.576-0.421
	l-0.166-0.759c-0.195,0.197-0.4,0.378-0.609,0.54c-0.214,0.16-0.437,0.308-0.669,0.418c-0.246,0.115-0.506,0.203-0.775,0.271
	c-0.278,0.065-0.565,0.097-0.879,0.097c-0.521,0-0.98-0.088-1.376-0.267c-0.408-0.175-0.738-0.423-1.018-0.742
	c-0.261-0.318-0.476-0.708-0.615-1.15c-0.136-0.438-0.207-0.925-0.207-1.454v-6.048H120.996z"/>
<path fill="#42A4DC" d="M129.458,52.474v-9.516h1.402c0.3,0,0.486,0.138,0.582,0.412l0.156,0.759
	c0.185-0.203,0.398-0.379,0.605-0.541c0.217-0.164,0.438-0.302,0.683-0.417c0.233-0.118,0.485-0.209,0.759-0.271
	c0.271-0.058,0.57-0.094,0.89-0.094c0.521,0,0.982,0.09,1.383,0.267c0.401,0.176,0.738,0.42,1.009,0.738
	c0.267,0.323,0.47,0.699,0.607,1.144c0.146,0.439,0.217,0.932,0.217,1.461v6.058h-2.301v-6.058c0-0.583-0.129-1.032-0.396-1.35
	c-0.266-0.322-0.668-0.48-1.216-0.48c-0.392,0-0.759,0.091-1.107,0.271c-0.349,0.182-0.673,0.422-0.988,0.731v6.885H129.458z"/>
<path fill="#42A4DC" d="M146.696,52.474c-0.293,0-0.496-0.142-0.582-0.421l-0.187-0.916c-0.197,0.221-0.406,0.42-0.628,0.603
	c-0.207,0.177-0.44,0.332-0.695,0.464c-0.25,0.129-0.517,0.235-0.81,0.299c-0.285,0.076-0.591,0.107-0.93,0.107
	c-0.513,0-0.996-0.107-1.419-0.322c-0.442-0.22-0.813-0.535-1.13-0.939c-0.31-0.416-0.548-0.921-0.716-1.528
	c-0.181-0.604-0.262-1.296-0.262-2.079c0-0.705,0.106-1.361,0.293-1.96c0.19-0.611,0.459-1.135,0.816-1.582
	c0.358-0.446,0.793-0.791,1.289-1.043c0.509-0.249,1.061-0.376,1.692-0.376c0.529,0,0.984,0.089,1.359,0.253
	c0.38,0.174,0.722,0.397,1.016,0.687V38.69h2.288v13.783H146.696z M143.645,50.79c0.484,0,0.88-0.099,1.219-0.294
	c0.328-0.2,0.647-0.479,0.941-0.843v-4.27c-0.259-0.313-0.544-0.537-0.847-0.67c-0.311-0.128-0.639-0.189-0.987-0.189
	s-0.662,0.062-0.941,0.189c-0.274,0.133-0.522,0.328-0.709,0.594c-0.195,0.261-0.353,0.593-0.451,1.005
	c-0.106,0.396-0.162,0.88-0.162,1.428c0,0.556,0.045,1.025,0.136,1.415c0.09,0.39,0.221,0.703,0.381,0.949
	c0.173,0.242,0.367,0.417,0.609,0.529C143.077,50.736,143.352,50.79,143.645,50.79z"/>
<polygon fill="none" points="19.915,30.821 19.901,30.813 14.079,30.813 14.079,30.836 19.915,30.836 14.079,36.673 14.079,36.718 
	14.079,36.731 19.915,30.896 19.915,30.858 19.92,30.873 22.171,30.873 22.171,30.846 19.915,30.846 22.173,28.584 22.173,28.528 
	19.915,30.788 "/>
<polygon fill="none" points="25.723,24.928 22.626,21.839 22.672,21.943 25.652,24.928 "/>
<path fill="none" d="M2.354,25.079L2.345,25.09v5.755H0.196c0,0.007,0.005,0.015,0.008,0.029h2.141v0.97c0,0,0,0,0.009,0v-1.009
	h1.989c0-0.006,0.01-0.017,0.018-0.022H2.354V25.079z"/>
<polygon fill="none" points="19.915,36.75 16.704,36.75 16.704,36.791 19.915,36.791 19.915,42.652 19.901,42.64 16.704,42.64 
	16.704,42.683 19.915,42.683 16.704,45.887 16.704,45.943 19.915,42.738 19.915,42.704 19.92,42.714 22.15,42.714 22.15,42.671 
	19.915,42.671 22.15,40.425 22.15,40.37 19.915,42.622 19.915,36.759 22.15,36.759 22.15,36.718 19.915,36.718 "/>
<path fill="none" d="M14.055,48.594v-0.002l-3.858,3.855c0.012,0.008,0.022,0.018,0.031,0.026l3.828-3.827V48.594z"/>
<path fill="none" d="M27.096,30.836h4.401c0.013-0.006,0.019-0.017,0.019-0.022h-4.444C27.073,30.815,27.091,30.83,27.096,30.836z"
	/>
<polygon fill="none" points="8.227,19.164 8.227,19.195 13.967,24.928 14.019,24.928 8.235,19.146 8.227,19.156 8.227,19.143 
	8.227,19.143 8.227,19.143 8.227,14.91 8.227,14.91 8.227,19.124 6.384,17.268 6.363,17.311 8.226,19.171 "/>
<path fill="none" d="M49.271,51.618c0.011-0.035,0.015-0.071,0.017-0.104v-2.968h0.011l0.026-0.022v-0.058l-0.037,0.031v-5.859
	h0.037v-0.028h-0.037v-5.851v-0.011l0.019,0.011h0.019V36.72h-0.037l0.037-0.031v-0.058l-0.037,0.035v-5.859l0,0V25.02l0,0
	l-0.017,0.019v-5.865h4.027l-0.019-0.026h-4.008v-4.535l0,0v4.503h-5.845l-0.012,0.011v-0.011v-0.024l-4.485-4.479h-0.053
	l4.538,4.535h-5.858v-4.535h-0.051v4.532l0,0v5.785v0.056v0.019v5.843h-3.696l-0.012,0.027h3.708v5.845v0.014l-0.01-0.014h-0.631
	v0.041h0.641l-0.641,0.636v0.06l0.641-0.643v5.859h-0.641v0.043h0.641v5.861l-0.003-0.004l-0.638,0.636v0.055l0.641-0.636v3.963
	c0.021,0.014,0.031,0.024,0.051,0.041v-4.084h0.004l4.759-4.76v-0.049l-4.763,4.76v-5.859h4.763v-0.028h-4.763v-5.861l0.006,0.011
	h4.756V36.72h-4.763l5.858-5.859v-0.015V30.83l0.009,0.004l5.772-5.777h-0.047l-5.734,5.731v0.031l-0.003-0.004l-5.855,5.851v-5.859
	l0,0V25.02V24.95l0,0v-5.777h5.85l0.008-0.009v0.009v0.022l5.734,5.732h0.047l-5.781-5.787h5.857v5.843v0.019v0.054v5.779v0.01
	v5.843v0.007l-0.01-0.007h-5.383v0.037h5.394l-5.394,5.399v0.056l5.394-5.401v5.863h-5.394v0.028h5.394v5.849v0.004v0.007v-0.007
	l-4.365,4.366c0.014,0.009,0.026,0.017,0.029,0.021l4.336-4.335V51.618z"/>
<polygon fill="none" points="37.38,25.057 36.588,25.856 36.528,25.972 37.435,25.057 "/>
<polygon fill="none" points="49.24,24.967 49.213,24.993 49.24,25.02 49.261,24.993 "/>
<polygon fill="none" points="37.435,24.928 36.86,24.355 36.86,24.404 37.38,24.928 "/>
<polygon fill="none" points="49.529,36.487 53.369,32.646 53.343,32.609 49.477,36.487 "/>
<rect x="9.696" y="30.846" fill="none" width="4.359" height="0.027"/>
<path fill="none" d="M55.147,30.819v-0.004l-0.457,0.455c0.006,0.008,0.017,0.015,0.036,0.022l0.421-0.433v0.708l0,0v-0.723l0,0l0,0
	V30.83l0.011,0.004l2.888-2.88l-0.021-0.037l-2.878,2.871V30.819z"/>
<rect x="14.061" y="48.572" fill="none" width="0.005" height="0.021"/>
<polygon fill="none" points="25.723,24.984 25.737,25.012 25.776,24.984 25.737,24.958 "/>
<polygon fill="none" points="14.055,36.791 14.055,36.779 9.701,41.133 9.701,41.188 14.055,36.832 "/>
<polygon fill="none" points="25.792,25.02 25.792,25.02 25.792,25.02 25.792,24.95 25.792,19.176 25.792,19.173 25.792,18.553 
	25.783,18.545 25.783,19.143 25.783,19.146 25.783,25.002 25.776,24.984 25.776,25.043 25.783,25.057 25.776,25.057 25.776,28.246 
	25.792,28.287 25.792,25.038 "/>
<polygon fill="none" points="13.948,25.057 9.696,29.312 9.696,29.363 14.006,25.057 "/>
<polygon fill="none" points="14.079,48.568 14.079,48.573 15.149,47.498 15.149,47.443 14.079,48.523 "/>
<polygon fill="none" points="37.445,24.993 37.466,25.02 37.495,24.993 37.466,24.967 "/>
<polygon fill="none" points="14.079,42.671 9.701,42.671 9.701,42.714 14.055,42.714 14.055,42.683 15.149,42.683 15.149,42.64 
	14.079,42.64 "/>
<polygon fill="none" points="25.647,25.057 24.67,26.022 24.696,26.06 25.697,25.057 "/>
<rect x="14.059" y="48.594" fill="none" width="1.091" height="0.006"/>
<polygon fill="none" points="32.25,19.797 35.643,23.19 35.667,23.159 32.267,19.762 "/>
<polygon fill="none" points="49.261,48.52 43.877,48.52 43.877,48.523 49.268,48.523 "/>
<polygon fill="none" points="14.071,36.731 14.059,36.718 9.701,36.718 9.701,36.759 14.079,36.759 14.055,36.779 14.059,36.791 
	15.149,36.791 15.149,36.75 14.055,36.75 "/>
<polygon fill="none" points="19.923,19.156 19.923,19.143 19.923,19.143 19.923,19.143 19.923,19.124 15.414,14.611 15.356,14.611 
	19.92,19.171 19.923,19.164 19.923,19.195 22.183,21.451 22.183,21.395 19.935,19.146 "/>
<polygon fill="none" points="14.043,24.958 14.019,24.984 14.043,25.012 14.055,25.006 14.055,24.963 "/>
<rect x="16.704" y="48.594" fill="none" width="3.211" height="0.006"/>
<polygon fill="#89A181" points="14.066,19.143 14.066,14.611 12.777,14.611 8.241,19.143 "/>
<path fill="#4F3444" d="M8.241,19.143l4.536-4.532h-0.13h-2.413c-0.913-0.024-1.547,0.105-2.007,0.299v4.233H8.241z"/>
<polygon fill="#4F3444" points="8.227,19.143 8.227,19.156 8.235,19.146 "/>
<path fill="#ED4525" d="M8.227,14.91c-0.777,0.321-1.033,0.83-1.184,1.076l-0.659,1.281l1.843,1.856V14.91z"/>
<polygon fill="#CBE5C1" points="8.226,19.171 6.363,17.311 5.399,19.173 8.221,19.173 "/>
<path fill="#462B74" d="M25.783,19.143v-0.598l-1.346-2.498c-0.157-0.304-0.363-0.565-0.618-0.783l-3.871,3.878H25.783z"/>
<path fill="#F3BB24" d="M19.923,19.143h0.025l3.871-3.878c-0.449-0.378-1.023-0.623-1.646-0.651l-0.099-0.003h-2.151v4.513V19.143z"
	/>
<polygon fill="#F3BB24" points="19.923,19.156 19.935,19.146 19.923,19.143 "/>
<polygon fill="#CBE5C1" points="19.923,14.611 15.414,14.611 19.923,19.124 "/>
<polygon fill="#40B150" points="14.089,19.143 14.089,19.146 14.089,19.173 19.92,19.173 19.92,19.171 15.356,14.611 14.066,14.611 
	14.066,19.143 "/>
<polygon fill="#89A181" points="14.066,24.963 14.066,24.939 14.055,24.958 14.059,24.963 "/>
<polygon fill="#89A181" points="14.066,19.173 14.089,19.173 14.089,19.146 14.089,19.143 14.066,19.143 8.241,19.143 8.227,19.143 
	8.227,19.143 8.227,19.143 8.235,19.146 14.019,24.928 14.066,24.928 14.066,19.176 "/>
<polygon fill="#89A181" points="14.055,24.958 14.043,24.958 14.055,24.963 "/>
<polygon fill="#DED2E8" points="8.227,19.195 8.227,23.653 9.679,20.942 9.687,24.928 13.967,24.928 "/>
<polygon fill="#DED2E8" points="13.948,25.057 14.006,25.057 14.043,25.012 14.019,24.984 "/>
<polygon fill="#EB6B9F" points="8.227,19.164 8.226,19.171 8.221,19.173 8.227,19.173 2.433,24.963 7.533,24.963 8.227,23.653 
	8.227,19.195 "/>
<polygon fill="#D4264A" points="2.433,24.963 8.227,19.173 8.221,19.173 5.399,19.173 2.416,24.963 "/>
<polygon fill="#462B74" points="25.776,24.928 25.737,24.958 25.776,24.984 25.776,24.984 25.776,24.984 25.783,25.002 
	25.783,19.146 25.783,19.143 19.948,19.143 19.923,19.143 19.923,19.143 19.923,19.143 19.935,19.146 22.183,21.395 22.183,20.942 
	22.626,21.839 25.723,24.928 "/>
<polygon fill="#6BCAD5" points="22.672,21.943 24.141,24.928 25.652,24.928 "/>
<polygon fill="#6BCAD5" points="25.647,25.057 25.697,25.057 25.737,25.012 25.723,24.984 "/>
<polygon fill="#6BCAD5" points="19.923,24.928 22.175,24.928 22.183,21.451 19.923,19.195 "/>
<polygon fill="#6BCAD5" points="25.783,25.057 25.776,25.043 25.776,25.057 "/>
<polygon fill="#40B150" points="19.923,19.173 14.148,24.963 19.915,24.963 19.915,24.928 19.923,24.928 19.923,19.195 
	19.923,19.164 19.92,19.171 19.92,19.173 "/>
<polygon fill="#6F798B" points="14.148,24.963 19.923,19.173 19.92,19.173 14.089,19.173 14.066,19.173 14.066,19.176 
	14.066,24.928 14.079,24.928 14.066,24.939 14.066,24.963 "/>
<path fill="#F3BB24" d="M37.505,14.611h-0.105c-0.512-0.012-0.941,0.021-1.306,0.094l-2.528,2.536l-0.986,1.902h4.926V14.611z"/>
<path fill="#971E45" d="M34.211,15.986l-0.646,1.255l2.528-2.536C34.755,14.962,34.403,15.678,34.211,15.986z"/>
<polygon fill="#6F798B" points="26.129,19.173 25.792,18.553 25.792,19.173 "/>
<polygon fill="#F68A4B" points="37.495,24.993 37.505,24.984 37.505,24.928 37.466,24.967 "/>
<polygon fill="#F68A4B" points="37.505,24.928 37.505,19.143 37.505,19.143 32.579,19.143 32.267,19.762 35.667,23.159 
	36.852,20.942 36.86,24.355 37.435,24.928 "/>
<polygon fill="#CBE5C1" points="31.654,20.957 31.654,24.928 34.719,24.928 35.643,23.19 32.25,19.797 "/>
<polygon fill="#CBE5C1" points="37.38,25.057 37.435,25.057 37.466,25.02 37.445,24.993 "/>
<polygon fill="#4F3444" points="36.86,24.404 36.86,24.928 37.38,24.928 "/>
<polygon fill="#40B150" points="29.252,24.963 28.067,22.762 25.86,24.963 "/>
<polygon fill="#40B150" points="31.654,24.928 31.654,20.957 29.587,24.963 31.654,24.963 "/>
<polygon fill="#F68A4B" points="25.792,19.176 25.792,24.95 25.801,24.963 25.86,24.963 28.067,22.762 26.129,19.173 25.792,19.173 
	"/>
<path fill="#F68A4B" d="M16.704,48.6v2.606c0,0.015,0.01,0.024,0.01,0.043l2.031,2.039c0.221,0.049,0.454,0.071,0.683,0.071
	c0.166,0,0.324-0.015,0.487-0.037V48.6H16.704z"/>
<polygon fill="#F68A4B" points="15.149,49.687 15.149,48.6 14.059,48.6 "/>
<rect x="14.056" y="48.59" fill="#ED4525" width="0.002" height="0.004"/>
<path fill="#ED4525" d="M14.059,48.594h-0.003v0.053l0.023-0.021v4.291c0.647-0.395,1.071-1.01,1.071-1.711v-1.52L14.059,48.6
	V48.594z"/>
<path fill="#ED4525" d="M18.745,53.288l-2.031-2.039C16.737,52.229,17.588,53.054,18.745,53.288z"/>
<path fill="#EB6B9F" d="M19.915,48.594V48.6v4.723c1.271-0.181,2.235-1.058,2.235-2.116v-2.638h-2.235V48.594z"/>
<polygon fill="#F3BB24" points="19.915,48.568 19.915,48.568 19.915,48.568 19.915,42.738 16.704,45.943 16.704,48.594 
	19.915,48.594 "/>
<polygon fill="#F3BB24" points="14.079,48.575 14.071,48.575 14.059,48.592 14.055,48.594 14.059,48.594 15.149,48.594 
	15.149,47.498 14.079,48.573 "/>
<polygon fill="#CBE5C1" points="14.055,42.714 14.079,42.714 14.079,48.523 15.149,47.443 15.149,42.683 14.055,42.683 "/>
<polygon fill="#CBE5C1" points="16.704,42.683 16.704,45.887 19.915,42.683 "/>
<polygon fill="#ED4525" points="19.92,42.714 19.915,42.704 19.915,42.738 19.915,48.568 19.915,48.568 22.15,48.568 22.15,44.962 
	19.915,42.714 "/>
<polygon fill="#971E45" points="19.915,42.714 22.15,44.962 22.15,42.714 19.92,42.714 "/>
<path fill="#DED2E8" d="M14.055,48.589l0.011-0.018v-0.003H9.701v2.638c0,0.457,0.184,0.888,0.496,1.241l3.858-3.855V48.589z"/>
<path fill="#F3BB24" d="M14.079,48.626l-0.023,0.021l-3.828,3.827c0.491,0.535,1.288,0.886,2.196,0.886
	c0.619,0,1.189-0.166,1.655-0.442V48.626z"/>
<polygon fill="#D4264A" points="14.066,48.568 14.066,48.571 14.071,48.575 14.079,48.575 14.079,48.573 14.079,48.568 
	14.059,48.568 "/>
<polygon fill="#D4264A" points="14.079,48.568 14.079,48.523 14.079,42.714 14.055,42.714 9.701,42.714 9.701,44.188 "/>
<polygon fill="#6BCAD5" points="14.079,48.568 9.701,44.188 9.701,48.568 14.059,48.568 "/>
<polygon fill="#971E45" points="37.502,48.568 36.864,48.568 36.864,49.207 37.502,48.571 "/>
<path fill="#6F798B" d="M36.864,49.262v1.944c0,0.529,0.243,1.011,0.641,1.383v-3.963L36.864,49.262z"/>
<polygon fill="#971E45" points="36.864,47.931 36.864,48.568 37.495,48.568 "/>
<polygon fill="#971E45" points="37.502,48.568 37.502,48.571 37.505,48.575 37.505,42.714 36.864,42.714 36.864,47.931 
	37.495,48.568 "/>
<polygon fill="#6BCAD5" points="14.066,24.963 14.059,24.963 19.915,30.813 19.901,30.813 19.915,30.821 19.915,30.788 
	19.915,24.963 14.148,24.963 "/>
<polygon fill="#416AB3" points="14.059,24.963 14.055,24.958 14.055,24.958 14.055,24.963 14.055,25.006 14.079,24.984 
	14.079,30.813 19.901,30.813 19.915,30.813 "/>
<polygon fill="#4F3444" points="14.055,30.846 14.055,30.873 14.079,30.873 14.079,36.673 19.915,30.836 14.079,30.836 
	14.079,30.846 "/>
<polygon fill="#E7D69E" points="19.915,36.718 19.915,30.896 14.079,36.731 14.079,36.731 14.071,36.731 14.055,36.75 15.149,36.75 
	15.149,36.543 16.704,36.543 16.704,36.75 19.915,36.75 "/>
<polygon fill="#6BCAD5" points="25.723,24.984 25.737,24.958 25.776,24.928 25.723,24.928 25.652,24.928 24.141,24.928 
	24.67,26.022 25.647,25.057 "/>
<polygon fill="#6BCAD5" points="19.915,24.928 19.915,24.963 19.915,30.788 22.173,28.528 22.175,24.928 19.923,24.928 "/>
<polygon fill="#4F3444" points="22.171,30.846 22.173,28.584 19.915,30.846 "/>
<polygon fill="#4F3444" points="25.776,25.043 25.776,24.984 25.776,24.984 25.776,24.984 25.737,25.012 25.697,25.057 
	24.696,26.06 25.776,28.246 25.776,25.057 "/>
<polygon fill="#40B150" points="22.164,33.112 22.171,30.873 19.92,30.873 "/>
<polygon fill="#416AB3" points="19.915,30.858 19.915,30.896 19.915,36.718 22.15,36.718 22.15,36.543 22.164,33.112 19.92,30.873 
	"/>
<rect x="14.053" y="36.779" fill="#F68A4B" width="0.003" height="0.012"/>
<polygon fill="#F68A4B" points="16.704,39.449 16.704,42.64 19.901,42.64 "/>
<polygon fill="#F68A4B" points="14.079,42.64 15.149,42.64 15.149,37.893 14.079,36.817 "/>
<polygon fill="#F68A4B" points="14.071,36.817 14.055,36.791 14.055,36.832 "/>
<polygon fill="#F3BB24" points="19.915,42.652 19.915,36.791 16.704,36.791 16.704,39.449 19.901,42.64 "/>
<polygon fill="#F3BB24" points="14.055,36.791 14.071,36.817 14.079,36.812 14.079,36.817 15.149,37.893 15.149,36.791 
	14.059,36.791 "/>
<polygon fill="#416AB3" points="19.915,42.622 22.15,40.37 22.15,36.759 19.915,36.759 "/>
<polygon fill="#D4264A" points="22.15,42.671 22.15,40.425 19.915,42.671 "/>
<polygon fill="#DED2E8" points="2.416,24.963 2.398,24.995 5.736,28.325 7.533,24.963 2.433,24.963 "/>
<path fill="#4F3444" d="M2.398,24.995l-0.044,0.084v5.734h2.007c0.088-0.115,0.17-0.232,0.232-0.365l1.143-2.123L2.398,24.995z"/>
<path fill="#4F3444" d="M2.354,31.845c0.778-0.062,1.512-0.433,1.989-1.009H2.354V31.845z"/>
<polygon fill="#CBE5C1" points="14.019,24.984 14.043,24.958 14.055,24.958 14.055,24.958 14.066,24.939 14.079,24.928 
	14.066,24.928 14.019,24.928 13.967,24.928 9.687,24.928 9.696,29.312 13.948,25.057 "/>
<polygon fill="#416AB3" points="14.079,30.846 14.079,30.836 14.079,30.813 14.079,24.984 14.055,25.006 14.043,25.012 
	14.006,25.057 9.696,29.363 9.696,30.846 14.055,30.846 "/>
<polygon fill="#89A181" points="14.071,36.731 14.079,36.731 14.079,36.731 14.079,36.718 14.059,36.718 "/>
<polygon fill="#89A181" points="14.079,36.718 14.079,36.673 14.079,30.873 14.055,30.873 9.696,30.873 9.696,32.343 "/>
<polygon fill="#971E45" points="14.079,36.718 9.696,32.343 9.701,36.543 9.701,36.718 14.059,36.718 "/>
<polygon fill="#971E45" points="14.055,36.779 14.079,36.759 9.701,36.759 9.701,41.133 14.055,36.779 "/>
<polygon fill="#EB6B9F" points="14.079,42.64 14.079,36.817 14.079,36.812 14.071,36.817 14.055,36.832 9.701,41.188 9.701,42.671 
	14.079,42.671 "/>
<path fill="#40B150" d="M31.654,25.02v-0.056h-2.067l-0.168,0.317l-0.166-0.317H25.86h-0.06l5.774,5.774
	c0.031-0.031,0.055-0.069,0.079-0.101v-5.58V25.02z"/>
<path fill="#4F3444" d="M25.801,24.963l-0.009-0.013v0.069l0,0v0.019v3.249l1.088,2.223c0.055,0.106,0.131,0.205,0.191,0.304h4.444
	c0.024-0.031,0.039-0.052,0.06-0.076L25.801,24.963z"/>
<path fill="#4F3444" d="M30.062,31.826c0.582-0.157,1.072-0.498,1.378-0.921c0.026-0.021,0.035-0.047,0.058-0.069h-4.401
	C27.741,31.683,28.979,32.119,30.062,31.826z"/>
<polygon fill="#4F3444" points="30.652,36.517 31.654,36.517 31.654,34.73 "/>
<path fill="#CBE5C1" d="M31.654,24.963v0.056v0.037v5.58c0.036-0.06,0.076-0.116,0.109-0.188l2.956-5.521h-3.065V24.963z"/>
<polygon fill="#4F3444" points="37.445,24.993 37.466,24.967 37.505,24.928 37.435,24.928 37.38,24.928 36.86,24.928 36.86,25.364 
	36.588,25.856 37.38,25.057 "/>
<polygon fill="#F68A4B" points="37.505,25.002 37.505,24.984 37.495,24.993 37.466,25.02 37.435,25.057 36.528,25.972 
	33.809,30.846 37.505,30.846 "/>
<polygon fill="#F3BB24" points="37.505,30.873 33.797,30.873 33.031,32.242 37.505,36.718 "/>
<polygon fill="#F3BB24" points="37.505,36.731 37.505,36.718 37.495,36.718 "/>
<polygon fill="#F68A4B" points="37.505,36.718 33.031,32.242 31.654,34.729 31.654,36.517 36.864,36.511 36.864,36.543 
	36.864,36.718 37.495,36.718 "/>
<polygon fill="#971E45" points="36.864,36.759 36.864,37.395 37.505,36.759 "/>
<polygon fill="#971E45" points="37.505,36.812 36.864,37.454 36.864,42.671 37.505,42.671 "/>
<path fill="#EB6B9F" d="M2.345,25.09l-2.141,4.158c-0.276,0.557-0.266,1.126-0.008,1.598h2.149V25.09z"/>
<path fill="#40B150" d="M0.204,30.875c0.231,0.41,0.65,0.731,1.206,0.888c0.308,0.082,0.629,0.108,0.935,0.082v-0.97H0.204z"/>
<polygon fill="#EB6B9F" points="49.299,48.553 49.325,48.553 49.325,48.523 49.299,48.546 "/>
<polygon fill="#DED2E8" points="49.288,48.497 49.325,48.466 49.325,42.638 49.288,42.638 "/>
<polygon fill="#F3BB24" points="49.288,42.609 49.325,42.609 49.325,36.791 49.288,36.759 "/>
<polygon fill="#F3BB24" points="49.288,36.748 49.288,36.759 49.306,36.759 "/>
<polygon fill="#F04949" points="49.288,36.759 49.325,36.791 49.325,36.759 49.306,36.759 "/>
<path fill="#89A181" d="M56.217,31.896c0.337,0.039,0.679,0.019,1.005-0.069c0.61-0.168,1.135-0.527,1.434-0.98h-3.494
	L56.217,31.896z"/>
<polygon fill="#ED4525" points="55.496,36.472 55.147,35.862 55.147,36.472 "/>
<polygon fill="#4F3444" points="55.158,30.834 55.147,30.83 55.147,30.846 "/>
<path fill="#971E45" d="M55.147,30.846v0.723c0.335,0.172,0.695,0.287,1.07,0.327l-1.055-1.05H55.147z"/>
<polygon fill="#ED4525" points="49.325,36.72 49.325,36.688 49.288,36.72 "/>
<path fill="#971E45" d="M54.726,31.293c0.125,0.108,0.263,0.195,0.421,0.275V30.86L54.726,31.293z"/>
<polygon fill="#ED4525" points="55.147,36.472 55.147,35.862 53.369,32.646 49.529,36.487 "/>
<path fill="#971E45" d="M55.142,30.807h-0.908c0.136,0.171,0.281,0.331,0.457,0.464l0.457-0.455L55.142,30.807z"/>
<polygon fill="#CBE5C1" points="49.288,36.666 49.325,36.631 49.325,36.543 49.325,36.487 49.477,36.487 53.343,32.609 
	52.356,30.807 49.288,30.807 "/>
<polygon fill="#ED4525" points="49.325,48.575 49.325,48.553 49.306,48.553 "/>
<path fill="#CBE5C1" d="M49.299,48.553v-0.007h-0.011v2.968c0.021-0.097,0.037-0.209,0.037-0.308v-2.631l-0.019-0.022H49.299z"/>
<polygon fill="#DED2E8" points="49.271,42.671 43.877,42.671 43.877,43.118 49.271,48.52 "/>
<polygon fill="#DED2E8" points="49.268,48.523 49.271,48.523 49.271,48.52 49.261,48.52 "/>
<polygon fill="#4F3444" points="49.271,48.52 43.877,43.118 43.877,48.52 49.261,48.52 "/>
<polygon fill="#89A181" points="49.271,36.779 43.877,42.181 43.877,42.643 49.271,42.643 "/>
<polygon fill="#CBE5C1" points="43.877,36.726 43.877,42.125 49.271,36.726 "/>
<polygon fill="#40B150" points="37.56,48.553 42.319,48.553 42.319,43.786 37.56,48.546 "/>
<polygon fill="#6F798B" points="37.556,48.497 42.319,43.737 42.319,42.638 37.556,42.638 "/>
<polygon fill="#ED4525" points="42.319,41.512 42.319,36.759 37.562,36.759 "/>
<polygon fill="#89A181" points="37.556,36.748 37.556,42.609 42.319,42.609 42.319,41.512 37.562,36.759 "/>
<polygon fill="#40B150" points="49.271,36.695 49.271,36.688 49.261,36.688 "/>
<polygon fill="#40B150" points="49.271,36.688 49.271,30.846 43.426,30.846 "/>
<polygon fill="#CBE5C1" points="49.271,36.688 43.426,30.846 43.414,30.846 43.414,30.86 43.414,36.543 43.877,36.543 
	43.877,36.688 49.261,36.688 "/>
<polygon fill="#CBE5C1" points="43.423,30.834 43.414,30.83 43.414,30.846 "/>
<polygon fill="#40B150" points="37.556,36.72 42.319,36.72 42.319,36.543 43.414,36.543 43.414,30.86 "/>
<polygon fill="#CBE5C1" points="37.556,30.807 37.556,36.666 43.411,30.815 43.406,30.807 "/>
<path fill="#D4264A" d="M49.271,48.575l-4.336,4.335c0.46,0.279,1.042,0.449,1.666,0.449c1.319,0,2.426-0.75,2.67-1.741V48.575z"/>
<path fill="#971E45" d="M49.271,48.523h-0.003h-5.391v2.683c0,0.679,0.4,1.29,1.029,1.684L49.271,48.523L49.271,48.523z"/>
<path fill="#4F3444" d="M41.638,52.623c0.422-0.379,0.681-0.871,0.681-1.417v-2.653h-4.756L41.638,52.623z"/>
<path fill="#6F798B" d="M37.56,48.553v-0.007h-0.004v4.084c0.495,0.45,1.219,0.729,2.035,0.729c0.819,0,1.547-0.289,2.047-0.736
	l-4.076-4.07H37.56z"/>
<path fill="#89A181" d="M55.147,30.846L55.147,30.846L55.147,30.846h0.015h3.494c0.306-0.459,0.401-1.003,0.116-1.533l-0.725-1.358
	l-2.888,2.88L55.147,30.846z"/>
<polygon fill="#DED2E8" points="55.147,30.788 58.026,27.917 56.477,25.057 55.147,25.057 "/>
<polygon fill="#EB6B9F" points="55.147,30.807 55.142,30.807 55.147,30.815 55.147,30.819 55.147,30.788 55.147,25.057 
	55.14,25.057 55.14,25.02 51.354,25.02 53.271,28.929 "/>
<polygon fill="#D4264A" points="49.288,30.807 49.288,30.807 52.356,30.807 49.343,25.396 49.343,25.02 49.288,25.02 "/>
<path fill="#971E45" d="M55.147,30.807l-1.876-1.878l0.779,1.581c0.058,0.106,0.118,0.205,0.183,0.297h0.908H55.147z"/>
<polygon fill="#4F3444" points="49.24,24.967 49.195,24.928 49.148,24.928 49.213,24.993 "/>
<polygon fill="#4F3444" points="43.414,30.788 49.148,25.057 43.414,25.057 "/>
<polygon fill="#D4264A" points="49.24,25.02 49.271,25.057 49.271,25.002 49.261,24.993 "/>
<polygon fill="#D4264A" points="43.426,30.846 49.271,30.846 49.271,30.836 49.271,25.057 49.195,25.057 43.423,30.834 
	43.414,30.846 "/>
<polygon fill="#6F798B" points="43.414,25.02 37.631,25.02 43.411,30.807 43.406,30.807 43.411,30.815 43.414,30.819 43.414,30.788 
	43.414,25.057 "/>
<polygon fill="#6BCAD5" points="43.411,30.807 37.631,25.02 37.562,25.02 37.556,25.038 37.556,25.02 37.556,25.02 37.556,30.807 
	37.556,30.807 43.406,30.807 "/>
<polygon fill="#DED2E8" points="51.354,25.02 55.14,25.02 55.14,22.583 53.941,20.37 50.671,23.642 "/>
<polygon fill="#DED2E8" points="49.288,25.02 49.288,25.02 49.343,25.02 49.343,24.971 "/>
<polygon fill="#4F3444" points="49.271,25.038 49.288,25.02 49.343,24.971 49.345,20.942 50.671,23.642 53.941,20.37 53.298,19.173 
	49.271,19.173 "/>
<path fill="#4F3444" d="M53.279,19.146l-1.676-3.099c-0.424-0.824-1.283-1.394-2.26-1.434l-0.072-0.003v4.535H53.279z"/>
<polygon fill="#89A181" points="55.14,25.02 55.14,25.057 55.147,25.057 56.477,25.057 55.14,22.583 "/>
<polygon fill="#D4264A" points="43.414,19.164 43.406,19.173 43.414,19.173 "/>
<polygon fill="#D4264A" points="37.562,25.02 37.631,25.02 43.414,25.02 43.414,24.958 43.414,19.195 43.414,19.173 "/>
<polygon fill="#EB6B9F" points="37.556,25.02 37.556,25.02 37.556,25.038 37.562,25.02 43.414,19.173 43.406,19.173 37.556,19.173 
	37.556,24.95 "/>
<polygon fill="#DED2E8" points="43.414,19.146 38.876,14.611 37.556,14.611 37.556,19.146 "/>
<polygon fill="#923E89" points="43.414,14.611 39.817,14.611 38.929,14.611 43.414,19.091 "/>
<polygon fill="#971E45" points="49.24,25.02 49.213,24.993 49.148,24.928 43.414,19.195 43.414,24.958 43.414,25.02 43.414,25.057 
	49.148,25.057 49.195,25.057 49.271,25.057 "/>
<polygon fill="#EB6B9F" points="49.261,24.993 49.271,25.002 49.271,24.984 49.271,19.141 43.414,19.141 49.195,24.928 
	49.24,24.967 "/>
<polygon fill="#CBE5C1" points="43.414,19.126 43.426,19.115 43.414,19.115 "/>
<polygon fill="#CBE5C1" points="43.414,19.115 47.916,14.611 43.414,14.611 43.414,19.091 "/>
<polygon fill="#40B150" points="43.426,19.115 49.271,19.115 49.271,14.611 49.247,14.611 47.916,14.611 43.414,19.115 "/>
<path fill="none" d="M14.079,1.43h5.401c-0.01,0-0.01-0.001-0.01-0.001L14.079,1.43L14.079,1.43z"/>
<path fill="none" d="M14.066,7.312H9.295c0,0.014,0,0.023,0,0.035h4.771V7.312z"/>
<rect x="14.064" y="1.443" fill="none" width="0.027" height="0.005"/>
<polygon fill="none" points="14.089,1.459 11.46,1.459 11.452,1.465 14.079,1.465 "/>
<path fill="none" d="M9.815,8.977l2.972,2.978c0.041,0.018,0.068,0.033,0.101,0.05L9.762,8.873C9.773,8.91,9.79,8.942,9.815,8.977z"
	/>
<path fill="none" d="M19.923,7.326V7.312l0,0l0,0V7.295l-5.834-5.838v0.003v0.053l5.834,5.834h-5.834v0.032h5.832l0.003-0.017v0.017
	v3.349v-0.001V7.396l1.349,1.344c0.002-0.017,0.012-0.026,0.014-0.039l-1.363-1.354h1.75c0-0.011,0-0.021,0.003-0.035h-1.728
	L19.923,7.326z"/>
<path fill="none" d="M14.066,1.429V1.386L13.144,0.46c-0.016,0.003-0.027,0.003-0.048,0.012l0.971,0.969V1.429z"/>
<path fill="#F68A4B" d="M11.452,1.465C10.079,2.616,9.2,4.352,9.2,6.281c0,0.024,0,0.042,0,0.063l4.878-4.879H11.452z"/>
<path fill="#ED4525" d="M14.066,1.49l0.022,0.022V1.459l0,0l-0.01,0.006L9.2,6.344C9.2,6.674,9.236,7,9.295,7.312h4.771V1.49z"/>
<path fill="#D4264A" d="M14.089,7.379V7.347h-0.022V7.346H9.295c0.09,0.53,0.251,1.045,0.466,1.527l3.126,3.131
	c0.384,0.167,0.765,0.304,1.178,0.399V7.379H14.089z"/>
<path fill="#EB6B9F" d="M12.787,11.954L9.815,8.977C10.432,10.284,11.487,11.339,12.787,11.954z"/>
<path fill="#F3BB24" d="M14.089,1.459V1.457l-0.022-0.016l0,0l0,0l-0.971-0.969c-0.595,0.246-1.146,0.583-1.636,0.987H14.089
	L14.089,1.459z"/>
<path fill="#CBE5C1" d="M14.066,0.17c-0.32,0.069-0.63,0.164-0.923,0.29l0.923,0.925V0.17z"/>
<path fill="#971E45" d="M21.676,7.312c0.052-0.334,0.087-0.677,0.087-1.031c0-0.251-0.018-0.501-0.052-0.745l-1.763,1.775H21.676z"
	/>
<path fill="#416AB3" d="M19.923,1.84v5.455v0.017l0,0v0.014l0.025-0.014l1.763-1.775C21.553,4.102,20.895,2.811,19.923,1.84z"/>
<path fill="#6BCAD5" d="M21.286,8.701c0.182-0.43,0.307-0.886,0.387-1.354h-1.75L21.286,8.701z"/>
<path fill="#462B74" d="M19.923,10.727c0.568-0.568,1.024-1.243,1.349-1.987l-1.349-1.344V10.727z"/>
<path fill="#DED2E8" d="M14.066,1.436l0.022,0.02v0.001l5.834,5.838V1.84c-0.143-0.139-0.289-0.28-0.444-0.41h-5.401L14.066,1.436z"
	/>
<polygon fill="#F3BB24" points="14.066,1.49 14.066,7.312 14.066,7.346 14.066,7.347 14.089,7.347 19.923,7.347 14.089,1.513 "/>
<path fill="#971E45" d="M14.768,12.525c0.233,0.028,0.475,0.043,0.708,0.043c1.74,0,3.314-0.706,4.447-1.84V7.379L14.768,12.525z"/>
<polygon fill="#971E45" points="19.923,7.362 19.92,7.379 19.923,7.379 "/>
<path fill="#D4264A" d="M19.92,7.379h-5.832h-0.022v5.024c0.232,0.055,0.465,0.098,0.702,0.122l5.155-5.146H19.92z"/>
<path fill="#D4264A" d="M14.066,1.429L15.492,0c0,0-0.005,0-0.015,0c-0.483,0-0.955,0.059-1.41,0.17v1.215V1.429z"/>
<polygon fill="#D4264A" points="14.079,1.43 14.079,1.429 14.066,1.429 14.066,1.441 14.066,1.441 14.066,1.441 14.066,1.436 "/>
<path fill="#6BCAD5" d="M14.066,1.429h0.012h5.391C18.384,0.542,17.005,0.002,15.492,0L14.066,1.429z"/>
<polygon fill="none" points="44.105,1.386 39.421,1.386 39.407,1.387 44.105,1.387 "/>
<path fill="none" d="M44.105,1.418h3.211c0,0,0-0.002-0.005-0.002h-3.206V1.418z"/>
<path fill="none" d="M44.105,7.281V7.269V7.246l-5.299-5.301c-0.01,0.011-0.014,0.024-0.031,0.028l5.33,5.329h-5.856V2.616
	c-0.015,0.024-0.041,0.04-0.048,0.064v4.631h-1.052c0,0.014,0,0.023,0.005,0.035h1.047v2.541c0.007,0.02,0.033,0.042,0.048,0.063
	V7.346h5.845l0.012-0.014v0.03l3.514,3.518c0.015-0.013,0.015-0.018,0.032-0.025l-3.546-3.544h5.426c0-0.01,0.006-0.029,0.006-0.042
	h-5.416L44.105,7.281z"/>
<path fill="#EB6B9F" d="M38.201,2.681c-0.719,1.021-1.142,2.262-1.142,3.6c0,0.354,0.039,0.696,0.089,1.031h1.052V2.681z"/>
<path fill="#DED2E8" d="M37.154,7.346c0.16,0.932,0.528,1.795,1.047,2.541V7.346H37.154z"/>
<path fill="#CBE5C1" d="M44.105,0.055C43.85,0.023,43.607,0,43.35,0c-1.491,0-2.857,0.517-3.928,1.386h4.684V0.055z"/>
<path fill="#ED4525" d="M44.105,1.387v0.03h3.206c-0.89-0.734-2-1.221-3.206-1.362V1.387L44.105,1.387z"/>
<path fill="#F68A4B" d="M44.105,7.301l-5.33-5.329c-0.188,0.204-0.363,0.422-0.526,0.644v4.685H44.105z"/>
<path fill="#F3BB24" d="M44.105,1.418V1.417v-0.03h-4.698c-0.209,0.173-0.415,0.362-0.601,0.558l5.299,5.301V1.418z"/>
<polygon fill="#89A181" points="44.122,7.269 44.105,7.269 44.105,7.281 "/>
<path fill="#89A181" d="M44.105,7.246v0.023l4.47-4.465c-0.35-0.524-0.773-0.989-1.258-1.385h-3.211V7.246z"/>
<path fill="#6F798B" d="M44.105,7.269h0.016h5.416c0.059-0.323,0.089-0.653,0.089-0.988c0-1.287-0.387-2.481-1.052-3.477
	L44.105,7.269z"/>
<path fill="#CBE5C1" d="M38.249,7.346v2.604c0.445,0.631,1.008,1.165,1.654,1.587l4.19-4.192H38.249z"/>
<path fill="#ED4525" d="M44.105,7.332l-0.012,0.014l-4.19,4.192c0.984,0.648,2.167,1.03,3.446,1.03c0.257,0,0.5-0.017,0.756-0.051
	V7.362V7.332z"/>
<path fill="#40B150" d="M44.105,12.517c1.345-0.161,2.562-0.756,3.514-1.637l-3.514-3.518V12.517z"/>
<path fill="#89A181" d="M47.651,10.855c0.98-0.924,1.657-2.154,1.88-3.544h-5.426L47.651,10.855z"/>
<path fill="#4F3444" d="M52.179,56.618h-5.422l-0.003,2.278h5.425v6.413c0,0.509-0.051,0.939-0.146,1.294
	c-0.091,0.354-0.229,0.647-0.407,0.867c-0.188,0.224-0.419,0.39-0.687,0.49c-0.268,0.099-0.584,0.149-0.938,0.149
	c-0.258,0-0.474-0.022-0.643-0.062c-0.169-0.045-0.306-0.067-0.411-0.067c-0.174,0-0.31,0.045-0.402,0.129
	c-0.078,0.08-0.127,0.191-0.151,0.326l-0.129,1.485c0.361,0.08,0.695,0.147,1.007,0.187c0.331,0.043,0.657,0.063,0.989,0.063
	c0.733,0,1.372-0.115,1.921-0.343c0.552-0.229,1.008-0.558,1.377-0.986c0.369-0.425,0.647-0.941,0.839-1.548
	c0.175-0.605,0.274-1.286,0.274-2.037v-8.642h-2.493V56.618z"/>
<path fill="#4F3444" d="M63.046,67.385c-0.3,0.31-0.632,0.554-0.977,0.734c-0.35,0.172-0.723,0.26-1.107,0.26
	c-0.542,0-0.953-0.159-1.213-0.478c-0.274-0.317-0.407-0.765-0.407-1.348v-6.047h-2.289v6.047c0,0.535,0.069,1.018,0.201,1.457
	c0.136,0.45,0.345,0.83,0.619,1.15c0.276,0.323,0.606,0.567,1.007,0.746c0.406,0.174,0.857,0.265,1.377,0.265
	c0.317,0,0.615-0.031,0.884-0.103c0.283-0.067,0.528-0.152,0.77-0.267c0.237-0.108,0.458-0.252,0.669-0.416
	c0.214-0.16,0.425-0.345,0.625-0.544l0.156,0.763c0.088,0.277,0.282,0.415,0.582,0.415h1.396v-9.514h-2.293V67.385z"/>
<path fill="#4F3444" d="M72.236,60.464c-0.362-0.085-0.746-0.126-1.154-0.126c-0.541,0-1.044,0.076-1.505,0.216
	c-0.464,0.144-0.867,0.345-1.197,0.619c-0.339,0.263-0.608,0.595-0.792,0.975c-0.185,0.371-0.278,0.802-0.278,1.27
	c0,0.584,0.136,1.087,0.407,1.521c0.276,0.437,0.664,0.783,1.143,1.044c-0.21,0.103-0.393,0.223-0.542,0.353
	c-0.164,0.135-0.291,0.271-0.393,0.422c-0.103,0.15-0.177,0.3-0.222,0.453c-0.058,0.152-0.078,0.3-0.078,0.438
	c0,0.349,0.075,0.627,0.222,0.847c0.132,0.218,0.33,0.386,0.552,0.522c-0.475,0.175-0.855,0.411-1.131,0.721
	c-0.269,0.301-0.405,0.675-0.405,1.121c0,0.326,0.088,0.643,0.267,0.945c0.171,0.306,0.431,0.57,0.783,0.8
	c0.351,0.232,0.785,0.421,1.311,0.559c0.537,0.137,1.16,0.207,1.896,0.207c0.722,0,1.365-0.091,1.937-0.281
	c0.571-0.187,1.059-0.44,1.447-0.751c0.388-0.312,0.693-0.662,0.898-1.06c0.209-0.396,0.308-0.806,0.308-1.234
	c0-0.449-0.091-0.816-0.261-1.105c-0.179-0.287-0.41-0.513-0.697-0.686c-0.278-0.166-0.611-0.287-0.971-0.365
	c-0.369-0.081-0.748-0.133-1.125-0.166c-0.39-0.026-0.759-0.045-1.122-0.045c-0.364,0-0.695-0.017-0.979-0.053
	c-0.285-0.044-0.527-0.103-0.699-0.193c-0.177-0.09-0.268-0.235-0.268-0.429c0-0.222,0.145-0.426,0.453-0.606
	c0.341,0.071,0.683,0.104,1.044,0.104c0.531,0,1.023-0.074,1.482-0.22c0.451-0.144,0.845-0.351,1.176-0.615
	c0.325-0.265,0.589-0.589,0.779-0.972c0.183-0.373,0.282-0.804,0.282-1.275c0-0.193-0.013-0.386-0.052-0.564
	c-0.024-0.179-0.077-0.347-0.142-0.511l0.85-0.155c0.187-0.033,0.308-0.083,0.386-0.167c0.065-0.08,0.112-0.19,0.112-0.336v-0.855
	h-2.74C72.92,60.675,72.6,60.552,72.236,60.464z M69.711,69.386c0.285,0.064,0.58,0.102,0.884,0.102c0.308,0,0.599,0,0.889,0
	c0.289,0,0.562,0.012,0.822,0.051c0.257,0.028,0.47,0.076,0.667,0.142c0.188,0.067,0.349,0.157,0.462,0.28
	c0.108,0.119,0.158,0.275,0.158,0.466c0,0.188-0.048,0.361-0.14,0.521c-0.091,0.166-0.237,0.301-0.44,0.418
	c-0.2,0.115-0.451,0.209-0.768,0.274c-0.3,0.066-0.671,0.101-1.096,0.101c-0.431,0-0.777-0.028-1.066-0.088
	c-0.302-0.06-0.531-0.146-0.718-0.25c-0.171-0.104-0.313-0.226-0.397-0.371c-0.086-0.147-0.122-0.304-0.122-0.476
	c0-0.244,0.081-0.475,0.233-0.667C69.242,69.694,69.451,69.527,69.711,69.386z M72.663,64.104c-0.063,0.194-0.181,0.361-0.308,0.494
	c-0.145,0.134-0.317,0.242-0.527,0.316c-0.214,0.079-0.462,0.122-0.746,0.122c-0.271,0-0.53-0.043-0.735-0.122
	c-0.212-0.074-0.386-0.183-0.529-0.326c-0.142-0.136-0.244-0.298-0.319-0.492c-0.071-0.191-0.106-0.396-0.106-0.617
	c0-0.473,0.134-0.844,0.425-1.12c0.276-0.275,0.703-0.412,1.264-0.412c0.563,0,0.986,0.137,1.273,0.412
	c0.271,0.276,0.412,0.647,0.412,1.12C72.767,63.704,72.739,63.908,72.663,64.104z"/>
<path fill="#4F3444" d="M84.281,61.488c-0.373-0.369-0.806-0.647-1.307-0.841c-0.502-0.194-1.048-0.287-1.657-0.287
	c-0.709,0-1.349,0.123-1.913,0.37c-0.566,0.25-1.038,0.582-1.443,1.005c-0.384,0.424-0.682,0.92-0.902,1.496
	c-0.214,0.57-0.315,1.18-0.315,1.832c0,0.832,0.129,1.566,0.362,2.202c0.246,0.628,0.576,1.165,0.997,1.592
	c0.418,0.429,0.914,0.757,1.479,0.978c0.57,0.218,1.187,0.328,1.857,0.328c0.33,0,0.673-0.026,1.029-0.075
	c0.349-0.05,0.702-0.132,1.049-0.253c0.338-0.125,0.67-0.284,0.986-0.483c0.312-0.203,0.595-0.455,0.853-0.745l-0.67-0.836
	c-0.048-0.066-0.105-0.123-0.173-0.16s-0.147-0.054-0.242-0.054c-0.144,0-0.287,0.043-0.44,0.126
	c-0.152,0.092-0.326,0.184-0.521,0.286c-0.217,0.111-0.438,0.205-0.716,0.292c-0.266,0.088-0.582,0.129-0.963,0.129
	c-0.751,0-1.355-0.224-1.812-0.683c-0.463-0.458-0.726-1.178-0.785-2.153h5.88c0.101,0,0.185-0.013,0.256-0.045
	c0.065-0.025,0.125-0.068,0.16-0.136c0.045-0.065,0.073-0.16,0.088-0.272c0.019-0.107,0.021-0.255,0.021-0.427
	c0-0.689-0.106-1.301-0.302-1.831C84.931,62.309,84.648,61.855,84.281,61.488z M79.082,64.169c0.099-0.69,0.343-1.225,0.727-1.605
	c0.365-0.377,0.897-0.562,1.55-0.562c0.355,0,0.64,0.057,0.898,0.166c0.252,0.116,0.47,0.271,0.626,0.476
	c0.17,0.194,0.297,0.425,0.381,0.693c0.072,0.258,0.119,0.535,0.119,0.832H79.082z"/>
<path fill="#4F3444" d="M94.775,61.368c-0.267-0.322-0.609-0.57-1.006-0.747c-0.401-0.176-0.867-0.261-1.388-0.261
	c-0.316,0-0.613,0.031-0.888,0.091c-0.27,0.063-0.52,0.155-0.764,0.269c-0.235,0.121-0.468,0.261-0.673,0.418
	c-0.215,0.164-0.424,0.341-0.617,0.54l-0.149-0.755c-0.092-0.275-0.287-0.416-0.587-0.416h-1.408v9.514h2.295v-6.883
	c0.31-0.3,0.64-0.548,0.98-0.726c0.349-0.185,0.718-0.273,1.121-0.273c0.535,0,0.934,0.158,1.2,0.482
	c0.278,0.313,0.41,0.765,0.41,1.349v6.051h2.288V63.97c0-0.532-0.065-1.021-0.203-1.464C95.249,62.063,95.041,61.682,94.775,61.368z
	"/>
<path fill="#4F3444" d="M103.65,61.268c-0.293-0.283-0.632-0.511-1.007-0.682c-0.371-0.168-0.834-0.252-1.361-0.252
	c-0.636,0-1.184,0.119-1.692,0.376c-0.5,0.246-0.927,0.594-1.29,1.041c-0.351,0.445-0.631,0.968-0.826,1.573
	c-0.19,0.607-0.291,1.261-0.291,1.971c0,0.781,0.086,1.466,0.259,2.077c0.176,0.605,0.416,1.114,0.726,1.522
	c0.306,0.416,0.677,0.724,1.117,0.942c0.433,0.216,0.913,0.326,1.43,0.326c0.332,0,0.645-0.039,0.932-0.106
	c0.282-0.075,0.547-0.174,0.802-0.306c0.256-0.127,0.485-0.28,0.703-0.461c0.218-0.179,0.423-0.378,0.625-0.601l0.185,0.916
	c0.089,0.277,0.287,0.415,0.579,0.415h1.406V56.241h-2.295V61.268z M103.65,67.206c-0.293,0.365-0.604,0.643-0.939,0.843
	c-0.342,0.197-0.744,0.298-1.216,0.298c-0.304,0-0.568-0.056-0.81-0.166c-0.242-0.106-0.441-0.287-0.611-0.531
	c-0.17-0.238-0.3-0.558-0.386-0.945c-0.095-0.38-0.136-0.854-0.136-1.409c0-0.554,0.052-1.031,0.156-1.436
	c0.103-0.404,0.257-0.738,0.449-0.999c0.19-0.269,0.44-0.463,0.72-0.593c0.277-0.129,0.593-0.19,0.939-0.19
	c0.353,0,0.681,0.062,0.986,0.19c0.306,0.13,0.589,0.354,0.847,0.667V67.206z"/>
<path fill="#4F3444" d="M110.898,56.622c-0.439,0.158-0.812,0.39-1.12,0.693c-0.302,0.304-0.535,0.675-0.705,1.107
	c-0.164,0.429-0.234,0.919-0.234,1.46v0.706h-1.434v0.938c0,0.166,0.062,0.296,0.164,0.393c0.105,0.086,0.248,0.153,0.434,0.184
	l0.836,0.13v7.787h2.285v-7.798h2.393v-1.634h-2.479v-0.632c0-0.349,0.049-0.645,0.122-0.882c0.072-0.236,0.195-0.431,0.337-0.574
	c0.153-0.149,0.332-0.252,0.545-0.306c0.214-0.063,0.454-0.088,0.729-0.088c0.195,0,0.377-0.022,0.531-0.064
	c0.164-0.04,0.244-0.155,0.258-0.338l0.044-1.15c-0.37-0.121-0.782-0.172-1.227-0.172C111.829,56.383,111.335,56.46,110.898,56.622z
	"/>
<path fill="#4F3444" d="M128.815,60.843c-0.442,0.339-0.843,0.8-1.189,1.391l-0.135-1.152c-0.039-0.205-0.099-0.354-0.188-0.443
	c-0.103-0.086-0.261-0.131-0.493-0.131h-1.335v9.514h2.279v-5.925c0.241-0.507,0.526-0.893,0.861-1.151
	c0.342-0.267,0.754-0.394,1.23-0.394c0.26,0,0.481,0.022,0.646,0.066c0.151,0.038,0.285,0.059,0.369,0.059
	c0.106,0,0.193-0.021,0.252-0.067c0.062-0.045,0.104-0.127,0.125-0.24l0.296-1.714c-0.312-0.214-0.701-0.32-1.163-0.32
	C129.8,60.334,129.275,60.502,128.815,60.843z"/>
<path fill="#4F3444" d="M138.847,61.268c-0.292-0.283-0.632-0.511-1.003-0.682c-0.39-0.168-0.833-0.252-1.37-0.252
	c-0.624,0-1.191,0.119-1.686,0.376c-0.499,0.246-0.938,0.594-1.284,1.041c-0.361,0.445-0.638,0.968-0.824,1.573
	c-0.197,0.607-0.298,1.261-0.298,1.971c0,0.781,0.088,1.466,0.255,2.077c0.178,0.605,0.418,1.114,0.726,1.522
	c0.308,0.416,0.686,0.724,1.122,0.942c0.424,0.216,0.904,0.326,1.427,0.326c0.328,0,0.646-0.039,0.936-0.106
	c0.281-0.075,0.55-0.174,0.794-0.306c0.256-0.127,0.489-0.28,0.703-0.461c0.222-0.179,0.425-0.378,0.632-0.601l0.176,0.916
	c0.095,0.277,0.294,0.415,0.581,0.415h1.41V56.241h-2.296V61.268z M138.847,67.206c-0.292,0.365-0.616,0.643-0.943,0.843
	c-0.337,0.197-0.738,0.298-1.213,0.298c-0.299,0-0.57-0.056-0.806-0.166c-0.24-0.106-0.451-0.287-0.617-0.531
	c-0.162-0.238-0.298-0.558-0.384-0.945c-0.088-0.38-0.14-0.854-0.14-1.409c0-0.554,0.052-1.031,0.164-1.436
	c0.099-0.404,0.253-0.738,0.451-0.999c0.193-0.269,0.425-0.463,0.71-0.593c0.277-0.129,0.599-0.19,0.943-0.19
	c0.349,0,0.683,0.062,0.982,0.19c0.306,0.13,0.591,0.354,0.852,0.667V67.206z"/>
<path fill="#4F3444" d="M150.503,61.488c-0.355-0.369-0.802-0.647-1.301-0.841c-0.498-0.194-1.056-0.287-1.648-0.287
	c-0.722,0-1.354,0.123-1.918,0.37c-0.567,0.25-1.043,0.582-1.435,1.005c-0.406,0.424-0.702,0.92-0.913,1.496
	c-0.211,0.57-0.317,1.18-0.317,1.832c0,0.832,0.129,1.566,0.362,2.202c0.252,0.628,0.57,1.165,0.991,1.592
	c0.428,0.429,0.918,0.757,1.49,0.978c0.561,0.218,1.186,0.328,1.846,0.328c0.332,0,0.677-0.026,1.032-0.075
	c0.358-0.05,0.701-0.132,1.046-0.253c0.351-0.125,0.674-0.284,0.988-0.483c0.317-0.203,0.597-0.455,0.856-0.745l-0.668-0.836
	c-0.047-0.066-0.11-0.123-0.179-0.16c-0.062-0.037-0.146-0.054-0.241-0.054c-0.142,0-0.288,0.043-0.434,0.126
	c-0.157,0.092-0.33,0.184-0.535,0.286c-0.209,0.111-0.435,0.205-0.703,0.292c-0.271,0.088-0.591,0.129-0.96,0.129
	c-0.757,0-1.361-0.224-1.814-0.683c-0.47-0.458-0.723-1.178-0.8-2.153h5.884c0.11,0,0.19-0.013,0.26-0.045
	c0.07-0.025,0.121-0.068,0.164-0.136c0.045-0.065,0.074-0.16,0.086-0.272c0.017-0.107,0.017-0.255,0.017-0.427
	c0-0.689-0.084-1.301-0.306-1.831C151.153,62.309,150.872,61.855,150.503,61.488z M145.3,64.169c0.104-0.69,0.351-1.225,0.734-1.605
	c0.369-0.377,0.892-0.562,1.562-0.562c0.343,0,0.636,0.057,0.886,0.166c0.261,0.116,0.464,0.271,0.626,0.476
	c0.176,0.194,0.299,0.425,0.379,0.693c0.08,0.258,0.115,0.535,0.115,0.832H145.3z"/>
<path fill="#4F3444" d="M156.883,60.843c-0.451,0.339-0.857,0.8-1.198,1.391l-0.135-1.152c-0.029-0.205-0.101-0.354-0.181-0.443
	c-0.095-0.086-0.259-0.131-0.494-0.131h-1.346v9.514h2.291v-5.925c0.229-0.507,0.523-0.893,0.859-1.151
	c0.345-0.267,0.751-0.394,1.225-0.394c0.271,0,0.483,0.022,0.642,0.066c0.16,0.038,0.281,0.059,0.382,0.059s0.187-0.021,0.246-0.067
	c0.067-0.045,0.106-0.127,0.116-0.24l0.308-1.714c-0.312-0.214-0.697-0.32-1.181-0.32C157.853,60.334,157.347,60.502,156.883,60.843
	z"/>
<path fill="#4F3444" d="M166.911,67.385c-0.3,0.31-0.638,0.554-0.979,0.734c-0.351,0.172-0.718,0.26-1.121,0.26
	c-0.536,0-0.932-0.159-1.21-0.478c-0.265-0.317-0.398-0.765-0.398-1.348v-6.047h-2.293v6.047c0,0.535,0.072,1.018,0.212,1.457
	c0.137,0.45,0.336,0.83,0.615,1.15c0.271,0.323,0.604,0.567,1.007,0.746c0.401,0.174,0.854,0.265,1.37,0.265
	c0.319,0,0.615-0.031,0.892-0.103c0.281-0.067,0.523-0.152,0.769-0.267c0.236-0.108,0.46-0.252,0.673-0.416
	c0.205-0.16,0.419-0.345,0.609-0.544l0.164,0.763c0.09,0.277,0.289,0.415,0.578,0.415h1.398v-9.514h-2.286V67.385z"/>
<path fill="#4F3444" d="M179.123,61.368c-0.269-0.322-0.606-0.57-1.009-0.747c-0.401-0.176-0.861-0.261-1.388-0.261
	c-0.314,0-0.605,0.031-0.891,0.091c-0.261,0.063-0.521,0.155-0.767,0.269c-0.228,0.121-0.458,0.261-0.665,0.418
	c-0.221,0.164-0.42,0.341-0.611,0.54l-0.163-0.755c-0.089-0.275-0.283-0.416-0.579-0.416h-1.402v9.514h2.288v-6.883
	c0.312-0.3,0.639-0.548,0.984-0.726c0.349-0.185,0.718-0.273,1.112-0.273c0.545,0,0.943,0.158,1.214,0.482
	c0.267,0.313,0.401,0.765,0.401,1.349v6.051h2.289V63.97c0-0.532-0.063-1.021-0.199-1.464
	C179.598,62.063,179.388,61.682,179.123,61.368z"/>
<path fill="#4F3444" d="M186.644,60.464c-0.361-0.085-0.744-0.126-1.158-0.126c-0.544,0-1.046,0.076-1.5,0.216
	c-0.465,0.144-0.861,0.345-1.205,0.619c-0.33,0.263-0.597,0.595-0.781,0.975c-0.193,0.371-0.279,0.802-0.279,1.27
	c0,0.584,0.125,1.087,0.408,1.521c0.269,0.437,0.652,0.783,1.134,1.044c-0.213,0.103-0.394,0.223-0.547,0.353
	c-0.15,0.135-0.283,0.271-0.376,0.422c-0.112,0.15-0.19,0.3-0.229,0.453c-0.056,0.152-0.08,0.3-0.08,0.438
	c0,0.349,0.069,0.627,0.213,0.847c0.142,0.218,0.331,0.386,0.564,0.522c-0.486,0.175-0.861,0.411-1.134,0.721
	c-0.267,0.301-0.404,0.675-0.404,1.121c0,0.326,0.09,0.643,0.259,0.945c0.172,0.306,0.433,0.57,0.787,0.8
	c0.349,0.232,0.785,0.421,1.318,0.559c0.529,0.137,1.163,0.207,1.883,0.207c0.73,0,1.376-0.091,1.946-0.281
	c0.568-0.187,1.044-0.44,1.447-0.751c0.386-0.312,0.689-0.662,0.898-1.06c0.197-0.396,0.306-0.806,0.306-1.234
	c0-0.449-0.09-0.816-0.263-1.105c-0.17-0.287-0.403-0.513-0.697-0.686c-0.285-0.166-0.606-0.287-0.968-0.365
	c-0.373-0.081-0.746-0.133-1.13-0.166c-0.379-0.026-0.753-0.045-1.128-0.045c-0.362,0-0.683-0.017-0.98-0.053
	c-0.282-0.044-0.517-0.103-0.687-0.193c-0.179-0.09-0.267-0.235-0.267-0.429c0-0.222,0.146-0.426,0.445-0.606
	c0.338,0.071,0.692,0.104,1.046,0.104c0.528,0,1.029-0.074,1.48-0.22c0.457-0.144,0.847-0.351,1.173-0.615
	c0.332-0.265,0.595-0.589,0.792-0.972c0.18-0.373,0.284-0.804,0.284-1.275c0-0.193-0.024-0.386-0.062-0.564
	c-0.036-0.179-0.079-0.347-0.139-0.511l0.856-0.155c0.175-0.033,0.3-0.083,0.378-0.167c0.069-0.08,0.108-0.19,0.108-0.336v-0.855
	h-2.741C187.326,60.675,186.998,60.552,186.644,60.464z M184.117,69.386c0.281,0.064,0.576,0.102,0.884,0.102
	c0.306,0,0.605,0,0.893,0c0.286,0,0.558,0.012,0.817,0.051c0.255,0.028,0.49,0.076,0.669,0.142c0.192,0.067,0.343,0.157,0.463,0.28
	c0.105,0.119,0.16,0.275,0.16,0.466c0,0.188-0.051,0.361-0.151,0.521c-0.078,0.166-0.235,0.301-0.429,0.418
	c-0.207,0.115-0.457,0.209-0.767,0.274c-0.306,0.066-0.681,0.101-1.105,0.101c-0.419,0-0.773-0.028-1.057-0.088
	c-0.304-0.06-0.535-0.146-0.722-0.25c-0.174-0.104-0.312-0.226-0.397-0.371c-0.076-0.147-0.128-0.304-0.128-0.476
	c0-0.244,0.087-0.475,0.238-0.667C183.655,69.694,183.853,69.527,184.117,69.386z M187.06,64.104
	c-0.062,0.194-0.168,0.361-0.308,0.494c-0.133,0.134-0.312,0.242-0.521,0.316c-0.218,0.079-0.461,0.122-0.746,0.122
	c-0.273,0-0.523-0.043-0.74-0.122c-0.206-0.074-0.39-0.183-0.523-0.326c-0.14-0.136-0.24-0.298-0.317-0.492
	c-0.074-0.191-0.101-0.396-0.101-0.617c0-0.473,0.137-0.844,0.418-1.12c0.285-0.275,0.701-0.412,1.264-0.412
	c0.556,0,0.988,0.137,1.267,0.412c0.285,0.276,0.425,0.647,0.425,1.12C187.177,63.704,187.142,63.908,187.06,64.104z"/>
<path fill="#4F3444" d="M198.684,61.488c-0.365-0.369-0.8-0.647-1.296-0.841c-0.507-0.194-1.061-0.287-1.663-0.287
	c-0.706,0-1.348,0.123-1.911,0.37c-0.566,0.25-1.04,0.582-1.442,1.005c-0.388,0.424-0.688,0.92-0.906,1.496
	c-0.207,0.57-0.312,1.18-0.312,1.832c0,0.832,0.121,1.566,0.356,2.202c0.251,0.628,0.583,1.165,1.005,1.592
	c0.41,0.429,0.906,0.757,1.485,0.978c0.558,0.218,1.171,0.328,1.841,0.328c0.326,0,0.68-0.026,1.04-0.075
	c0.347-0.05,0.697-0.132,1.038-0.253c0.34-0.125,0.67-0.284,0.982-0.483c0.317-0.203,0.606-0.455,0.859-0.745l-0.669-0.836
	c-0.049-0.066-0.103-0.123-0.168-0.16c-0.08-0.037-0.146-0.054-0.252-0.054c-0.138,0-0.285,0.043-0.443,0.126
	c-0.144,0.092-0.318,0.184-0.521,0.286c-0.208,0.111-0.439,0.205-0.704,0.292c-0.276,0.088-0.593,0.129-0.964,0.129
	c-0.746,0-1.357-0.224-1.82-0.683c-0.451-0.458-0.716-1.178-0.794-2.153h5.88c0.118,0,0.202-0.013,0.274-0.045
	c0.063-0.025,0.123-0.068,0.157-0.136c0.039-0.065,0.076-0.16,0.083-0.272c0.019-0.107,0.024-0.255,0.024-0.427
	c0-0.689-0.104-1.301-0.312-1.831C199.342,62.309,199.049,61.855,198.684,61.488z M193.477,64.169
	c0.113-0.69,0.354-1.225,0.724-1.605c0.384-0.377,0.902-0.562,1.569-0.562c0.336,0,0.642,0.057,0.893,0.166
	c0.248,0.116,0.465,0.271,0.633,0.476c0.16,0.194,0.292,0.425,0.367,0.693c0.087,0.258,0.123,0.535,0.123,0.832H193.477z"/>
<path fill="#4F3444" d="M209.797,62.506c-0.149-0.442-0.354-0.824-0.615-1.138c-0.274-0.322-0.609-0.57-1.005-0.747
	c-0.402-0.176-0.867-0.261-1.393-0.261c-0.319,0-0.611,0.031-0.886,0.091c-0.265,0.063-0.531,0.155-0.763,0.269
	c-0.232,0.121-0.472,0.261-0.679,0.418c-0.207,0.164-0.413,0.341-0.605,0.54l-0.164-0.755c-0.084-0.275-0.283-0.416-0.58-0.416
	h-1.401v9.514h2.291v-6.883c0.31-0.3,0.64-0.548,0.982-0.726c0.349-0.185,0.716-0.273,1.126-0.273c0.523,0,0.931,0.158,1.197,0.482
	c0.27,0.313,0.402,0.765,0.402,1.349v6.051H210V63.97C210,63.438,209.926,62.949,209.797,62.506z"/>
<path fill="#4F3444" d="M118.988,60.401c0.712,0,1.368,0.115,1.948,0.35c0.593,0.233,1.094,0.556,1.501,0.984
	c0.415,0.424,0.734,0.942,0.958,1.561c0.228,0.612,0.338,1.292,0.338,2.055c0,0.765-0.11,1.454-0.338,2.066
	c-0.224,0.613-0.543,1.135-0.958,1.567c-0.407,0.431-0.908,0.763-1.501,0.997c-0.58,0.229-1.236,0.346-1.948,0.346
	c-0.724,0-1.384-0.116-1.965-0.346c-0.593-0.234-1.093-0.566-1.507-0.997c-0.414-0.433-0.738-0.954-0.968-1.567
	c-0.229-0.612-0.345-1.302-0.345-2.066c0-0.763,0.115-1.442,0.345-2.055c0.229-0.618,0.554-1.137,0.968-1.561
	c0.414-0.429,0.914-0.751,1.507-0.984C117.604,60.517,118.265,60.401,118.988,60.401z M118.525,58.054
	c0,0.177-0.025,0.341-0.095,0.492c-0.07,0.154-0.16,0.289-0.279,0.399c-0.133,0.109-0.274,0.203-0.426,0.27
	c-0.162,0.065-0.335,0.098-0.507,0.098c-0.171,0-0.335-0.032-0.48-0.098c-0.153-0.066-0.289-0.16-0.41-0.27
	c-0.123-0.11-0.215-0.245-0.278-0.399c-0.074-0.151-0.106-0.315-0.106-0.492c0-0.183,0.032-0.353,0.106-0.511
	c0.063-0.158,0.155-0.302,0.278-0.418c0.121-0.117,0.257-0.214,0.41-0.279c0.146-0.073,0.31-0.104,0.48-0.104
	c0.172,0,0.345,0.031,0.507,0.104c0.151,0.065,0.293,0.162,0.426,0.279c0.119,0.116,0.209,0.26,0.279,0.418
	C118.5,57.701,118.525,57.871,118.525,58.054z M118.988,68.544c0.804,0,1.393-0.27,1.776-0.805c0.381-0.545,0.576-1.329,0.576-2.37
	c0-1.036-0.195-1.83-0.576-2.375c-0.384-0.546-0.973-0.818-1.776-0.818c-0.818,0-1.417,0.272-1.805,0.82
	c-0.394,0.548-0.586,1.339-0.586,2.373c0,1.033,0.192,1.821,0.586,2.36C117.571,68.271,118.17,68.544,118.988,68.544z
	 M122.044,58.054c0,0.177-0.026,0.341-0.106,0.492c-0.062,0.154-0.156,0.289-0.279,0.399c-0.114,0.109-0.256,0.203-0.416,0.27
	c-0.158,0.065-0.326,0.098-0.502,0.098c-0.169,0-0.349-0.032-0.495-0.098c-0.161-0.066-0.293-0.16-0.41-0.27
	c-0.118-0.11-0.211-0.245-0.272-0.399c-0.071-0.151-0.104-0.315-0.104-0.492c0-0.183,0.033-0.353,0.104-0.511
	c0.062-0.158,0.154-0.302,0.272-0.418c0.117-0.117,0.249-0.214,0.41-0.279c0.146-0.073,0.326-0.104,0.495-0.104
	c0.176,0,0.344,0.031,0.502,0.104c0.16,0.065,0.302,0.162,0.416,0.279c0.123,0.116,0.218,0.26,0.279,0.418
	C122.018,57.701,122.044,57.871,122.044,58.054z"/>
</svg>
