<?xml version="1.0" encoding="utf-8"?>
<!-- Generator: Adobe Illustrator 14.0.0, SVG Export Plug-In . SVG Version: 6.00 Build 43363)  -->
<!DOCTYPE svg PUBLIC "-//W3C//DTD SVG 1.1//EN" "http://www.w3.org/Graphics/SVG/1.1/DTD/svg11.dtd">
<svg version="1.1" id="Layer_1" xmlns="http://www.w3.org/2000/svg" xmlns:xlink="http://www.w3.org/1999/xlink" x="0px" y="0px"
	 width="78px" height="78px" viewBox="0 0 78 78" enable-background="new 0 0 78 78" xml:space="preserve">
<path fill="#6F798B" d="M52.5,33.529v-3c0-7.425-6.075-13.5-13.5-13.5s-13.5,6.075-13.5,13.5v3c0,7.425,6.075,13.5,13.5,13.5
	S52.5,40.954,52.5,33.529z M39,0.03c-21.54,0-39,17.46-39,39c0,11.3,4.8,21.48,12.48,28.59c6.927,6.435,15.604,9.891,24.35,10.351
	l-5.85-5.631l5.989-13.488l-6.399-5.11l-17.521,5.649C8.63,53.779,6,46.71,6,39.03c0-18.2,14.8-33,33-33s33,14.8,33,33
	c0,7.67-2.63,14.74-7.04,20.35l-17.53-5.64l-6.41,5.109l5.99,13.489l-5.85,5.632c8.99-0.475,17.593-4.066,24.359-10.352
	C73.2,60.511,78,50.33,78,39.03C78,17.49,60.54,0.03,39,0.03z"/>
</svg>
