<?xml version="1.0" encoding="utf-8"?>
<!-- Generator: Adobe Illustrator 14.0.0, SVG Export Plug-In . SVG Version: 6.00 Build 43363)  -->
<!DOCTYPE svg PUBLIC "-//W3C//DTD SVG 1.1//EN" "http://www.w3.org/Graphics/SVG/1.1/DTD/svg11.dtd">
<svg version="1.1" id="Layer_1" xmlns="http://www.w3.org/2000/svg" xmlns:xlink="http://www.w3.org/1999/xlink" x="0px" y="0px"
	 width="122px" height="162px" viewBox="0 0 122 162" enable-background="new 0 0 122 162" xml:space="preserve">
<g>
	<g>
		<circle fill="#FFFFFF" stroke="#4C4B4C" stroke-linecap="round" stroke-linejoin="round" cx="60.05" cy="15.982" r="14.948"/>
		<path fill="#FFFFFF" stroke="#4C4B4C" stroke-linecap="round" stroke-linejoin="round" d="M98.4,82.461L81.35,39.149
			c-1.01-2.69-3.059-4.543-5.383-4.672l-0.234-0.017H53.307h-5.743c-5.826-0.224-7.018,3.216-7.596,4.49L23.71,82.262
			c-1.295,3.447-0.006,7.119,2.875,8.201c2.884,1.082,6.27-0.836,7.564-4.283l12.109-31.06l0.033,50.948v47.86
			c0,3.887,2.902,7.037,6.48,7.037c3.582,0,6.484-3.15,6.484-7.037v-47.86h3.704v47.86c0,3.887,2.902,7.037,6.48,7.037
			c3.582,0,6.484-3.15,6.484-7.037v-47.86l0.059-50.948l11.184,31.257c1.295,3.449,4.68,5.367,7.562,4.285
			S99.695,85.908,98.4,82.461z"/>
	</g>
	<path fill="#40B150" stroke="#40B150" d="M75.967,34.478"/>
	<path fill="#40B150" stroke="#40B150" d="M39.968,38.951"/>
	<path fill="#40B150" stroke="#40B150" d="M75.732,34.461"/>
	<g>
		<path fill="#40B150" stroke="#40B150" d="M28.518,69.454L23.71,82.262c-1.295,3.447-0.006,7.119,2.875,8.201
			c2.884,1.082,6.27-0.836,7.564-4.283l6.521-16.726H28.518z"/>
		<path fill="#40B150" stroke="#40B150" d="M93.28,69.454H81.113l6.055,16.923c1.295,3.449,4.68,5.367,7.562,4.285
			s4.965-4.754,3.67-8.201L93.28,69.454z"/>
		<path fill="#40B150" stroke="#40B150" d="M46.269,69.454l0.023,36.614v47.86c0,3.887,2.902,7.037,6.48,7.037
			c3.582,0,6.484-3.15,6.484-7.037v-47.86h3.704v47.86c0,3.887,2.902,7.037,6.48,7.037c3.582,0,6.484-3.15,6.484-7.037v-47.86
			l0.042-36.614H46.269z"/>
	</g>
</g>
</svg>
