<?xml version="1.0" encoding="utf-8"?>
<!-- Generator: Adobe Illustrator 14.0.0, SVG Export Plug-In . SVG Version: 6.00 Build 43363)  -->
<!DOCTYPE svg PUBLIC "-//W3C//DTD SVG 1.1//EN" "http://www.w3.org/Graphics/SVG/1.1/DTD/svg11.dtd">
<svg version="1.1" id="Layer_1" xmlns="http://www.w3.org/2000/svg" xmlns:xlink="http://www.w3.org/1999/xlink" x="0px" y="0px"
	 width="122px" height="162px" viewBox="0 0 122 162" enable-background="new 0 0 122 162" xml:space="preserve">
<g>
	<path fill="#FFFFFF" stroke="#4C4B4C" stroke-linecap="round" stroke-linejoin="round" d="M52.998,15.982
		c0,1.906-0.356,3.728-1.007,5.404c-4.265,1.381-4.932,1.381-8.932,2.381c1.167,2.333,1.667,3,2.432,5.182
		c-2.191,1.261-4.731,1.981-7.44,1.981c-8.256,0-14.949-6.692-14.949-14.948c0-8.256,6.693-14.948,14.949-14.948
		C46.304,1.034,52.998,7.726,52.998,15.982z"/>
	
		<rect x="67.884" y="16.93" fill="#FFFFFF" stroke="#4C4B4C" stroke-linecap="round" stroke-linejoin="round" width="17.333" height="11.333"/>
	<polygon fill="#FFFFFF" stroke="#4C4B4C" stroke-linecap="round" stroke-linejoin="round" points="104.55,35.847 85.218,28.348 
		85.134,16.931 104.55,9.181 	"/>
	<g>
		<path fill="#FFFFFF" stroke="#4C4B4C" stroke-linecap="round" stroke-linejoin="round" d="M76.05,53.68
			c0.117-0.222,5.306-12.466,5.393-12.694c1.188-3.104-0.38-6.584-2.918-7.921c-2.724-1.435-6.322,0.043-8.04,3.302L64.05,52.43
			l-4.701-13.28c-1.01-2.69-3.059-4.543-5.383-4.672l-0.234-0.017H31.307h-5.743c-5.826-0.224-7.018,3.215-7.596,4.49L1.71,82.262
			c-1.295,3.447-0.006,7.119,2.875,8.201c2.884,1.082,6.27-0.836,7.564-4.283l12.109-31.06l0.033,50.948v47.861
			c0,3.887,2.902,7.037,6.48,7.037c3.582,0,6.484-3.15,6.484-7.037v-47.861h3.703v47.861c0,3.887,2.902,7.037,6.48,7.037
			c3.582,0,6.484-3.15,6.484-7.037v-47.861l0.059-50.948"/>
	</g>
	<g>
		<path fill="#FFFFFF" stroke="#4C4B4C" stroke-linecap="round" stroke-linejoin="round" d="M75.925,54.055L69.4,69.036
			c-1.976,3.894-5.201,4.225-7.921,2.785C58.758,70.38,56.425,60.43,54.05,55.18"/>
	</g>
	<g>
		<path fill="#FFFFFF" stroke="#4C4B4C" stroke-linecap="round" stroke-linejoin="round" d="M108.626,15.506
			c4.101,0,7.424,3.324,7.424,7.424c0,4.101-3.323,7.424-7.424,7.424"/>
		<path fill="none" stroke="#4C4B4C" stroke-linecap="round" stroke-linejoin="round" d="M108.626,13.111
			c5.424,0,9.819,4.396,9.819,9.819c0,5.423-4.396,9.819-9.819,9.819"/>
		<path fill="none" stroke="#4C4B4C" stroke-linecap="round" stroke-linejoin="round" d="M108.626,10.764
			c6.72,0,12.167,5.447,12.167,12.167s-5.447,12.167-12.167,12.167"/>
	</g>
</g>
</svg>
