<?xml version="1.0" encoding="utf-8"?>
<!-- Generator: Adobe Illustrator 14.0.0, SVG Export Plug-In . SVG Version: 6.00 Build 43363)  -->
<!DOCTYPE svg PUBLIC "-//W3C//DTD SVG 1.1//EN" "http://www.w3.org/Graphics/SVG/1.1/DTD/svg11.dtd">
<svg version="1.1" id="Layer_1" xmlns="http://www.w3.org/2000/svg" xmlns:xlink="http://www.w3.org/1999/xlink" x="0px" y="0px"
	 width="122px" height="162px" viewBox="0 0 122 162" enable-background="new 0 0 122 162" xml:space="preserve">
<g>
	<path fill="#FFFFFF" stroke="#4C4B4C" stroke-linecap="round" stroke-linejoin="round" d="M74.998,15.972
		c0,1.906-0.356,3.728-1.007,5.404c-4.265,1.381-4.932,1.381-8.932,2.381c1.167,2.333,1.667,3,2.432,5.182
		c-2.19,1.261-4.731,1.981-7.441,1.981c-8.256,0-14.949-6.692-14.949-14.948c0-8.256,6.693-14.948,14.949-14.948
		C68.305,1.023,74.998,7.716,74.998,15.972z"/>
	<path fill="#FFFFFF" stroke="#4C4B4C" stroke-linecap="round" stroke-linejoin="round" d="M98.4,82.45L81.35,39.139
		c-1.01-2.69-3.059-4.543-5.383-4.672l-0.234-0.017H53.307h-5.743c-5.826-0.224-7.018,3.215-7.596,4.49L23.71,82.252
		c-1.295,3.446-0.006,7.118,2.875,8.2c2.884,1.082,6.27-0.836,7.564-4.283L46.259,55.11l0.033,50.948v47.861
		c0,3.887,2.902,7.037,6.48,7.037c3.582,0,6.484-3.15,6.484-7.037v-47.861h3.704v47.861c0,3.887,2.902,7.037,6.48,7.037
		c3.582,0,6.484-3.15,6.484-7.037v-47.861l0.059-50.948l11.184,31.256c1.295,3.449,4.68,5.367,7.562,4.285S99.695,85.897,98.4,82.45
		z"/>
</g>
<g>
	<g>
		<path fill="#FFFFFF" stroke="#4C4B4C" stroke-linecap="round" stroke-linejoin="round" d="M74.998,15.981
			c0,1.906-0.356,3.729-1.007,5.404c-4.265,1.381-4.932,1.381-8.932,2.381c1.167,2.334,1.667,3,2.432,5.182
			c-2.19,1.261-4.731,1.981-7.441,1.981c-8.256,0-14.949-6.691-14.949-14.948c0-8.256,6.693-14.948,14.949-14.948
			C68.305,1.033,74.998,7.726,74.998,15.981z"/>
		<path fill="#FFFFFF" stroke="#4C4B4C" stroke-linecap="round" stroke-linejoin="round" d="M98.4,82.461L81.35,39.149
			c-1.01-2.69-3.059-4.544-5.383-4.672l-0.234-0.017H53.307h-5.743c-5.826-0.225-7.018,3.215-7.596,4.49L23.71,82.262
			c-1.295,3.447-0.006,7.119,2.875,8.201c2.884,1.082,6.27-0.836,7.564-4.283l12.109-31.06l0.033,50.948v47.861
			c0,3.887,2.902,7.037,6.48,7.037c3.582,0,6.484-3.15,6.484-7.037v-47.861h3.704v47.861c0,3.887,2.902,7.037,6.48,7.037
			c3.582,0,6.484-3.15,6.484-7.037v-47.861l0.059-50.948l11.184,31.257c1.295,3.449,4.68,5.367,7.562,4.285
			S99.695,85.908,98.4,82.461z"/>
	</g>
	<g>
		<path fill="#FFFFFF" stroke="#4C4B4C" stroke-linecap="round" stroke-linejoin="round" d="M81.809,17.947
			c2.752,0,4.983,2.23,4.983,4.982c0,2.753-2.231,4.983-4.983,4.983"/>
		<path fill="none" stroke="#4C4B4C" stroke-linecap="round" stroke-linejoin="round" d="M81.809,16.339
			c3.641,0,6.592,2.951,6.592,6.591c0,3.641-2.951,6.591-6.592,6.591"/>
		<path fill="none" stroke="#4C4B4C" stroke-linecap="round" stroke-linejoin="round" d="M81.809,14.764
			c4.511,0,8.167,3.656,8.167,8.166c0,4.511-3.656,8.167-8.167,8.167"/>
	</g>
</g>
</svg>
